<svg width="60" height="60" viewBox="0 0 60 60" fill="none" xmlns="http://www.w3.org/2000/svg">
<path d="M38.8566 18.7959H20.1674C20.1674 18.7959 20.1674 18.7959 20.1519 18.7959H17.3207C15.3559 18.7959 13.7623 20.3894 13.7623 22.3543V35.2727C13.7623 37.2375 15.3559 38.8311 17.3207 38.8311H20.1519H38.8566H41.6878C43.6526 38.8311 45.2462 37.2375 45.2462 35.2727V22.3543C45.2462 20.3894 43.6526 18.7959 41.6878 18.7959H38.8566ZM42.9255 25.8972V31.7143C40.249 31.8381 38.0675 33.8803 37.7272 36.4949H21.2813C20.941 33.8803 18.7595 31.8381 16.083 31.7143V25.8972C18.7595 25.7734 20.941 23.7312 21.2813 21.1166H37.7272C38.0675 23.7312 40.249 25.7734 42.9255 25.8972ZM17.3207 21.1166H18.9297C18.6203 22.4471 17.4754 23.4527 16.083 23.5765V22.3543C16.083 21.6735 16.64 21.1166 17.3207 21.1166ZM16.083 35.2572V34.035C17.4754 34.1433 18.6203 35.1644 18.9297 36.4949H17.3207C16.64 36.4949 16.083 35.938 16.083 35.2572ZM41.7033 36.4949H40.0943C40.4037 35.1644 41.5486 34.1588 42.941 34.035V35.2572C42.9255 35.938 42.384 36.4949 41.7033 36.4949ZM42.9255 22.3388V23.561C41.5331 23.4527 40.3882 22.4316 40.0788 21.1011H41.6878C42.384 21.1166 42.9255 21.6735 42.9255 22.3388Z" fill="white"/>
<path d="M29.512 33.8642C32.2968 33.8642 34.571 31.59 34.571 28.8052C34.571 26.0204 32.2968 23.7461 29.512 23.7461C26.7271 23.7461 24.4529 26.0204 24.4529 28.8052C24.4529 31.59 26.7117 33.8642 29.512 33.8642ZM29.512 26.0668C31.0281 26.0668 32.2504 27.289 32.2504 28.8052C32.2504 30.3213 31.0281 31.5436 29.512 31.5436C27.9958 31.5436 26.7736 30.3213 26.7736 28.8052C26.7736 27.289 27.9958 26.0668 29.512 26.0668Z" fill="white"/>
<path d="M30.0225 56.0656C36.9691 56.0656 43.4979 53.3582 48.4177 48.4383C52.9817 43.8743 55.6737 37.8096 55.9986 31.3582C56.0296 30.7238 55.5345 30.1669 54.9002 30.1359C54.2659 30.105 53.7089 30.6001 53.6779 31.2344C53.384 37.098 50.9241 42.6212 46.7623 46.7829C42.2912 51.2541 36.3348 53.7295 30.007 53.7295C23.6793 53.7295 17.7229 51.2696 13.2518 46.7829C4.01547 37.5466 4.01547 22.5087 13.2518 13.2724C21.1266 5.39753 33.3798 4.08248 42.6934 10.0079L40.0788 13.2105L47.5823 12.4524L46.8242 4.94886L44.1786 8.19781C33.9213 1.51426 20.3221 2.92214 11.6118 11.6324C1.46273 21.7815 1.46273 38.2738 11.6118 48.4229C16.5471 53.3582 23.076 56.0656 30.0225 56.0656Z" fill="white"/>
</svg>
