<svg width="60" height="60" viewBox="0 0 60 60" fill="none" xmlns="http://www.w3.org/2000/svg">
<path d="M22.1194 4.92546C22.1194 4.92546 31.2537 -1.25364 32.7761 7.97024" stroke="white" stroke-width="2"/>
<path d="M31.9701 5.46294C31.9701 5.46294 33.7612 2.41816 41.6418 2.77637C41.6418 5.28383 39.3134 11.642 35.8209 12.8062C44.3283 17.8211 50.597 32.6868 50.597 41.642C50.597 52.4779 41.3731 58.2988 30 58.2988C18.6268 58.2988 9.40295 52.4779 9.40295 41.642C9.40295 32.7764 15.5821 17.8211 24.1791 12.8062C20.6865 11.642 18.3582 5.28383 18.3582 2.77637C18.3582 2.77637 22.2985 6.26891 27.3134 6.26891" stroke="white" stroke-width="2"/>
<path d="M23.5522 12.5371H37.2537" stroke="white" stroke-width="2"/>
<path d="M37.2537 13.7022C37.2537 13.7022 47.2835 13.4336 47.2835 19.0754" stroke="white" stroke-width="2"/>
<path d="M37.4329 12.0006C37.4329 12.0006 45.3135 12.4484 49.8806 9.49316" stroke="white" stroke-width="2"/>
<path d="M26.4178 42.269C26.4178 44.5973 28.388 46.3884 30.8955 46.3884C33.3134 46.3884 35.3731 44.5078 35.3731 42.269C35.3731 38.866 30.8955 37.3436 30.8955 37.3436C30.8955 37.3436 26.4178 35.6421 26.4178 32.4182C26.4178 30.0899 28.388 28.2988 30.8955 28.2988C33.3134 28.2988 35.3731 30.1794 35.3731 32.4182" stroke="white" stroke-width="2"/>
<path d="M30.9851 23.7314V50.9553" stroke="white" stroke-width="2"/>
</svg>
