<svg width="60" height="60" viewBox="0 0 60 60" fill="none" xmlns="http://www.w3.org/2000/svg">
<g clip-path="url(#clip0_610_5859)">
<path d="M56.1563 28.125C55.7813 22.6875 53.7187 17.625 50.4375 13.5938L52.3125 11.7188L56.0625 15.4688V13.2188V3.75H44.25L48 7.5L46.125 9.375C41.625 5.90625 36.0938 3.75 30 3.75C29.7187 3.75 29.4375 3.75 29.1563 3.75C19.875 4.125 11.8125 9.1875 7.40625 16.6875C5.0625 20.5312 3.75 25.125 3.75 30C3.75 44.5312 15.4688 56.25 30 56.25C36.2812 56.25 42.1875 54 46.6875 50.25C52.5 45.4687 56.25 38.25 56.25 30C56.25 29.4375 56.25 28.7812 56.1563 28.125ZM48.75 5.625H54.1875V11.0625L52.3125 9.1875L39.8438 21.5625L38.1563 19.875L50.625 7.40625L48.75 5.625ZM28.3125 5.71875C28.3125 5.90625 28.3125 6 28.3125 6.1875C28.3125 7.21875 28.2187 8.625 27.9375 9.9375C27.8437 10.5938 27.6563 11.1562 27.375 11.625C27.1875 12.0937 26.9062 12.4687 26.625 12.6562C25.5937 13.4063 24.75 14.25 24.0938 15.1875C23.4375 16.125 23.0625 17.1562 23.0625 18.1875C23.0625 18.8437 23.25 19.5 23.5313 20.0625C23.9063 20.8125 24.1875 21.6563 24.1875 22.5C24.1875 23.5313 23.9062 24.4687 23.25 25.125C22.5937 25.875 21.6562 27 21 28.125C20.625 28.6875 20.25 29.25 20.0625 29.8125C19.7812 30.375 19.5937 30.9375 19.5937 31.5938C19.5937 31.9688 19.6875 32.3438 19.875 32.7188C20.0625 33.0938 20.25 33.4687 20.4375 33.8437C20.5312 34.2187 20.625 34.5 20.625 34.5938H20.4375C20.4375 34.5938 20.25 34.5937 20.0625 34.5C19.6875 34.3125 19.125 34.0312 18.5625 33.5625C17.7187 32.9062 16.875 31.875 16.2187 30.9375C15.5625 29.9062 15.1875 28.9688 15.1875 28.2188C15.1875 27.8438 15.1875 27.4687 15.1875 27.0937C15.1875 25.7812 15.1875 24.6563 14.9062 23.625C14.7187 23.1563 14.5312 22.5938 14.0625 22.2188C13.5938 21.8438 13.0313 21.6563 12.4688 21.6563C12.4688 21.6563 12.375 21.6563 12.1875 21.5625C11.9062 21.375 11.5312 21 11.1562 20.5312C10.5937 19.7812 10.125 18.8437 9.75 18.0937C9.5625 17.7187 9.46875 17.4375 9.375 17.1562C13.3125 10.7812 20.25 6.28125 28.3125 5.71875ZM12.75 47.25C8.34375 42.8438 5.625 36.75 5.625 30C5.625 26.1563 6.5625 22.5 8.15625 19.2188C8.34375 19.5938 8.53125 19.9688 8.71875 20.3438C9.09375 21.0938 9.5625 21.8437 10.125 22.4062C10.4063 22.6875 10.6875 22.9688 11.0625 23.1563C11.4375 23.3438 11.8125 23.5313 12.2813 23.5313C12.5625 23.5313 12.6563 23.625 12.75 23.625C12.8438 23.625 12.8438 23.7187 12.9375 23.9062C13.0313 24.1875 13.125 24.5625 13.2188 25.125C13.2188 25.6875 13.3125 26.3437 13.3125 27C13.3125 27.375 13.3125 27.75 13.3125 28.125C13.3125 29.1563 13.6875 30.0937 14.1563 31.0312C14.9063 32.4375 16.0312 33.75 17.1562 34.6875C17.7187 35.1562 18.2813 35.625 18.8438 35.9062C19.4063 36.1875 19.9687 36.4688 20.5312 36.4688H20.7188C21.1875 36.4688 21.75 36.2812 22.125 35.9062C22.3125 35.7187 22.4062 35.5312 22.5 35.25C22.5938 35.0625 22.5938 34.7813 22.5938 34.5938C22.5938 34.0313 22.4063 33.5625 22.2188 33.0937C22.0313 32.625 21.8438 32.1563 21.5625 31.7813C21.5625 31.7813 21.5625 31.6875 21.5625 31.5938C21.5625 31.4063 21.6562 31.0312 21.8437 30.5625C22.4062 29.25 23.8125 27.4688 24.8438 26.3438C25.7812 25.2188 26.25 23.8125 26.25 22.5C26.25 21.2813 25.9687 20.0625 25.3125 19.125C25.125 18.8437 25.0313 18.5625 25.0313 18.1875C25.0313 17.625 25.2187 16.9687 25.6875 16.2187C26.1562 15.4687 26.9063 14.8125 27.75 14.1563C28.3125 13.6875 28.7812 13.125 29.0625 12.4688C29.5312 11.4375 29.8125 10.3125 29.9062 9.1875C30.0937 8.0625 30.0937 7.03125 30.0937 6.1875C30.0937 6 30.0937 5.8125 30.0937 5.625C35.625 5.625 40.5937 7.5 44.625 10.5938L35.4375 19.7813L39.75 24.0938L49.0312 14.8125C51.6562 18.0938 53.3437 22.0313 54 26.3438C53.8125 26.25 53.625 26.1562 53.4375 26.0625C52.7813 25.7812 52.125 25.5 51.4688 25.2187C50.8125 25.0312 50.0625 24.8438 49.4063 24.8438C49.125 24.8438 48.8438 24.8438 48.4688 24.9375C48.1875 25.0313 47.9062 25.2188 47.625 25.5C47.1562 26.0625 46.4063 26.625 45.6563 27.0937C44.9063 27.5625 44.1563 27.8438 43.5 27.8438C43.3125 27.8438 43.125 27.8438 43.0313 27.75C42.6563 27.6563 42.375 27.6562 42 27.6562C40.875 27.6562 39.5625 28.0312 38.4375 28.5938C37.875 28.875 37.4063 29.25 36.9375 29.625C36.5625 30.0938 36.1875 30.6563 36.1875 31.3125C36.1875 31.5 36.1875 31.7812 36.2813 31.9687C36.4688 32.3437 36.4688 32.9063 36.4688 33.4688C36.4688 34.125 36.375 34.875 36.0938 35.4375C35.9062 36 35.5312 36.375 35.4375 36.375C35.1562 36.4687 34.6875 36.6563 34.125 36.9375C33.2813 37.2188 32.25 37.6875 31.4062 38.25C30.9375 38.5312 30.5625 38.9063 30.1875 39.2813C29.8125 39.6563 29.5312 40.2187 29.3437 40.7812C29.25 40.9688 29.25 41.1563 29.25 41.4375C29.25 42 29.4375 42.5625 29.8125 43.0313C30.2812 43.6875 31.0313 44.1563 31.875 44.4375C32.7187 44.7188 33.6562 44.9063 34.7812 44.9063C35.625 44.9063 36.5625 44.8125 37.4063 44.5312C38.0625 44.3437 38.5312 44.25 39 44.25C39.9375 44.25 40.5 44.5312 40.875 45C41.25 45.4688 41.625 46.125 41.7188 46.6875C41.9063 47.3437 42.1875 47.9062 42.6562 48.2812C43.125 48.8438 43.6875 49.2187 44.1562 49.5C40.125 52.4062 35.1562 54.1875 29.8125 54.1875C23.25 54.375 17.1563 51.6563 12.75 47.25ZM45.9375 48.4688C45.6562 48.375 45.375 48.1875 45.0937 48C44.8125 47.8125 44.4375 47.5313 44.25 47.25C43.9688 46.9688 43.875 46.6875 43.7813 46.4062C43.5938 45.5625 43.2187 44.625 42.4687 43.875C41.7187 43.125 40.5937 42.5625 39.1875 42.5625C38.5312 42.5625 37.875 42.6563 37.125 42.8438C36.375 43.0313 35.7187 43.125 34.9687 43.125C33.8437 43.125 32.9063 42.8437 32.25 42.4687C31.9688 42.2812 31.6875 42.0938 31.5938 41.9063C31.5 41.7188 31.4062 41.625 31.4062 41.4375V41.25C31.5 40.9687 31.6875 40.6875 32.0625 40.3125C32.625 39.8438 33.375 39.375 34.2188 39.0938C35.0625 38.7188 35.9063 38.4375 36.4688 38.1563C37.3125 37.7813 37.7812 37.0312 38.0625 36.1875C38.3437 35.3437 38.5312 34.5 38.5312 33.5625C38.5312 32.8125 38.4375 32.1562 38.1563 31.5V31.4062C38.1563 31.4062 38.1562 31.2187 38.4375 31.0312C38.7188 30.6562 39.375 30.2812 40.0313 30.0937C40.6875 29.8125 41.5313 29.625 42.0938 29.7188C42.2813 29.7188 42.4687 29.7187 42.6562 29.8125C43.0313 29.9062 43.3125 29.9062 43.6875 29.9062C44.8125 29.9062 45.8438 29.5312 46.7813 28.9687C47.7188 28.4062 48.5625 27.75 49.2188 27H49.3125C49.4062 27 49.5 27 49.5938 27C49.9688 27 50.4375 27.0938 51.0938 27.2813C51.9375 27.5625 52.9688 28.0312 53.625 28.4062C53.9063 28.5937 54.1875 28.6875 54.375 28.7813C54.375 29.25 54.4687 29.625 54.4687 30.0937C54.375 37.4062 51.0938 43.9688 45.9375 48.4688Z" fill="#ED1C24"/>
</g>
<defs>
<clipPath id="clip0_610_5859">
<rect width="60" height="60" fill="white"/>
</clipPath>
</defs>
</svg>
