<svg width="60" height="60" viewBox="0 0 60 60" fill="none" xmlns="http://www.w3.org/2000/svg">
<path d="M19.4589 17.3361C20.9904 13.41 23.8456 10.1424 27.5308 8.09815C31.2161 6.05392 35.4998 5.36159 39.6414 6.14083C43.7829 6.92008 47.5221 9.12192 50.2124 12.3657C52.9027 15.6095 54.3751 19.6914 54.375 23.9056C54.3746 28.0821 52.9281 32.1296 50.2813 35.3602C47.6344 38.5909 43.9505 40.8053 39.8557 41.6272" stroke="white" stroke-width="2" stroke-linecap="round" stroke-linejoin="round"/>
<path d="M27.1974 53.5379C25.4648 52.9708 23.9228 51.9358 22.7416 50.5472C21.5604 49.1586 20.786 47.4706 20.5041 45.6695C20.2222 43.8684 20.4436 42.0245 21.144 40.3414C21.8443 38.6583 22.9963 37.2016 24.4727 36.1321C25.949 35.0627 27.6923 34.4222 29.5099 34.2815C31.3274 34.1407 33.1485 34.5051 34.7719 35.3345C36.3954 36.1638 37.7579 37.4258 38.7091 38.981C39.6602 40.5362 40.1629 42.3241 40.1616 44.1471C40.1606 46.2466 39.491 48.2912 38.2499 49.9846C37.0087 51.6779 35.2606 52.932 33.2588 53.565" stroke="white" stroke-width="2" stroke-linecap="round" stroke-linejoin="round"/>
<path d="M27.1974 49.3671C26.2654 48.8238 25.4927 48.045 24.9567 47.1088C24.4207 46.1726 24.1403 45.1119 24.1437 44.0331C24.1471 42.9543 24.434 41.8954 24.9758 40.9626C25.5176 40.0297 26.2952 39.2557 27.2306 38.7183C28.1659 38.1808 29.2262 37.8987 30.305 37.9004C31.3837 37.902 32.4431 38.1873 33.3768 38.7277C34.3105 39.268 35.0858 40.0444 35.6247 40.9789C36.1636 41.9134 36.4474 42.9732 36.4474 44.0519C36.4477 45.1546 36.1519 46.2371 35.5909 47.1864C35.0299 48.1356 34.2243 48.9169 33.2583 49.4484" stroke="white" stroke-width="2" stroke-linecap="round" stroke-linejoin="round"/>
<path d="M30.2734 54.171V45.8613Z" fill="white"/>
<path d="M30.2734 54.171V45.8613" stroke="white" stroke-width="2" stroke-linecap="round" stroke-linejoin="round"/>
<path d="M15.5132 43.043C12.429 42.2817 9.7301 40.4179 7.92588 37.8031C6.12166 35.1884 5.33695 32.0037 5.71983 28.8501C6.10272 25.6965 7.62672 22.7921 10.0042 20.6851C12.3817 18.578 15.4482 17.4142 18.625 17.4131H18.6341C22.0832 17.4119 25.3914 18.7808 27.8311 21.2188C30.2709 23.6568 31.6422 26.964 31.6435 30.4131V30.4177C31.644 31.7355 31.4442 33.0456 31.051 34.3033" stroke="white" stroke-width="2" stroke-linecap="round" stroke-linejoin="round"/>
<path d="M15.5132 37.6559C14.1995 37.0985 13.0614 36.1956 12.2198 35.0431C11.3783 33.8906 10.8646 32.5317 10.7336 31.1107C10.6025 29.6897 10.8589 28.2597 11.4755 26.9728C12.0921 25.6858 13.0458 24.59 14.2353 23.8017C15.4249 23.0134 16.8058 22.5621 18.2313 22.4958C19.6568 22.4295 21.0736 22.7507 22.3312 23.4252C23.5887 24.0997 24.6401 25.1023 25.3734 26.3264C26.1068 27.5506 26.4948 28.9506 26.4962 30.3776C26.4957 31.9473 26.0278 33.4813 25.1521 34.7839C24.2764 36.0866 23.0325 37.099 21.5792 37.692" stroke="white" stroke-width="2" stroke-linecap="round" stroke-linejoin="round"/>
<path d="M18.5983 43.4461V32.6396Z" fill="white"/>
<path d="M18.5983 43.4461V32.6396" stroke="white" stroke-width="2" stroke-linecap="round" stroke-linejoin="round"/>
<path d="M25.9941 19.6749C26.973 17.2873 28.7506 15.3138 31.0231 14.0914C33.2956 12.8691 35.9221 12.4739 38.4538 12.9733C40.9854 13.4726 43.2651 14.8356 44.9032 16.8294C46.5414 18.8231 47.4364 21.3238 47.4353 23.9043C47.4348 26.3972 46.5979 28.8179 45.0585 30.7789C43.5191 32.7398 41.3663 34.1275 38.9448 34.7199" stroke="white" stroke-width="2" stroke-linecap="round" stroke-linejoin="round"/>
<path d="M36.2896 26.9395V35.7965Z" fill="white"/>
<path d="M36.2896 26.9395V35.7965" stroke="white" stroke-width="2" stroke-linecap="round" stroke-linejoin="round"/>
<path d="M30.2734 45.644C31.1678 45.644 31.8928 44.919 31.8928 44.0246C31.8928 43.1303 31.1678 42.4053 30.2734 42.4053C29.3791 42.4053 28.6541 43.1303 28.6541 44.0246C28.6541 44.919 29.3791 45.644 30.2734 45.644Z" stroke="white" stroke-width="2" stroke-linecap="round" stroke-linejoin="round"/>
<path d="M18.5982 32.5077C19.7624 32.5077 20.7061 31.564 20.7061 30.3999C20.7061 29.2357 19.7624 28.292 18.5982 28.292C17.4341 28.292 16.4904 29.2357 16.4904 30.3999C16.4904 31.564 17.4341 32.5077 18.5982 32.5077Z" stroke="white" stroke-width="2" stroke-linecap="round" stroke-linejoin="round"/>
<path d="M36.294 26.9487C38.0027 26.9487 39.388 25.5635 39.388 23.8547C39.388 22.146 38.0027 20.7607 36.294 20.7607C34.5852 20.7607 33.2 22.146 33.2 23.8547C33.2 25.5635 34.5852 26.9487 36.294 26.9487Z" stroke="white" stroke-width="2" stroke-linecap="round" stroke-linejoin="round"/>
</svg>
