<svg width="60" height="60" viewBox="0 0 60 60" fill="none" xmlns="http://www.w3.org/2000/svg">
<g clip-path="url(#clip0_610_5814)">
<path d="M57.1875 28.1252V8.4377V0.937705C57.1875 0.626455 57.0328 0.33583 56.7759 0.161455C56.5181 -0.0129201 56.1909 -0.0485451 55.9022 0.0667674L46.5272 3.81677C46.1709 3.9602 45.9375 4.30427 45.9375 4.6877C45.9375 5.07114 46.1709 5.4152 46.5262 5.55864L55.3125 9.07239V28.1252H54.375C54.1266 28.1252 53.8875 28.2236 53.7122 28.3999L37.0312 45.0808L33.4753 41.5249C33.1088 41.1583 32.5162 41.1583 32.1497 41.5249L21.0938 52.5808L14.2566 45.7436C13.89 45.3771 13.2975 45.3771 12.9309 45.7436L0.274688 58.3999C0.0984375 58.5752 0 58.8133 0 59.0627V60.0002H1.875V59.4508L13.5938 47.7321L20.4309 54.5693C20.7975 54.9358 21.39 54.9358 21.7566 54.5693L32.8125 43.5133L36.3684 47.0693C36.735 47.4358 37.3275 47.4358 37.6941 47.0693L54.7631 30.0002H60V28.1252H57.1875ZM49.3988 4.6877L55.3125 2.32239V7.05395L49.3988 4.6877Z" fill="#ED1C24"/>
<path d="M1.61815 40.9566C3.89065 38.5547 8.6119 40.0631 11.4328 40.9631C12.6019 41.3363 13.726 41.5228 14.7881 41.5228C15.8691 41.5228 16.8778 41.3091 17.8125 40.9266V46.875C17.8125 47.3934 18.2325 47.8125 18.75 47.8125H23.4375C23.955 47.8125 24.375 47.3934 24.375 46.875V37.7653C24.5822 37.4559 24.9656 37.2141 25.5497 36.9281C25.7381 36.8353 25.9303 36.75 26.1225 36.6647C26.6597 36.4247 27.2156 36.1762 27.735 35.7909C28.3472 35.3372 28.8019 34.5563 28.9828 33.75H30.9375V39.375C30.9375 39.8934 31.3575 40.3125 31.875 40.3125H36.5625C37.08 40.3125 37.5 39.8934 37.5 39.375V31.875C37.5 29.2903 35.3972 27.1875 32.8125 27.1875H27.1875V24.375H31.875C34.4597 24.375 36.5625 22.2722 36.5625 19.6875V11.25C36.5625 10.7316 36.1425 10.3125 35.625 10.3125H31.875C31.3575 10.3125 30.9375 10.7316 30.9375 11.25V18.75H26.3531C26.8341 17.9212 27.1144 16.9622 27.1144 15.9375C27.1144 12.8353 24.5916 10.3125 21.4894 10.3125C18.3872 10.3125 15.8644 12.8353 15.8644 15.9375C15.8644 16.8769 16.0988 17.7609 16.5075 18.5409C13.3406 19.4747 10.486 21.5728 8.21534 24.6825C7.20659 26.0634 6.4594 27.6366 5.73659 29.1572C5.54346 29.5641 5.35127 29.9681 5.15627 30.3647C4.71659 31.2572 4.30221 32.2322 3.90096 33.1753C2.89596 35.5359 1.85815 37.9763 0.257836 39.6675L0.256899 39.6684C-0.0993513 40.0444 -0.0824762 40.6378 0.293461 40.9941C0.669399 41.3484 1.26377 41.3334 1.61815 40.9566ZM17.8125 28.8206L16.7203 27.7294L17.8125 26.6381V28.8206ZM26.6194 34.2834C26.2641 34.5469 25.8235 34.7428 25.3585 34.9519C25.1456 35.0466 24.9338 35.1412 24.7256 35.2434C24.6103 35.2997 24.4931 35.3653 24.375 35.4272V33.75H27.0094C26.9044 33.9713 26.7703 34.1719 26.6194 34.2834ZM31.875 20.625C32.3925 20.625 32.8125 20.2059 32.8125 19.6875V12.1875H34.6875V19.6875C34.6875 21.2381 33.4256 22.5 31.875 22.5H26.25C25.7325 22.5 25.3125 22.9191 25.3125 23.4375V28.125C25.3125 28.6434 25.7325 29.0625 26.25 29.0625H32.8125C34.3631 29.0625 35.625 30.3244 35.625 31.875V38.4375H32.8125V32.8125C32.8125 32.2941 32.3925 31.875 31.875 31.875H23.4375C22.92 31.875 22.5 32.2941 22.5 32.8125V45.9375H19.6875V24.375C19.6875 23.9962 19.4588 23.6531 19.1091 23.5088C18.7585 23.3625 18.3563 23.4441 18.0872 23.7122L14.7319 27.0666C14.5556 27.2428 14.4572 27.48 14.4572 27.7294C14.4572 27.9787 14.5556 28.2169 14.7319 28.3922L17.3503 31.0106L15.8635 32.4975L13.0847 29.7188C11.9888 28.6219 11.9888 26.8378 13.0847 25.7409L18.2766 20.5491C19.1888 21.1856 20.295 21.5625 21.4885 21.5625C21.5138 21.5625 21.5372 21.5588 21.5625 21.5588V27.1875H23.4375V21.2072C23.8463 21.0553 24.2335 20.8622 24.5916 20.625H31.875ZM21.4885 12.1875C23.5566 12.1875 25.2385 13.8694 25.2385 15.9375C25.2385 18.0056 23.5566 19.6875 21.4885 19.6875C19.4203 19.6875 17.7385 18.0056 17.7385 15.9375C17.7385 13.8694 19.4213 12.1875 21.4885 12.1875ZM5.62596 33.9094C6.03565 32.9475 6.4219 32.0391 6.83815 31.1925C7.0369 30.7884 7.23284 30.3769 7.42971 29.9625C8.11502 28.5197 8.82377 27.0272 9.72846 25.7887C10.876 24.2175 12.6413 22.3237 15.0703 21.105L11.7581 24.4172C9.93096 26.2444 9.93096 29.2191 11.7581 31.0463L15.1997 34.4878C15.5663 34.8544 16.1588 34.8544 16.5253 34.4878L17.8125 33.2006V38.8425C15.8419 39.9984 13.591 39.6844 12.0028 39.1781C9.7969 38.4731 6.57846 37.4475 3.77909 37.8891C4.47471 36.6141 5.05596 35.25 5.62596 33.9094Z" fill="#ED1C24"/>
</g>
<defs>
<clipPath id="clip0_610_5814">
<rect width="60" height="60" fill="white"/>
</clipPath>
</defs>
</svg>
