<svg width="60" height="60" viewBox="0 0 60 60" fill="none" xmlns="http://www.w3.org/2000/svg">
<path d="M56.0005 8.04654C55.8046 7.84734 55.5369 7.73514 55.2575 7.73514H46.4165V6.20351C46.475 6.07337 46.5081 5.92947 46.5081 5.77761C46.5081 5.62574 46.475 5.48184 46.4165 5.35171V1.32257C46.4165 0.746873 45.9499 0.280273 45.3742 0.280273H14.5247C13.949 0.280273 13.4824 0.746873 13.4824 1.32257V7.73514H4.74259C4.46313 7.73514 4.19543 7.84734 3.99956 8.04654C3.80356 8.24577 3.69583 8.51534 3.70046 8.79474C3.78523 13.9053 4.88379 18.7006 6.79386 22.2973C8.78709 26.0505 11.4783 28.1449 14.3862 28.2156C16.1144 33.3807 20.3224 37.3812 25.5665 38.852V46.6955C23.4216 47.9086 21.8898 49.9832 21.4893 52.44H14.5382C13.9625 52.44 13.4959 52.9064 13.4959 53.4823V58.678C13.4959 59.2535 13.9625 59.7203 14.5382 59.7203H45.4619C46.0376 59.7203 46.5042 59.2535 46.5042 58.678V53.4823C46.5042 52.9065 46.0376 52.44 45.4619 52.44H38.5108C38.1102 49.9832 36.5785 47.9086 34.4336 46.6955V38.8654C39.7094 37.4007 43.9298 33.3738 45.6636 28.2145C48.5524 28.1213 51.2244 26.0292 53.2062 22.2973C55.1163 18.7006 56.2148 13.9053 56.2996 8.79477C56.3042 8.51534 56.1965 8.24574 56.0005 8.04654ZM13.4959 26.0011C11.7128 25.5438 10.0167 23.9215 8.63489 21.3196C7.00676 18.2537 6.01839 14.2032 5.81776 9.81971H13.4824V23.8336C13.4824 23.8877 13.4879 23.9405 13.4959 23.9925V26.0011H13.4959ZM44.4196 54.5245V57.6357H15.5805V54.5245H22.4298H37.5703H44.4196ZM36.3903 52.4399H23.6098C24.234 49.6696 26.8486 47.629 30 47.629C33.1515 47.629 35.766 49.6696 36.3903 52.4399ZM27.6511 45.8498V39.2939C28.4273 39.4061 29.2205 39.4643 30.0266 39.4643C30.8149 39.4643 31.5899 39.4073 32.3489 39.3V45.8497C31.6025 45.6519 30.8153 45.5444 30 45.5444C29.1847 45.5444 28.3975 45.652 27.6511 45.8498ZM44.4196 23.5753C44.1027 31.2409 37.7686 37.3797 30.0266 37.3797C22.3796 37.3797 16.0615 31.4043 15.6427 23.7764C15.637 23.673 15.6139 23.5748 15.5805 23.4818V8.77741C15.5805 8.72287 15.5751 8.66974 15.567 8.61747V2.36487H44.3319V4.73531H23.5033C22.9277 4.73531 22.461 5.20194 22.461 5.77761C22.461 6.35331 22.9277 6.81991 23.5033 6.81991H44.3319V21.2061C44.3319 21.2455 44.3341 21.2848 44.3386 21.3239C44.379 21.6786 44.405 22.0345 44.4196 22.3884V23.5753ZM51.3652 21.3196C49.9833 23.9215 48.2873 25.5438 46.5042 26.0011V23.6112C46.5123 23.3994 46.5177 23.1869 46.5177 22.9731C46.5177 22.766 46.5121 22.5572 46.5042 22.348V9.81967H54.1823C53.9816 14.2032 52.9933 18.2537 51.3652 21.3196Z" fill="#ED1C24"/>
<path d="M37.4639 16.4518L32.9523 15.7962L30.9348 11.708C30.7591 11.3522 30.3967 11.127 30.0001 11.127C29.6034 11.127 29.241 11.3522 29.0654 11.708L27.0478 15.7962L22.5363 16.4518C22.1437 16.5088 21.8175 16.7838 21.6949 17.1611C21.5724 17.5385 21.6746 17.9527 21.9587 18.2296L25.2231 21.4117L24.4525 25.905C24.3854 26.296 24.5461 26.6912 24.8672 26.9244C25.1879 27.1574 25.6136 27.1885 25.9647 27.0037L30.0001 24.8823L34.0355 27.0038C34.1878 27.0839 34.3543 27.1235 34.5202 27.1235C34.7365 27.1235 34.9515 27.0564 35.133 26.9244C35.4541 26.6913 35.6147 26.296 35.5477 25.9051L34.777 21.4117L38.0415 18.2296C38.3256 17.9527 38.4278 17.5385 38.3052 17.1612C38.1826 16.7838 37.8565 16.5088 37.4639 16.4518ZM32.9296 20.3015C32.6839 20.541 32.5718 20.8859 32.6298 21.224L33.1361 24.176L30.485 22.7823C30.3332 22.7025 30.1667 22.6626 30.0001 22.6626C29.8334 22.6626 29.6669 22.7025 29.5151 22.7823L26.864 24.176L27.3703 21.224C27.4284 20.8859 27.3163 20.541 27.0705 20.3015L24.926 18.211L27.8899 17.7803C28.2294 17.7309 28.5228 17.5178 28.6747 17.2101L30.0001 14.5245L31.3255 17.2101C31.4773 17.5177 31.7707 17.7309 32.1102 17.7803L35.0741 18.211L32.9296 20.3015Z" fill="#ED1C24"/>
</svg>
