<svg width="60" height="60" viewBox="0 0 60 60" fill="none" xmlns="http://www.w3.org/2000/svg">
<path d="M4.98045 52.043H39.8437C40.3008 54.2695 45.5039 54.8789 48.6328 54.8789C51.914 54.8789 57.457 54.2109 57.457 51.7148V45.1172V38.5195V31.9102C57.457 29.4141 51.914 28.7461 48.6328 28.7461C45.5742 28.7461 40.5351 29.332 39.8789 31.4297C39.293 29.8711 38.625 28.4414 37.8867 27.1523C36.4453 24.6211 34.7109 22.6289 32.7422 21.2227C33.0469 21.0469 33.3398 20.8242 33.5976 20.5664C34.3594 19.8047 34.7812 18.7969 34.7812 17.707C34.7812 15.4805 32.9648 13.6758 30.7383 13.6758H29.7422C30.5039 12.1875 32.25 9.5625 35.543 8.25C36.1055 8.02734 36.457 7.46484 36.457 6.78516C36.457 5.84766 35.7187 5.10938 34.7812 5.10938H14.7656C13.9922 5.10938 13.3476 5.61328 13.1367 6.36328C12.9375 7.08984 13.2422 7.82813 13.8867 8.20313C17.625 10.3711 19.1953 12.4922 19.8281 13.6758H18.7851C17.707 13.6758 16.6875 14.0977 15.9258 14.8594C15.164 15.6211 14.7422 16.6406 14.7422 17.7188C14.7422 19.2188 15.5625 20.5313 16.7812 21.2227C9.67967 26.2734 7.46483 37.6172 6.77342 44.4375L3.49217 47.1914C2.60154 47.9297 2.29686 49.207 2.70701 50.3555C3.09373 51.3984 3.96092 52.043 4.98045 52.043ZM41.6133 33.9609C41.625 33.9727 41.6484 33.9727 41.6601 33.9844C41.707 34.0078 41.7422 34.0195 41.789 34.043C41.8008 34.0547 41.8242 34.0547 41.8359 34.0664C41.8828 34.0898 41.9297 34.1016 41.9883 34.125C42 34.125 42.0117 34.1367 42.0234 34.1367C42.082 34.1602 42.1406 34.1836 42.2109 34.207C42.2226 34.207 42.2344 34.2188 42.2578 34.2188C42.3047 34.2305 42.3515 34.2539 42.3984 34.2656C42.4219 34.2773 42.4336 34.2773 42.457 34.2891C42.5039 34.3008 42.5625 34.3242 42.6094 34.3359C42.6211 34.3359 42.6328 34.3477 42.6562 34.3477C42.7265 34.3711 42.7851 34.3828 42.8555 34.4063C42.8672 34.4063 42.8789 34.418 42.8906 34.418C42.9492 34.4297 42.9961 34.4531 43.0547 34.4648C43.0781 34.4648 43.0898 34.4766 43.1133 34.4766C43.1601 34.4883 43.2187 34.5 43.2656 34.5117C43.2773 34.5117 43.3008 34.5234 43.3125 34.5234C43.3828 34.5352 43.4531 34.5586 43.5234 34.5703C43.5351 34.5703 43.5469 34.5703 43.5469 34.582C43.6055 34.5938 43.6641 34.6055 43.7344 34.6172C43.7578 34.6172 43.7812 34.6289 43.793 34.6289C43.8516 34.6406 43.8984 34.6523 43.957 34.6641C43.9805 34.6641 43.9922 34.6758 44.0156 34.6758C44.0859 34.6875 44.1562 34.6992 44.2265 34.7109C44.2265 34.7109 44.2265 34.7109 44.2383 34.7109C44.3086 34.7227 44.3789 34.7344 44.4492 34.7461C44.4726 34.7461 44.4961 34.7578 44.5078 34.7578C44.5664 34.7695 44.6133 34.7695 44.6719 34.7812C44.6953 34.7812 44.7187 34.793 44.7422 34.793C44.8125 34.8047 44.8828 34.8164 44.9414 34.8281H44.9531C45.0234 34.8398 45.0937 34.8516 45.1758 34.8633C45.1992 34.8633 45.2226 34.8633 45.2344 34.875C45.293 34.8867 45.3398 34.8867 45.3984 34.8984C45.4219 34.8984 45.4453 34.8984 45.4687 34.9102C45.5273 34.9219 45.5976 34.9219 45.6562 34.9336C45.668 34.9336 45.6797 34.9336 45.6914 34.9336C45.7617 34.9453 45.832 34.9453 45.914 34.957C45.9375 34.957 45.9492 34.957 45.9726 34.9688C46.0312 34.9688 46.0781 34.9805 46.1367 34.9805C46.1601 34.9805 46.1836 34.9805 46.207 34.9922C46.2656 34.9922 46.3242 35.0039 46.3711 35.0039C46.3828 35.0039 46.4062 35.0039 46.418 35.0039C46.4883 35.0156 46.5586 35.0156 46.6289 35.0156C46.6406 35.0156 46.664 35.0156 46.6758 35.0156C46.7344 35.0156 46.7812 35.0273 46.8398 35.0273C46.8633 35.0273 46.8867 35.0273 46.9101 35.0273C46.9687 35.0273 47.0156 35.0391 47.0742 35.0391C47.0976 35.0391 47.1094 35.0391 47.1328 35.0391C47.2031 35.0391 47.2734 35.0508 47.3437 35.0508C47.3555 35.0508 47.3672 35.0508 47.3906 35.0508C47.4492 35.0508 47.4961 35.0508 47.5547 35.0625C47.5781 35.0625 47.6015 35.0625 47.625 35.0625C47.6719 35.0625 47.7305 35.0625 47.7773 35.0625C47.8008 35.0625 47.8125 35.0625 47.8359 35.0625C47.9062 35.0625 47.9648 35.0625 48.0351 35.0625C48.0469 35.0625 48.0469 35.0625 48.0586 35.0625C48.1172 35.0625 48.1758 35.0625 48.2344 35.0625C48.2578 35.0625 48.2695 35.0625 48.293 35.0625C48.3398 35.0625 48.3867 35.0625 48.4336 35.0625C48.457 35.0625 48.4687 35.0625 48.4922 35.0625C48.5508 35.0625 48.6211 35.0625 48.6797 35.0625C48.7383 35.0625 48.7969 35.0625 48.8672 35.0625C48.8906 35.0625 48.9023 35.0625 48.9258 35.0625C48.9726 35.0625 49.0195 35.0625 49.0664 35.0625C49.0898 35.0625 49.1016 35.0625 49.125 35.0625C49.1836 35.0625 49.2305 35.0625 49.2891 35.0625C49.3008 35.0625 49.3125 35.0625 49.3242 35.0625C49.3828 35.0625 49.4531 35.0625 49.5234 35.0625C49.5469 35.0625 49.5586 35.0625 49.582 35.0625C49.6289 35.0625 49.6758 35.0625 49.7226 35.0625C49.7461 35.0625 49.7695 35.0625 49.793 35.0625C49.8398 35.0625 49.8984 35.0625 49.9453 35.0508C49.957 35.0508 49.9805 35.0508 49.9922 35.0508C50.0625 35.0508 50.1328 35.0391 50.1914 35.0391C50.2148 35.0391 50.2383 35.0391 50.25 35.0391C50.2969 35.0391 50.3555 35.0273 50.4023 35.0273C50.4258 35.0273 50.4492 35.0273 50.4726 35.0273C50.5195 35.0273 50.5781 35.0156 50.625 35.0156C50.6484 35.0156 50.6601 35.0156 50.6836 35.0156C50.7539 35.0156 50.8242 35.0039 50.8945 35.0039C50.918 35.0039 50.9414 35.0039 50.9531 35.0039C51 35.0039 51.0586 34.9922 51.1055 34.9922C51.1289 34.9922 51.164 34.9922 51.1875 34.9805C51.2344 34.9805 51.2812 34.9688 51.3281 34.9688C51.3515 34.9688 51.375 34.9687 51.3984 34.957C51.4687 34.9453 51.539 34.9453 51.6094 34.9336C51.6328 34.9336 51.6445 34.9336 51.668 34.9219C51.7265 34.9102 51.7734 34.9102 51.832 34.8984C51.8555 34.8984 51.8906 34.8867 51.914 34.8867C51.9609 34.875 52.0078 34.875 52.0547 34.8633C52.0781 34.8633 52.1015 34.8516 52.1367 34.8516C52.207 34.8398 52.2773 34.8281 52.3359 34.8281C52.3476 34.8281 52.3711 34.8281 52.3828 34.8164C52.4414 34.8047 52.5 34.8047 52.5586 34.793C52.582 34.793 52.6172 34.7812 52.6406 34.7812C52.6875 34.7695 52.7344 34.7695 52.7812 34.7578C52.8047 34.7578 52.8398 34.7461 52.8633 34.7461C52.9219 34.7344 52.9805 34.7227 53.0391 34.7109C53.0508 34.7109 53.0742 34.6992 53.0859 34.6992C53.1562 34.6875 53.2148 34.6758 53.2851 34.6641C53.3086 34.6641 53.332 34.6523 53.3555 34.6523C53.4023 34.6406 53.4492 34.6289 53.4961 34.6289C53.5195 34.6289 53.543 34.6172 53.5781 34.6172C53.6367 34.6055 53.6836 34.5938 53.7422 34.582C53.7539 34.582 53.7773 34.5703 53.789 34.5703C53.8594 34.5586 53.918 34.5352 53.9883 34.5234C54.0117 34.5234 54.0351 34.5117 54.0586 34.5117C54.1055 34.5 54.1523 34.4883 54.1992 34.4766C54.2226 34.4648 54.2461 34.4648 54.2695 34.4531C54.3164 34.4414 54.3633 34.4297 54.4101 34.418C54.4336 34.418 54.4453 34.4063 54.4687 34.4063C54.5273 34.3828 54.5976 34.3711 54.6562 34.3477C54.6797 34.3477 54.6914 34.3359 54.7148 34.3359C54.7617 34.3242 54.8086 34.3125 54.8555 34.2891C54.8789 34.2773 54.9023 34.2773 54.9258 34.2656C54.9726 34.2539 55.0195 34.2305 55.0664 34.2188C55.0781 34.207 55.1015 34.207 55.1133 34.1953C55.1719 34.1719 55.2305 34.1484 55.289 34.125C55.3008 34.125 55.3125 34.1133 55.3242 34.1133C55.3711 34.0898 55.418 34.0781 55.4648 34.0547C55.4883 34.043 55.5 34.043 55.5234 34.0313C55.5703 34.0195 55.6055 33.9961 55.6523 33.9727C55.664 33.9609 55.6875 33.9609 55.6992 33.9492C55.7578 33.9258 55.8047 33.9023 55.8633 33.8789V38.4961C55.8633 38.5078 55.8516 38.5195 55.8516 38.5195C55.8516 38.5195 55.8515 38.5312 55.8398 38.5312C55.8281 38.543 55.8281 38.5547 55.8164 38.5547C55.8164 38.5664 55.8047 38.5664 55.8047 38.5781C55.793 38.5898 55.7812 38.6016 55.7695 38.6133C55.7578 38.625 55.7578 38.625 55.7461 38.6367C55.7344 38.6484 55.7226 38.6602 55.7109 38.6719C55.6992 38.6836 55.6875 38.6836 55.6875 38.6953C55.6758 38.707 55.664 38.707 55.6523 38.7188C55.6406 38.7305 55.6289 38.7422 55.6172 38.7539C55.6055 38.7656 55.5937 38.7773 55.5703 38.7773C55.5586 38.7891 55.5351 38.8008 55.5234 38.8125C55.5117 38.8242 55.4883 38.8359 55.4765 38.8359C55.4531 38.8477 55.4414 38.8594 55.418 38.8711C55.4062 38.8828 55.3945 38.8828 55.3711 38.8945C55.3476 38.9063 55.3242 38.918 55.3008 38.9297C55.289 38.9414 55.2656 38.9414 55.2539 38.9531C55.2305 38.9648 55.1953 38.9766 55.1719 38.9883C55.1601 39 55.1484 39 55.1367 39.0117C55.1015 39.0234 55.0664 39.0469 55.0312 39.0586C55.0195 39.0703 54.9961 39.0703 54.9844 39.082C54.9492 39.0938 54.914 39.1055 54.8789 39.1289C54.8672 39.1289 54.8555 39.1406 54.8437 39.1406C54.7969 39.1523 54.7617 39.1758 54.7148 39.1875C54.7031 39.1875 54.6914 39.1992 54.6797 39.1992C54.6328 39.2109 54.5859 39.2344 54.539 39.2461C54.5156 39.2578 54.4922 39.2578 54.4805 39.2695C54.4336 39.2813 54.3984 39.293 54.3515 39.3164C54.3281 39.3164 54.3164 39.3281 54.293 39.3281C54.2461 39.3398 54.1992 39.3633 54.1406 39.375C54.1172 39.3867 54.0937 39.3867 54.0586 39.3984C54.0117 39.4102 53.9648 39.4219 53.918 39.4336C53.8945 39.4453 53.8711 39.4453 53.8476 39.457C53.789 39.4688 53.7422 39.4805 53.6836 39.5039C53.6601 39.5039 53.6367 39.5156 53.6133 39.5156C53.5547 39.5273 53.4961 39.5391 53.4375 39.5625C53.414 39.5742 53.3789 39.5742 53.3555 39.5859C53.2969 39.5977 53.2383 39.6094 53.1797 39.6211C53.1445 39.6328 53.1211 39.6328 53.0859 39.6445C53.0273 39.6563 52.9687 39.668 52.9101 39.6797C52.875 39.6914 52.8398 39.6914 52.8047 39.7031C52.7461 39.7148 52.6875 39.7266 52.6289 39.7383C52.5937 39.75 52.5586 39.75 52.5234 39.75C52.4648 39.7617 52.3945 39.7734 52.3359 39.7852C52.3008 39.7969 52.2539 39.7969 52.207 39.8086C52.1484 39.8203 52.0898 39.832 52.0195 39.832C51.9726 39.8438 51.9258 39.8438 51.8672 39.8555C51.8086 39.8672 51.75 39.8672 51.6914 39.8789C51.6562 39.8789 51.6211 39.8906 51.5859 39.8906C51.5156 39.9023 51.4336 39.9141 51.3633 39.9141C51.3281 39.9141 51.293 39.9258 51.2578 39.9258C51.1758 39.9375 51.0937 39.9375 51.0234 39.9492C51 39.9492 50.9648 39.9492 50.9414 39.9609C50.8476 39.9727 50.7656 39.9727 50.6719 39.9844C50.6367 39.9844 50.5898 39.9844 50.5547 39.9961C50.4726 40.0078 50.3906 40.0078 50.2969 40.0078C50.2617 40.0078 50.2265 40.0078 50.2031 40.0078C50.1094 40.0078 50.0156 40.0195 49.9101 40.0195C49.6992 40.0313 49.4765 40.0313 49.2539 40.043C49.0664 40.043 48.8789 40.0547 48.6797 40.0547C48.6211 40.0547 48.5508 40.0547 48.4922 40.0547H48.4805C48.4336 40.0547 48.375 40.0547 48.3281 40.0547H48.3164C48.0703 40.0547 47.8008 40.043 47.4961 40.0313L47.1914 40.0195C47.0391 40.0078 46.8984 40.0078 46.7344 39.9844C46.6758 39.9844 46.6172 39.9727 46.5586 39.9727H46.5469C46.3828 39.9609 46.2187 39.9492 46.0664 39.9258C46.0547 39.9258 46.0547 39.9258 46.043 39.9258C45.9844 39.9258 45.9258 39.9141 45.8789 39.9023H45.8672C45.6094 39.8789 45.3515 39.8438 45.1172 39.8086H45.1055C45.082 39.8086 45.0469 39.7969 45.0234 39.7969C45.0117 39.7969 45.0117 39.7969 45 39.7969C44.7305 39.75 44.4726 39.7031 44.2265 39.6563H44.2148C44.1328 39.6445 44.0508 39.6211 43.9687 39.6094H43.957C43.8984 39.5977 43.8516 39.5859 43.793 39.5742C43.6289 39.5391 43.5 39.5039 43.3945 39.4688L43.2305 39.4219C43.125 39.3867 43.0312 39.3633 42.9375 39.3281C42.8906 39.3164 42.8437 39.293 42.7851 39.2813H42.7734C42.75 39.2695 42.7148 39.2578 42.6914 39.2461C42.6562 39.2344 42.6328 39.2227 42.5976 39.2109C42.5859 39.2109 42.5742 39.1992 42.5508 39.1992C42.5273 39.1875 42.4922 39.1758 42.4687 39.1641C42.4101 39.1406 42.3398 39.1055 42.2812 39.082C42.2695 39.082 42.2695 39.0703 42.2578 39.0703C42.2226 39.0469 42.1758 39.0352 42.1406 39.0117L42.1055 39C42.0586 38.9766 42 38.9414 41.9414 38.918C41.9297 38.9063 41.9062 38.9063 41.8828 38.8828C41.8594 38.8711 41.8476 38.8594 41.8242 38.8477C41.8125 38.8477 41.8125 38.8359 41.8008 38.8359C41.7891 38.8242 41.7773 38.8242 41.7656 38.8125C41.7539 38.8008 41.7305 38.7891 41.7187 38.7773C41.6953 38.7656 41.6836 38.7422 41.6601 38.7305C41.6484 38.7188 41.6367 38.707 41.6133 38.6953L41.6015 38.6836C41.5898 38.6719 41.5898 38.6719 41.5781 38.6602L41.5664 38.6484C41.5664 38.6367 41.5547 38.6367 41.5547 38.625C41.5195 38.5898 41.4961 38.5664 41.4961 38.5547C41.4961 38.5547 41.4961 38.5547 41.4961 38.543V38.5312V36.7383V33.9141C41.5078 33.9023 41.5547 33.9258 41.6133 33.9609ZM55.8164 40.4766V45.0938C55.8164 45.1055 55.8047 45.1172 55.8047 45.1289C55.8047 45.1289 55.8047 45.1406 55.793 45.1406C55.7812 45.1523 55.7695 45.1641 55.7695 45.1758C55.7695 45.1758 55.7695 45.1875 55.7578 45.1875C55.7461 45.1992 55.7344 45.2109 55.7109 45.2344C55.7109 45.2344 55.7109 45.2344 55.6992 45.2461C55.6758 45.2578 55.664 45.2813 55.6406 45.293C55.1836 45.6563 53.8711 46.1836 51.7148 46.4531C51.7031 46.4531 51.6914 46.4531 51.668 46.4531C51.5742 46.4648 51.4687 46.4766 51.3633 46.4883C51.3515 46.4883 51.3398 46.4883 51.3281 46.4883C51.2344 46.5 51.1523 46.5117 51.0586 46.5117C51.0351 46.5117 51.0117 46.5117 50.9883 46.5234C50.8711 46.5352 50.7539 46.5469 50.6367 46.5586C50.6367 46.5586 50.6367 46.5586 50.625 46.5586C50.5078 46.5703 50.3906 46.5703 50.2734 46.582C50.2617 46.582 50.2617 46.582 50.25 46.582C49.7461 46.6172 49.207 46.6289 48.6211 46.6289C47.2851 46.6289 45.9726 46.5234 44.8359 46.3359C44.7539 46.3242 44.6836 46.3125 44.6015 46.3008C44.5898 46.3008 44.5898 46.3008 44.5781 46.3008C44.3555 46.2656 44.1445 46.2188 43.957 46.1719C43.9453 46.1719 43.9336 46.1719 43.9219 46.1602C43.8633 46.1484 43.8164 46.1367 43.7578 46.125H43.7461C43.6289 46.1016 43.5117 46.0664 43.4062 46.043C43.289 46.0078 43.1836 45.9844 43.0898 45.9492C43.0781 45.9492 43.0664 45.9375 43.0547 45.9375C43.0195 45.9258 42.9726 45.9141 42.9375 45.9023C42.9258 45.9023 42.914 45.8906 42.9023 45.8906C42.8672 45.8789 42.832 45.8672 42.7969 45.8555C42.7851 45.8555 42.7851 45.8555 42.7734 45.8438C42.7383 45.832 42.7031 45.8203 42.6562 45.8086C42.6445 45.8086 42.6445 45.8086 42.6328 45.7969C42.5976 45.7852 42.5625 45.7734 42.5273 45.7617C42.5156 45.7617 42.5039 45.75 42.4922 45.75C42.4687 45.7383 42.4336 45.7266 42.4101 45.7148C42.3984 45.7148 42.3984 45.7031 42.3867 45.7031C42.3516 45.6914 42.3281 45.6797 42.3047 45.668C42.293 45.668 42.2812 45.6563 42.2812 45.6563C42.2578 45.6445 42.2344 45.6328 42.2109 45.6211C42.1992 45.6211 42.1875 45.6094 42.1758 45.6094C42.1523 45.5977 42.1289 45.5859 42.1172 45.5742C42.1055 45.5742 42.0937 45.5625 42.082 45.5625C42.0586 45.5508 42.0469 45.5391 42.0234 45.5391C42.0117 45.5391 42 45.5273 41.9883 45.5273C41.9765 45.5156 41.9531 45.5156 41.9414 45.5039C41.9297 45.4922 41.918 45.4922 41.9062 45.4805C41.8945 45.4688 41.8828 45.4688 41.8594 45.457C41.8476 45.457 41.8476 45.4453 41.8359 45.4453C41.8242 45.4336 41.8125 45.4336 41.8008 45.4219C41.7891 45.4219 41.789 45.4102 41.7773 45.4102C41.7656 45.3984 41.7539 45.3984 41.7422 45.3867C41.7305 45.3867 41.7305 45.375 41.7187 45.375C41.707 45.3633 41.6953 45.3633 41.6836 45.3516C41.6719 45.3516 41.6719 45.3398 41.6719 45.3398C41.6601 45.3281 41.6484 45.3281 41.6367 45.3164C41.625 45.3164 41.625 45.3047 41.6133 45.3047C41.6015 45.293 41.6015 45.293 41.5898 45.2813C41.5781 45.2813 41.5781 45.2695 41.5781 45.2695C41.5664 45.2578 41.5664 45.2578 41.5547 45.2461L41.543 45.2344C41.5312 45.2344 41.5312 45.2227 41.5195 45.2227L41.5078 45.2109L41.4961 45.1992C41.4961 45.1992 41.4961 45.1875 41.4844 45.1875L41.4726 45.1758C41.4726 45.1758 41.4726 45.1641 41.4609 45.1641L41.4492 45.1523C41.4492 45.1523 41.4492 45.1523 41.4492 45.1406L41.4375 45.1289C41.4375 45.1289 41.4375 45.1172 41.4258 45.1172V40.5C41.4609 40.5117 41.4844 40.5352 41.5195 40.5469H41.5312C41.6133 40.582 41.6836 40.6172 41.7539 40.6406C41.7539 40.6406 41.7539 40.6406 41.7656 40.6406C41.8476 40.6758 41.9297 40.6992 42.0117 40.7344C42.0117 40.7344 42.0117 40.7344 42.0234 40.7344C42.0703 40.7578 42.1172 40.7695 42.164 40.7813C42.1992 40.793 42.2461 40.8047 42.293 40.8281C42.3047 40.8281 42.3047 40.8281 42.3164 40.8398C42.3164 40.8398 42.3164 40.8398 42.3281 40.8398C42.457 40.8867 42.5859 40.9219 42.6797 40.9453C42.7148 40.957 42.75 40.9688 42.7969 40.9805L42.8555 41.0039C42.9844 41.0391 43.1367 41.0742 43.3125 41.1211C43.3828 41.1328 43.4414 41.1563 43.5117 41.168C43.6055 41.1914 43.6992 41.2148 43.8047 41.2266C43.9687 41.2617 44.1562 41.2969 44.332 41.332C44.4375 41.3555 44.543 41.3672 44.6484 41.3789C44.6953 41.3906 44.7305 41.3906 44.7773 41.4023C44.9297 41.4258 45.0937 41.4492 45.2578 41.4727C45.3633 41.4844 45.4805 41.4961 45.5859 41.5078C45.6562 41.5195 45.7383 41.5313 45.8086 41.5313C45.9961 41.5547 46.1601 41.5664 46.3242 41.5781C46.3945 41.5898 46.4648 41.5898 46.5234 41.5898C46.6758 41.6016 46.8398 41.6133 46.9922 41.625C47.0273 41.625 47.0742 41.625 47.1094 41.6367H47.2031C47.2148 41.6367 47.2148 41.6367 47.2265 41.6367H47.332C47.6484 41.6484 47.9297 41.6602 48.1875 41.6602C48.2461 41.6602 48.3047 41.6602 48.3633 41.6602C48.4336 41.6602 48.5039 41.6602 48.5742 41.6602C48.6328 41.6602 48.6914 41.6602 48.7617 41.6602C48.7851 41.6602 48.7969 41.6602 48.8203 41.6602C48.8672 41.6602 48.914 41.6602 48.9609 41.6602C48.9844 41.6602 48.9961 41.6602 49.0195 41.6602C49.0781 41.6602 49.125 41.6602 49.1836 41.6602C49.1953 41.6602 49.207 41.6602 49.2187 41.6602C49.289 41.6602 49.3476 41.6602 49.418 41.6602C49.4414 41.6602 49.4531 41.6602 49.4766 41.6602C49.5234 41.6602 49.5703 41.6602 49.6289 41.6602C49.6523 41.6602 49.6758 41.6602 49.6992 41.6602C49.7578 41.6602 49.8047 41.6602 49.8633 41.6484C49.875 41.6484 49.8984 41.6484 49.9101 41.6484C49.9805 41.6484 50.0508 41.6367 50.1094 41.6367C50.1328 41.6367 50.1445 41.6367 50.168 41.6367C50.2148 41.6367 50.2734 41.625 50.3203 41.625C50.3437 41.625 50.3672 41.625 50.3906 41.625C50.4375 41.625 50.4961 41.6133 50.543 41.6133C50.5664 41.6133 50.5781 41.6133 50.6015 41.6133C50.6719 41.6133 50.7422 41.6016 50.8125 41.6016C50.8359 41.6016 50.8476 41.6016 50.8711 41.6016C50.918 41.6016 50.9765 41.5898 51.0234 41.5898C51.0469 41.5898 51.082 41.5898 51.1055 41.5781C51.1523 41.5781 51.1992 41.5664 51.2578 41.5664C51.2812 41.5664 51.3047 41.5664 51.3281 41.5547C51.3984 41.543 51.4687 41.543 51.539 41.5313C51.5625 41.5313 51.5742 41.5313 51.5976 41.5195C51.6562 41.5078 51.7031 41.5078 51.7617 41.4961C51.7851 41.4961 51.8203 41.4844 51.8437 41.4844C51.8906 41.4727 51.9375 41.4727 51.9844 41.4609C52.0078 41.4609 52.0312 41.4492 52.0664 41.4492C52.1367 41.4375 52.207 41.4258 52.2773 41.4258C52.2891 41.4258 52.3008 41.4258 52.3125 41.4141C52.3711 41.4023 52.4297 41.4023 52.4883 41.3906C52.5117 41.3906 52.5469 41.3789 52.5703 41.3789C52.6172 41.3672 52.664 41.3672 52.7109 41.3555C52.7344 41.3555 52.7695 41.3438 52.793 41.3438C52.8515 41.332 52.9101 41.3203 52.9687 41.3086C52.9805 41.3086 52.9922 41.3086 53.0156 41.2969C53.0859 41.2852 53.1445 41.2734 53.2148 41.2617C53.2383 41.2617 53.2617 41.25 53.2851 41.25C53.332 41.2383 53.3789 41.2266 53.4258 41.2266C53.4492 41.2266 53.4726 41.2148 53.5078 41.2148C53.5664 41.2031 53.6133 41.1914 53.6719 41.1797C53.6836 41.1797 53.707 41.168 53.7187 41.168C53.789 41.1563 53.8476 41.1328 53.918 41.1211C53.9414 41.1211 53.9648 41.1094 53.9883 41.1094C54.0351 41.0977 54.082 41.0859 54.1289 41.0742C54.1523 41.0625 54.1758 41.0625 54.1992 41.0508C54.2461 41.0391 54.293 41.0273 54.3515 41.0156C54.3633 41.0156 54.3867 41.0039 54.3984 41.0039C54.457 40.9805 54.5273 40.9688 54.5859 40.9453C54.6094 40.9453 54.6211 40.9336 54.6445 40.9336C54.6914 40.9219 54.7383 40.9102 54.7851 40.8867C54.8086 40.875 54.832 40.875 54.8555 40.8633C54.9023 40.8516 54.9492 40.8281 54.9961 40.8164C55.0078 40.8047 55.0312 40.8047 55.043 40.793C55.1016 40.7695 55.1601 40.7461 55.2187 40.7227C55.2305 40.7227 55.2422 40.7109 55.2539 40.7109C55.3008 40.6875 55.3476 40.6758 55.3945 40.6523C55.418 40.6406 55.4297 40.6406 55.4531 40.6289C55.5 40.6172 55.5351 40.5938 55.582 40.582C55.5937 40.5703 55.6172 40.5703 55.6289 40.5586C55.7109 40.5352 55.7578 40.5117 55.8164 40.4766C55.8164 40.4883 55.8164 40.4883 55.8164 40.4766ZM55.8164 51.7031C55.6172 52.1484 53.2383 53.25 48.6328 53.25C44.0273 53.25 41.6484 52.1602 41.4492 51.7031V51.2227V47.0742C41.4609 47.0742 41.4609 47.0859 41.4726 47.0859C41.5781 47.1328 41.6719 47.1797 41.7773 47.2266C41.789 47.2383 41.8125 47.2383 41.8242 47.25C41.9297 47.2969 42.0351 47.332 42.1523 47.3789C42.1641 47.3789 42.1875 47.3906 42.1992 47.3906C42.3164 47.4258 42.4219 47.4727 42.539 47.5078C42.5508 47.5078 42.5625 47.5195 42.5859 47.5195C42.7031 47.5547 42.8203 47.5898 42.9492 47.625C42.9609 47.625 42.9726 47.6367 42.9844 47.6367C43.1015 47.6719 43.2305 47.707 43.3594 47.7305C43.3711 47.7305 43.3828 47.7305 43.3945 47.7422C43.5234 47.7773 43.6523 47.8008 43.7695 47.8242C43.7812 47.8242 43.7812 47.8242 43.793 47.8242C43.9219 47.8477 44.0508 47.8828 44.1797 47.9063H44.1914C44.3203 47.9297 44.4492 47.9531 44.5781 47.9766C45.8086 48.1758 47.2148 48.293 48.6328 48.293C48.6914 48.293 48.75 48.293 48.8203 48.293C48.8437 48.293 48.8555 48.293 48.8789 48.293C48.9258 48.293 48.9726 48.293 49.0195 48.293C49.043 48.293 49.0547 48.293 49.0781 48.293C49.1367 48.293 49.1836 48.293 49.2422 48.293C49.2539 48.293 49.2656 48.293 49.2773 48.293C49.3359 48.293 49.4062 48.293 49.4766 48.293C49.5 48.293 49.5117 48.293 49.5351 48.293C49.582 48.293 49.6289 48.293 49.6758 48.293C49.6992 48.293 49.7226 48.293 49.7461 48.293C49.793 48.293 49.8515 48.293 49.8984 48.2813C49.9101 48.2813 49.9336 48.2813 49.9453 48.2813C50.0156 48.2813 50.0859 48.2695 50.1445 48.2695C50.168 48.2695 50.1914 48.2695 50.2031 48.2695C50.25 48.2695 50.3086 48.2578 50.3555 48.2578C50.3789 48.2578 50.4023 48.2578 50.4258 48.2578C50.4726 48.2578 50.5312 48.2461 50.5781 48.2461C50.6016 48.2461 50.6133 48.2461 50.6367 48.2461C50.707 48.2461 50.7773 48.2344 50.8476 48.2344C50.8711 48.2344 50.8945 48.2344 50.9062 48.2344C50.9531 48.2344 51.0117 48.2227 51.0586 48.2227C51.082 48.2227 51.1172 48.2227 51.1406 48.2109C51.1875 48.2109 51.2344 48.1992 51.2812 48.1992C51.3047 48.1992 51.3281 48.1992 51.3516 48.1875C51.4219 48.1758 51.4922 48.1758 51.5625 48.1641C51.5859 48.1641 51.5976 48.1641 51.6211 48.1523C51.6797 48.1406 51.7265 48.1406 51.7851 48.1289C51.8086 48.1289 51.8437 48.1172 51.8672 48.1172C51.9141 48.1055 51.9609 48.1055 52.0078 48.0938C52.0312 48.0938 52.0547 48.082 52.0898 48.082C52.1601 48.0703 52.2305 48.0586 52.2891 48.0586C52.3008 48.0586 52.3242 48.0586 52.3359 48.0469C52.3945 48.0352 52.4531 48.0352 52.5117 48.0234C52.5351 48.0234 52.5703 48.0117 52.5937 48.0117C52.6406 48 52.6875 48 52.7344 47.9883C52.7578 47.9883 52.793 47.9766 52.8164 47.9766C52.875 47.9648 52.9336 47.9531 52.9922 47.9414C53.0039 47.9414 53.0273 47.9297 53.0391 47.9297C53.1094 47.918 53.168 47.9063 53.2383 47.8945C53.2617 47.8945 53.2851 47.8828 53.3086 47.8828C53.3555 47.8711 53.4023 47.8594 53.4492 47.8594C53.4726 47.8594 53.4961 47.8477 53.5312 47.8477C53.5898 47.8359 53.6367 47.8242 53.6953 47.8125C53.707 47.8125 53.7305 47.8008 53.7422 47.8008C53.8125 47.7891 53.8711 47.7656 53.9414 47.7539C53.9648 47.7539 53.9883 47.7422 54.0117 47.7422C54.0586 47.7305 54.1055 47.7188 54.1523 47.707C54.1758 47.6953 54.1992 47.6953 54.2226 47.6836C54.2695 47.6719 54.3164 47.6602 54.3633 47.6484C54.3867 47.6484 54.3984 47.6367 54.4219 47.6367C54.4805 47.6133 54.5508 47.6016 54.6094 47.5781C54.6328 47.5781 54.6445 47.5664 54.668 47.5664C54.7148 47.5547 54.7617 47.543 54.8086 47.5195C54.832 47.5078 54.8555 47.5078 54.8789 47.4961C54.9258 47.4844 54.9726 47.4609 55.0195 47.4492C55.0312 47.4375 55.0547 47.4375 55.0664 47.4258C55.125 47.4023 55.1836 47.3789 55.2422 47.3555C55.2539 47.3555 55.2656 47.3438 55.2773 47.3438C55.3242 47.3203 55.3711 47.3086 55.418 47.2852C55.4414 47.2734 55.4531 47.2734 55.4765 47.2617C55.5234 47.25 55.5586 47.2266 55.6055 47.2031C55.6172 47.1914 55.6406 47.1914 55.6523 47.1797C55.7109 47.1563 55.7578 47.1328 55.8164 47.1094V51.7031ZM48.6328 30.3867C53.1797 30.3867 55.5469 31.4531 55.8047 31.9102C55.8047 31.9102 55.8047 31.9219 55.793 31.9219C55.793 31.9336 55.7812 31.9336 55.7812 31.9453C55.7812 31.957 55.7695 31.957 55.7578 31.9687C55.7461 31.9805 55.7461 31.9805 55.7344 31.9922C55.7226 32.0039 55.7226 32.0039 55.7109 32.0156C55.6992 32.0273 55.6875 32.0273 55.6875 32.0391C55.6758 32.0508 55.664 32.0508 55.6523 32.0625C55.6406 32.0742 55.6289 32.0859 55.6172 32.0859C55.6055 32.0977 55.5937 32.1094 55.582 32.1094C55.5703 32.1211 55.5586 32.1328 55.5351 32.1328C55.5234 32.1445 55.5117 32.1563 55.4883 32.1563C55.4765 32.168 55.4531 32.1797 55.4414 32.1914C55.4297 32.2031 55.4062 32.2148 55.3945 32.2148C55.3711 32.2266 55.3594 32.2383 55.3359 32.25C55.3125 32.2617 55.3008 32.2734 55.2773 32.2852C55.2539 32.2969 55.2422 32.3086 55.2187 32.3203C55.1953 32.332 55.1836 32.3438 55.1601 32.3555C55.1367 32.3672 55.1133 32.3789 55.0898 32.3906C55.0664 32.4023 55.043 32.4141 55.0195 32.4258C54.9961 32.4375 54.9726 32.4492 54.9492 32.4609C54.9258 32.4727 54.9023 32.4844 54.8789 32.4961C54.8555 32.5078 54.8203 32.5195 54.7969 32.5313C54.7734 32.543 54.7383 32.5547 54.7148 32.5664C54.6914 32.5781 54.6562 32.5898 54.6328 32.6016C54.6094 32.6133 54.5742 32.625 54.5508 32.6367C54.5156 32.6484 54.4922 32.6602 54.457 32.6719C54.4219 32.6836 54.3984 32.6953 54.3633 32.707C54.3281 32.7188 54.293 32.7305 54.2695 32.7422C54.2344 32.7539 54.1992 32.7656 54.1758 32.7773C54.1406 32.7891 54.1055 32.8008 54.0703 32.8125C54.0351 32.8242 54 32.8359 53.9648 32.8477C53.9297 32.8594 53.8945 32.8711 53.8476 32.8828C53.8125 32.8945 53.7773 32.9063 53.7305 32.918C53.6953 32.9297 53.6484 32.9414 53.6133 32.9531C53.5781 32.9648 53.5312 32.9766 53.4961 32.9883C53.4609 33 53.414 33.0117 53.3789 33.0117C53.332 33.0234 53.2969 33.0352 53.25 33.0352C53.2031 33.0469 53.168 33.0586 53.1211 33.0586C53.0742 33.0703 53.0273 33.082 52.9922 33.082C52.9453 33.0937 52.8984 33.1055 52.8515 33.1055C52.8047 33.1172 52.7578 33.1172 52.7109 33.1289C52.664 33.1406 52.6172 33.1406 52.5703 33.1523C52.5234 33.1641 52.4765 33.1641 52.418 33.1758C52.3711 33.1875 52.3242 33.1875 52.2773 33.1992C52.2305 33.2109 52.1719 33.2109 52.1133 33.2227C52.0664 33.2344 52.0195 33.2344 51.9609 33.2461C51.9023 33.2578 51.8555 33.2578 51.7969 33.2695C51.75 33.2813 51.6914 33.2813 51.6445 33.293C51.5859 33.3047 51.5273 33.3047 51.4687 33.3164C51.4101 33.3281 51.3633 33.3281 51.3047 33.3398C51.2461 33.3516 51.1875 33.3516 51.1172 33.3633C51.0586 33.3633 51.0117 33.375 50.9531 33.375C50.8945 33.3867 50.8242 33.3867 50.7539 33.3867C50.6953 33.3867 50.6484 33.3984 50.5898 33.3984C50.5195 33.3984 50.4492 33.4102 50.3789 33.4102C50.3203 33.4102 50.2734 33.4219 50.2148 33.4219C50.1445 33.4219 50.0742 33.4336 50.0039 33.4336C49.9453 33.4336 49.8984 33.4453 49.8398 33.4453C49.7695 33.4453 49.6875 33.457 49.6055 33.457C49.5469 33.457 49.5 33.457 49.4414 33.4688C49.3476 33.4688 49.2656 33.4688 49.1719 33.4805C49.125 33.4805 49.0781 33.4805 49.0312 33.4805C48.8906 33.4805 48.75 33.4805 48.6094 33.4805C48.4687 33.4805 48.3281 33.4805 48.1875 33.4805C48.1406 33.4805 48.0937 33.4805 48.0469 33.4805C47.9531 33.4805 47.8594 33.4805 47.7773 33.4688C47.7187 33.4688 47.6719 33.4688 47.6133 33.457C47.5312 33.457 47.4609 33.457 47.3789 33.4453C47.3203 33.4453 47.2617 33.4336 47.2031 33.4336C47.1328 33.4336 47.0625 33.4219 46.9922 33.4219C46.9336 33.4219 46.875 33.4102 46.8281 33.4102C46.7578 33.4102 46.6875 33.3984 46.6289 33.3984C46.5703 33.3984 46.5234 33.3867 46.4648 33.3867C46.3945 33.3867 46.3359 33.375 46.2656 33.375C46.207 33.375 46.1601 33.3633 46.1015 33.3633C46.043 33.3516 45.9726 33.3516 45.914 33.3398C45.8555 33.3398 45.8086 33.3281 45.7617 33.3164C45.7031 33.3047 45.6445 33.3047 45.5859 33.293C45.539 33.2813 45.4805 33.2813 45.4336 33.2695C45.375 33.2578 45.3164 33.2578 45.2695 33.2461C45.2226 33.2344 45.1758 33.2344 45.1289 33.2227C45.0703 33.2109 45.0234 33.2109 44.9648 33.1992C44.918 33.1875 44.8711 33.1875 44.8242 33.1758C44.7773 33.1641 44.7187 33.1641 44.6719 33.1523C44.625 33.1406 44.5781 33.1406 44.543 33.1289C44.4961 33.1172 44.4492 33.1055 44.3906 33.1055C44.3437 33.0938 44.3086 33.0937 44.2617 33.082C44.2148 33.0703 44.168 33.0586 44.1211 33.0586C44.0742 33.0469 44.039 33.0352 43.9922 33.0352C43.9453 33.0234 43.8984 33.0117 43.8633 33C43.8281 32.9883 43.7812 32.9766 43.7461 32.9766C43.6992 32.9648 43.6641 32.9531 43.6172 32.9414C43.582 32.9297 43.5469 32.918 43.5 32.918C43.4648 32.9063 43.418 32.8945 43.3828 32.8828C43.3476 32.8711 43.3125 32.8594 43.2773 32.8477C43.2422 32.8359 43.207 32.8242 43.1601 32.8125C43.125 32.8008 43.0898 32.7891 43.0547 32.7773C43.0195 32.7656 42.9844 32.7539 42.9492 32.7422C42.914 32.7305 42.8906 32.7188 42.8555 32.707C42.8203 32.6953 42.7851 32.6836 42.7617 32.6719C42.7265 32.6602 42.7031 32.6484 42.668 32.6367C42.6328 32.625 42.6094 32.6133 42.5742 32.6016C42.5508 32.5898 42.5156 32.5781 42.4922 32.5664C42.4687 32.5547 42.4336 32.543 42.4101 32.5313C42.3867 32.5195 42.3633 32.5078 42.3398 32.4961C42.3164 32.4844 42.2812 32.4727 42.2578 32.4609C42.2344 32.4492 42.2109 32.4375 42.1875 32.4258C42.164 32.4141 42.1406 32.4023 42.1172 32.3906C42.0937 32.3789 42.0703 32.3672 42.0586 32.3555C42.0351 32.3438 42.0117 32.332 41.9883 32.3203C41.9648 32.3086 41.9531 32.2969 41.9297 32.2852C41.9062 32.2734 41.8945 32.2617 41.8711 32.25C41.8476 32.2383 41.8359 32.2266 41.8242 32.2266C41.8008 32.2148 41.789 32.2031 41.7773 32.1914C41.7656 32.1797 41.7422 32.168 41.7305 32.168C41.7187 32.1563 41.6953 32.1445 41.6836 32.1328C41.6719 32.1211 41.6601 32.1094 41.6484 32.1094C41.6367 32.0977 41.625 32.0859 41.6133 32.0859C41.6015 32.0742 41.5898 32.0742 41.5781 32.0625C41.5664 32.0508 41.5547 32.0391 41.543 32.0391C41.5312 32.0273 41.5195 32.0273 41.5195 32.0156C41.5078 32.0039 41.4961 31.9922 41.4961 31.9922C41.4844 31.9805 41.4844 31.9805 41.4726 31.9687C41.4609 31.957 41.4609 31.957 41.4492 31.9453C41.4492 31.9336 41.4375 31.9336 41.4375 31.9219C41.4375 31.9219 41.4375 31.9102 41.4258 31.9102C41.7187 31.4531 44.0859 30.3867 48.6328 30.3867ZM14.7187 6.79688C14.7187 6.78516 14.7305 6.76172 14.7422 6.75C14.7422 6.75 14.7422 6.75 14.7539 6.75H34.7812C34.793 6.75 34.8047 6.75 34.8047 6.75C34.8047 6.75 34.8164 6.77344 34.8164 6.78516C30.4805 8.55469 28.5469 12.2578 27.9375 13.6875H21.6445C21.1523 12.4336 19.5586 9.60938 14.7187 6.79688ZM17.0976 16.0313C17.5547 15.5742 18.1523 15.3281 18.7969 15.3281H21.0469H28.5H30.75C32.0742 15.3281 33.1523 16.4063 33.1523 17.7188C33.1523 18.3633 32.9062 18.9609 32.4492 19.4063C31.9922 19.8633 31.3945 20.1094 30.75 20.1094H30.7031H18.832H18.7851C17.4609 20.1094 16.3828 19.0313 16.3828 17.7188C16.3945 17.0859 16.6523 16.4883 17.0976 16.0313ZM4.55858 48.457L8.09764 45.4805C8.2617 45.3398 8.36717 45.1406 8.39061 44.9297C8.70701 41.6133 9.44529 36.7148 11.1562 32.1328C13.0547 27.0352 15.7148 23.543 19.043 21.75H30.5039C35.8594 24.6328 38.5195 31.4766 39.8086 36.7852V38.4961V45.1172V50.4023H4.98045C4.52342 50.4023 4.3242 49.9805 4.25389 49.8047C4.11326 49.3828 4.14842 48.8086 4.55858 48.457Z" fill="#ED1C24"/>
<path d="M20.7422 41.1563C21.7734 41.8828 22.9336 42.3398 24.1992 42.4687V43.5117C24.1992 43.9102 24.539 44.2383 24.9375 44.2383C25.3476 44.2383 25.664 43.9219 25.664 43.5117V42.5039C27.8086 42.3047 29.2617 41.0742 29.2617 39.2109C29.2617 38.6602 29.1562 38.168 28.9336 37.7578C28.4414 36.8086 27.375 36.1875 25.5937 35.7422V32.5078C26.1679 32.6367 26.7422 32.8945 27.3281 33.2461C27.4922 33.3516 27.6679 33.3984 27.832 33.3984C28.3594 33.3984 28.7812 32.9883 28.7812 32.4727C28.7812 32.0742 28.5469 31.8164 28.2773 31.6641C27.5039 31.1719 26.6601 30.8555 25.664 30.7383V30.3516C25.664 29.9531 25.3476 29.625 24.9375 29.625C24.539 29.625 24.1992 29.9414 24.1992 30.3516V30.7031C23.5312 30.7617 22.9336 30.9141 22.4297 31.1719C21.7969 31.4883 21.3164 31.9336 21.0117 32.4961C20.7773 32.918 20.6601 33.3984 20.6601 33.9258C20.6601 34.6992 20.8476 35.3086 21.2344 35.8125C21.8086 36.5391 22.8047 37.0195 24.2695 37.4063V40.7344C23.3437 40.5703 22.5703 40.1836 21.7734 39.6094C21.6211 39.4922 21.4219 39.4219 21.2226 39.4219C20.6953 39.4219 20.2969 39.8203 20.2969 40.3477C20.2851 40.6992 20.4492 40.9688 20.7422 41.1563ZM25.5937 37.7227C25.6172 37.7344 25.6523 37.7344 25.6758 37.7461C26.9062 38.1445 27.2695 38.6016 27.2695 39.3281C27.2695 40.1367 26.6836 40.6758 25.6054 40.793V37.7227H25.5937ZM23.5898 35.1211C22.8515 34.7695 22.6406 34.3711 22.6406 33.8086C22.6406 33.0703 23.1797 32.4961 24.2578 32.3906V35.3789C24 35.2969 23.7773 35.2148 23.5898 35.1211Z" fill="#ED1C24"/>
</svg>
