<svg width="60" height="60" viewBox="0 0 60 60" fill="none" xmlns="http://www.w3.org/2000/svg">
<g clip-path="url(#clip0_610_5912)">
<path d="M49.0028 29.1079L44.5811 24.6862L49.0028 20.2645C49.4955 19.7718 49.4955 18.9729 49.0028 18.4802L30.8922 0.369549C30.6555 0.132856 30.3346 0 30 0C29.6654 0 29.3446 0.132856 29.1079 0.369549L10.9971 18.4802C10.5044 18.9729 10.5044 19.7718 10.9971 20.2645L15.4188 24.6862L10.9971 29.1079C10.5044 29.6006 10.5044 30.3995 10.9971 30.8922L15.4188 35.3139L10.9971 39.7356C10.5044 40.2283 10.5044 41.0272 10.9971 41.5199L29.1077 59.6306C29.3444 59.8671 29.6653 60.0001 29.9999 60.0001C30.3345 60.0001 30.6553 59.8673 30.892 59.6306L49.0027 41.5199C49.4954 41.0272 49.4954 40.2283 49.0027 39.7356L44.581 35.3139L49.0027 30.8922C49.4955 30.3994 49.4955 29.6006 49.0028 29.1079ZM13.6736 19.3724L29.9999 3.04597L46.3261 19.3724L42.7967 22.9018L30.892 10.9971C30.3992 10.5044 29.6006 10.5044 29.1076 10.9971L17.203 22.9018L13.6736 19.3724ZM30 35.6987L24.3013 30.0001L30 24.3013L35.6987 30.0001L30 35.6987ZM37.483 31.7843L41.0124 35.3138L29.9999 46.3263L18.9874 35.3138L22.5168 31.7843L29.1076 38.3752C29.354 38.6216 29.6769 38.7447 29.9998 38.7447C30.3226 38.7447 30.6455 38.6216 30.8919 38.3752L37.483 31.7843ZM30.8922 21.6248C30.6555 21.3883 30.3346 21.2553 30 21.2553C29.6654 21.2553 29.3446 21.3882 29.1079 21.6248L22.5171 28.2157L18.9876 24.6862L30.0001 13.6737L41.0127 24.6862L37.4832 28.2157L30.8922 21.6248ZM13.6736 30.0001L17.2031 26.4706L20.7325 30.0001L17.2031 33.5295L13.6736 30.0001ZM46.3263 40.6276L30 56.954L13.6738 40.6276L17.2032 37.0982L29.1079 49.0029C29.3446 49.2394 29.6654 49.3724 30 49.3724C30.3346 49.3724 30.6555 49.2396 30.8922 49.0029L42.7968 37.0982L46.3263 40.6276ZM42.7968 33.5295L39.2674 30.0001L42.7968 26.4706L46.3263 30.0001L42.7968 33.5295Z" fill="white"/>
</g>
<defs>
<clipPath id="clip0_610_5912">
<rect width="60" height="60" fill="white"/>
</clipPath>
</defs>
</svg>
