<svg width="60" height="60" viewBox="0 0 60 60" fill="none" xmlns="http://www.w3.org/2000/svg">
<g clip-path="url(#clip0_610_5784)">
<path d="M30 0.0761719C33.094 0.0762005 36.0824 1.20044 38.4092 3.23926L38.6523 3.43848C39.809 4.34243 41.2096 4.88032 42.6738 4.98438L42.9883 5L43.0166 5.00195C46.1369 5.17838 49.0831 6.49716 51.293 8.70703C53.5028 10.917 54.8217 13.8631 54.998 16.9834C54.9986 16.9927 54.9988 17.0024 54.999 17.0117C55.0467 18.6943 55.6687 20.31 56.7607 21.5908H56.7598C58.7987 23.9176 59.9238 26.9059 59.9238 30C59.9238 33.0939 58.7985 36.0815 56.7598 38.4082L56.7607 38.4092C55.6687 39.69 55.0467 41.3058 54.999 42.9883C54.9988 42.9976 54.9986 43.0073 54.998 43.0166C54.8216 46.1369 53.5028 49.0831 51.293 51.293C49.0831 53.5029 46.1369 54.8216 43.0166 54.998C43.0073 54.9986 42.9976 54.9988 42.9883 54.999C41.3057 55.0467 39.6901 55.6687 38.4092 56.7607L38.4082 56.7598C36.0814 58.7985 33.0939 59.9238 30 59.9238C26.9059 59.9238 23.9177 58.7988 21.5908 56.7598V56.7607C20.31 55.6687 18.6943 55.0467 17.0117 54.999C17.0023 54.9988 16.9928 54.9986 16.9834 54.998C13.8631 54.8217 10.917 53.5029 8.70703 51.293C6.49716 49.0831 5.17838 46.1369 5.00195 43.0166C5.00142 43.0073 5.00026 42.9976 5 42.9883C4.95247 41.3104 4.33443 39.6991 3.24805 38.4199L2.87598 37.9756C1.06732 35.717 0.0761987 32.905 0.0761719 30C0.0761996 26.9014 1.20349 23.9083 3.24805 21.5801C4.33446 20.3009 4.95246 18.6896 5 17.0117L5.00195 16.9834C5.17835 13.8631 6.4971 10.917 8.70703 8.70703C10.917 6.4971 13.8631 5.17833 16.9834 5.00195L17.0117 5C18.6942 4.95233 20.31 4.33129 21.5908 3.23926C23.9176 1.20049 26.9061 0.0761719 30 0.0761719ZM30 2.07617C27.387 2.07617 24.8628 3.02677 22.8994 4.75098C22.8958 4.75415 22.8923 4.75762 22.8887 4.76074C21.2676 6.14299 19.2245 6.93054 17.0957 6.99707L17.0967 6.99805C14.4669 7.14667 11.9836 8.25863 10.1211 10.1211C8.25862 11.9836 7.1467 14.4669 6.99805 17.0967C6.93131 19.2251 6.14275 21.2678 4.76074 22.8887C4.75762 22.8923 4.75415 22.8958 4.75098 22.8994C3.02676 24.8628 2.0762 27.387 2.07617 30C2.0762 32.6128 3.02701 35.1363 4.75098 37.0996C4.75417 37.1032 4.7576 37.1076 4.76074 37.1113C6.14274 38.7322 6.93134 40.7749 6.99805 42.9033C7.14667 45.5331 8.25863 48.0164 10.1211 49.8789C11.9797 51.7375 14.4564 52.8477 17.0801 53C19.0807 53.0592 21.0064 53.7572 22.5781 54.9854L22.8887 55.2393L22.8994 55.248C24.8628 56.9723 27.387 57.9238 30 57.9238C32.613 57.9238 35.1363 56.9723 37.0996 55.248C37.1033 55.2449 37.1076 55.2424 37.1113 55.2393C38.7362 53.8538 40.7848 53.0633 42.9189 53C45.543 52.8479 48.0201 51.7377 49.8789 49.8789C51.7377 48.0201 52.8479 45.5429 53 42.9189C53.0633 40.7848 53.8538 38.7362 55.2393 37.1113L55.248 37.0996C56.9722 35.1363 57.9238 32.6129 57.9238 30C57.9238 27.387 56.9723 24.8628 55.248 22.8994C55.245 22.896 55.2422 22.8922 55.2393 22.8887C53.8511 21.2607 53.0606 19.207 53 17.0684H52.999C52.8441 14.4491 51.7347 11.9769 49.8789 10.1211C48.0164 8.25863 45.5331 7.14667 42.9033 6.99805V6.99707C40.7749 6.93038 38.7322 6.14276 37.1113 4.76074C37.1076 4.7576 37.1032 4.75417 37.0996 4.75098C35.1363 3.027 32.6128 2.0762 30 2.07617ZM30.0439 14.9834C30.5504 14.9947 31.041 15.1632 31.4473 15.4658C31.8437 15.7613 32.1401 16.171 32.2988 16.6387H32.2998L34.9404 23.8984L34.9473 23.918C34.9778 24.0074 35.0335 24.0869 35.1084 24.1445C35.1832 24.202 35.2741 24.2356 35.3682 24.2422H35.3672L42.7207 24.541C42.7318 24.5415 42.7438 24.5421 42.7549 24.543C43.2588 24.5807 43.7402 24.7695 44.1357 25.084C44.5312 25.3986 44.8235 25.8251 44.9736 26.3076C45.1237 26.7902 45.1249 27.3076 44.9775 27.791C44.8301 28.2743 44.5411 28.7027 44.1475 29.0195L44.1465 29.0186L38.3604 33.7871C38.2809 33.8554 38.2227 33.9458 38.1914 34.0459C38.1676 34.1222 38.1602 34.2025 38.1699 34.2812L38.1855 34.3594V34.3604L40.1855 41.8008C40.3275 42.2694 40.3281 42.7706 40.1836 43.2393C40.0338 43.7248 39.7364 44.1517 39.334 44.4619C38.9314 44.7721 38.4423 44.9505 37.9346 44.9717C37.4269 44.9928 36.9249 44.8556 36.498 44.5801C36.4899 44.5748 36.4807 44.569 36.4727 44.5635L30.2324 40.2637C30.2285 40.261 30.2245 40.2576 30.2207 40.2549C30.1565 40.2092 30.0788 40.1847 30 40.1846C29.9213 40.1846 29.8444 40.2094 29.7803 40.2549L29.7725 40.2598L23.6123 44.5605L23.6025 44.5674C23.1682 44.8625 22.6497 45.0113 22.125 44.9912C21.6004 44.971 21.0959 44.7824 20.6855 44.4551C20.2751 44.1275 19.9799 43.6771 19.8438 43.1699C19.7154 42.691 19.7358 42.1853 19.8994 41.7188L21.8945 34.3008V34.2988C21.9223 34.1961 21.9204 34.087 21.8887 33.9854C21.8569 33.884 21.7969 33.7932 21.7158 33.7246V33.7236L15.9238 28.9521L15.9248 28.9512C15.5356 28.635 15.2488 28.2102 15.1025 27.7305C14.9552 27.2469 14.9563 26.7298 15.1064 26.2471C15.2566 25.7645 15.5488 25.338 15.9443 25.0234C16.34 24.7089 16.8221 24.521 17.3262 24.4834L17.3594 24.4814L24.7197 24.1807C24.8111 24.1728 24.8989 24.14 24.9717 24.084C25.0465 24.0263 25.1033 23.9479 25.1338 23.8584L25.1367 23.8477L27.6973 16.5879L27.7031 16.5713C27.8799 16.0963 28.2007 15.6879 28.6201 15.4033C29.0394 15.1189 29.5374 14.9722 30.0439 14.9834ZM30 16.9824C29.9088 16.9804 29.8187 17.0074 29.7432 17.0586C29.6676 17.1099 29.609 17.183 29.5771 17.2686L27.0264 24.501L27.0273 24.502C26.87 24.9647 26.5787 25.3708 26.1914 25.6689C25.8039 25.967 25.3363 26.1442 24.8486 26.1777C24.8397 26.1783 24.8302 26.1793 24.8213 26.1797L17.4688 26.4775C17.3669 26.4863 17.2696 26.5252 17.1895 26.5889C17.1078 26.6538 17.0476 26.7422 17.0166 26.8418C16.9857 26.9413 16.9853 27.0478 17.0156 27.1475C17.0384 27.222 17.0776 27.2907 17.1299 27.3477L17.1875 27.4014L17.1963 27.4082L22.9961 32.1885L23.0049 32.1953V32.1963C23.377 32.5103 23.6525 32.9239 23.7979 33.3887C23.9428 33.8528 23.9517 34.3489 23.8252 34.8184L23.8262 34.8193L21.8262 42.2598C21.8166 42.2954 21.8045 42.3309 21.791 42.3652C21.7554 42.4565 21.7501 42.5568 21.7754 42.6514C21.8009 42.7461 21.8559 42.8314 21.9326 42.8926C22.0093 42.9536 22.1042 42.9884 22.2021 42.9922C22.2982 42.9957 22.3926 42.968 22.4727 42.915L28.6201 38.625C29.023 38.3385 29.5057 38.1846 30 38.1846C30.4943 38.1847 30.9771 38.3385 31.3799 38.625H31.3789L37.583 42.9004L37.6455 42.9336C37.7099 42.9622 37.7806 42.9766 37.8516 42.9736C37.9464 42.9696 38.0381 42.9359 38.1133 42.8779C38.1884 42.8199 38.2445 42.7401 38.2725 42.6494C38.3004 42.5587 38.2989 42.4613 38.2695 42.3711C38.264 42.3543 38.2595 42.3364 38.2549 42.3193L36.2549 34.8809C36.1278 34.4108 36.137 33.9141 36.2822 33.4492C36.4275 32.9842 36.7028 32.57 37.0752 32.2559L37.084 32.248L42.8838 27.4688L42.8936 27.4609C42.9745 27.3957 43.034 27.3074 43.0645 27.208C43.0948 27.1083 43.0944 27.0009 43.0635 26.9014C43.0325 26.802 42.972 26.7143 42.8906 26.6494C42.8102 26.5855 42.7126 26.5457 42.6104 26.5371L35.2598 26.2393C35.2507 26.2389 35.2405 26.2389 35.2314 26.2383C34.744 26.2048 34.277 26.0273 33.8896 25.7295C33.5075 25.4355 33.2195 25.036 33.0605 24.5811V24.582L30.4209 17.3223C30.4168 17.3109 30.4119 17.2986 30.4082 17.2871C30.3802 17.2004 30.3259 17.1239 30.2529 17.0693C30.1799 17.0149 30.091 16.9846 30 16.9824Z" fill="#ED1C24"/>
</g>
<defs>
<clipPath id="clip0_610_5784">
<rect width="60" height="60" fill="white"/>
</clipPath>
</defs>
</svg>
