<svg width="60" height="60" viewBox="0 0 60 60" fill="none" xmlns="http://www.w3.org/2000/svg">
<g clip-path="url(#clip0_610_5908)">
<path d="M32.4756 19.905C32.1945 19.6724 31.8045 19.623 31.4776 19.7767C31.1481 19.9305 30.9375 20.262 30.9375 20.6254V27.9975L21.2251 19.905C20.945 19.6724 20.555 19.6211 20.2272 19.7767C19.8981 19.9305 19.6875 20.262 19.6875 20.6254V39.3754C19.6875 39.7389 19.8981 40.0703 20.2272 40.2241C20.3544 40.2837 20.4899 40.3129 20.625 40.3129C20.8402 40.3129 21.0534 40.2388 21.2251 40.096L30.9375 32.0018V39.3754C30.9375 39.7389 31.1481 40.0703 31.4776 40.2241C31.604 40.2837 31.7394 40.3129 31.875 40.3129C32.0902 40.3129 32.3034 40.2388 32.4756 40.096L43.7256 30.72C43.9388 30.5415 44.0625 30.2778 44.0625 29.9995C44.0625 29.7212 43.9388 29.4575 43.7256 29.279L32.4756 19.905ZM21.5625 37.374V22.6268L30.4102 29.9995L21.5625 37.374ZM32.8125 37.374V22.6268L41.6602 29.9995L32.8125 37.374Z" fill="white"/>
<path d="M30 0C13.4315 0 0 13.4315 0 30C0 46.5685 13.4315 60 30 60C46.5685 60 60 46.5685 60 30C60 13.4315 46.5685 0 30 0ZM30 58.125C14.4918 58.125 1.875 45.5082 1.875 30C1.875 14.4919 14.4918 1.875 30 1.875C45.5081 1.875 58.125 14.4919 58.125 30C58.125 45.5082 45.5081 58.125 30 58.125Z" fill="white"/>
</g>
<defs>
<clipPath id="clip0_610_5908">
<rect width="60" height="60" fill="white"/>
</clipPath>
</defs>
</svg>
