<svg width="60" height="60" viewBox="0 0 60 60" fill="none" xmlns="http://www.w3.org/2000/svg">
<path fill-rule="evenodd" clip-rule="evenodd" d="M32.66 46.4998L27.635 31.1623C27.409 30.1745 27.7068 29.1398 28.4233 28.4233C29.14 27.7065 30.1745 27.4088 31.1625 27.6348L46.5 32.6598C47.05 32.7425 47.4748 33.1863 47.5335 33.7395C47.5923 34.2925 47.2703 34.8158 46.75 35.0123L39.54 38.2923C38.9745 38.5405 38.523 38.992 38.275 39.5573L35 46.7673C34.8033 47.2875 34.2803 47.6098 33.727 47.551C33.174 47.492 32.7303 47.0673 32.6475 46.5173L32.66 46.4998Z" stroke="white" stroke-width="2" stroke-linecap="round" stroke-linejoin="round"/>
<path d="M16.38 29.8925C17.4155 29.8925 18.255 29.053 18.255 28.0175C18.255 26.982 17.4155 26.1425 16.38 26.1425V29.8925ZM12.5 26.1425C11.4645 26.1425 10.625 26.982 10.625 28.0175C10.625 29.053 11.4645 29.8925 12.5 29.8925V26.1425ZM29.895 12.5C29.895 11.4645 29.0555 10.625 28.02 10.625C26.9845 10.625 26.145 11.4645 26.145 12.5H29.895ZM26.145 16.38C26.145 17.4155 26.9845 18.255 28.02 18.255C29.0555 18.255 29.895 17.4155 29.895 16.38H26.145ZM40.3182 18.3708C41.0505 17.6386 41.0505 16.4514 40.3182 15.7192C39.586 14.9869 38.399 14.9869 37.6667 15.7192L40.3182 18.3708ZM34.9167 18.4692C34.1845 19.2014 34.1845 20.3886 34.9167 21.1208C35.649 21.853 36.836 21.853 37.5682 21.1208L34.9167 18.4692ZM21.1133 37.5757C21.8455 36.8435 21.8455 35.6565 21.1133 34.9242C20.3811 34.192 19.1939 34.192 18.4617 34.9242L21.1133 37.5757ZM15.7117 37.6742C14.9794 38.4065 14.9794 39.5935 15.7117 40.3257C16.4439 41.058 17.6311 41.058 18.3633 40.3257L15.7117 37.6742ZM18.3633 15.7267C17.6311 14.9944 16.4439 14.9944 15.7117 15.7267C14.9794 16.4589 14.9794 17.6461 15.7117 18.3783L18.3633 15.7267ZM18.4617 21.1283C19.1939 21.8605 20.3811 21.8605 21.1133 21.1283C21.8455 20.3961 21.8455 19.2089 21.1133 18.4767L18.4617 21.1283ZM16.38 26.1425H12.5V29.8925H16.38V26.1425ZM26.145 12.5V16.38H29.895V12.5H26.145ZM37.6667 15.7192L34.9167 18.4692L37.5682 21.1208L40.3182 18.3708L37.6667 15.7192ZM18.4617 34.9242L15.7117 37.6742L18.3633 40.3257L21.1133 37.5757L18.4617 34.9242ZM15.7117 18.3783L18.4617 21.1283L21.1133 18.4767L18.3633 15.7267L15.7117 18.3783Z" fill="white"/>
</svg>
