<svg width="60" height="60" viewBox="0 0 60 60" fill="none" xmlns="http://www.w3.org/2000/svg">
<path d="M46.875 31.875C44.3944 31.875 42.21 33.0956 40.845 34.9519L31.9331 30L40.845 25.0481C42.21 26.9044 44.3925 28.125 46.875 28.125C51.0169 28.125 54.375 24.7669 54.375 20.625C54.375 16.4831 51.0169 13.125 46.875 13.125C42.7331 13.125 39.375 16.4831 39.375 20.625C39.375 21.6113 39.5775 22.5488 39.9225 23.4131L30.9375 28.4062V18.6562C34.6313 18.1894 37.5 15.0713 37.5 11.25C37.5 7.10812 34.1419 3.75 30 3.75C25.8581 3.75 22.5 7.10812 22.5 11.25C22.5 15.0713 25.3687 18.1894 29.0625 18.6562V28.4062L20.0756 23.4131C20.4225 22.5488 20.625 21.6113 20.625 20.625C20.625 16.4831 17.2669 13.125 13.125 13.125C8.98312 13.125 5.625 16.4831 5.625 20.625C5.625 24.7669 8.98312 28.125 13.125 28.125C15.6075 28.125 17.79 26.9044 19.155 25.0481L28.0669 30L19.1531 34.9519C17.79 33.0956 15.6075 31.875 13.125 31.875C8.98312 31.875 5.625 35.2331 5.625 39.375C5.625 43.5169 8.98312 46.875 13.125 46.875C17.2669 46.875 20.625 43.5169 20.625 39.375C20.625 38.3887 20.4225 37.4513 20.0756 36.5869L29.0625 31.5938V41.3437C25.3687 41.8106 22.5 44.9287 22.5 48.75C22.5 52.8919 25.8581 56.25 30 56.25C34.1419 56.25 37.5 52.8919 37.5 48.75C37.5 44.9287 34.6313 41.8106 30.9375 41.3437V31.5938L39.9244 36.5869C39.5775 37.4494 39.375 38.3869 39.375 39.375C39.375 43.5169 42.7331 46.875 46.875 46.875C51.0169 46.875 54.375 43.5169 54.375 39.375C54.375 35.2331 51.0169 31.875 46.875 31.875ZM46.875 15C49.9763 15 52.5 17.5237 52.5 20.625C52.5 23.7263 49.9763 26.25 46.875 26.25C43.7737 26.25 41.25 23.7263 41.25 20.625C41.25 17.5237 43.7737 15 46.875 15ZM13.125 26.25C10.0237 26.25 7.5 23.7263 7.5 20.625C7.5 17.5237 10.0237 15 13.125 15C16.2263 15 18.75 17.5237 18.75 20.625C18.75 23.7263 16.2263 26.25 13.125 26.25ZM13.125 45C10.0237 45 7.5 42.4763 7.5 39.375C7.5 36.2737 10.0237 33.75 13.125 33.75C16.2263 33.75 18.75 36.2737 18.75 39.375C18.75 42.4763 16.2263 45 13.125 45ZM24.375 11.25C24.375 8.14875 26.8987 5.625 30 5.625C33.1013 5.625 35.625 8.14875 35.625 11.25C35.625 14.3513 33.1013 16.875 30 16.875C26.8987 16.875 24.375 14.3513 24.375 11.25ZM35.625 48.75C35.625 51.8513 33.1013 54.375 30 54.375C26.8987 54.375 24.375 51.8513 24.375 48.75C24.375 45.6487 26.8987 43.125 30 43.125C33.1013 43.125 35.625 45.6487 35.625 48.75ZM46.875 45C43.7737 45 41.25 42.4763 41.25 39.375C41.25 36.2737 43.7737 33.75 46.875 33.75C49.9763 33.75 52.5 36.2737 52.5 39.375C52.5 42.4763 49.9763 45 46.875 45Z" fill="white"/>
</svg>
