<svg width="102" height="25" viewBox="0 0 102 25" fill="none" xmlns="http://www.w3.org/2000/svg">
<path d="M2 1C2 0.447715 1.55228 0 1 0C0.447715 0 0 0.447715 0 1H2ZM25.701 23.8052L25.559 24.7951L25.701 23.8052ZM33.801 23.2309L34.089 24.1885L33.801 23.2309ZM40.7097 19.207L40.1454 18.3815L40.7097 19.207ZM64.8553 2.90538L64.5378 1.95714L64.8553 2.90538ZM72.5981 1.97675L72.6845 0.980495L72.5981 1.97675ZM101.056 20.1211C101.608 20.09 102.029 19.6178 101.998 19.0664L101.492 10.0807C101.461 9.52926 100.989 9.10744 100.437 9.13852C99.8859 9.16959 99.4641 9.64179 99.4952 10.1932L99.9453 18.1805L91.958 18.6307C91.4066 18.6617 90.9848 19.1339 91.0158 19.6853C91.0469 20.2367 91.5191 20.6586 92.0705 20.6275L101.056 20.1211ZM1 1H0C0 1.07509 0.00130403 1.19795 0.0402511 1.37352C0.0721022 1.51711 0.124599 1.6767 0.197199 1.86804C0.343015 2.25235 0.620658 2.89475 1.14927 4.04048L2.05728 3.62154L2.9653 3.2026C2.43662 2.05674 2.18563 1.47087 2.06712 1.15854C2.03844 1.08294 2.01991 1.02959 2.00807 0.992617C1.99617 0.95548 1.99278 0.940339 1.99279 0.9404C1.9987 0.96703 2 1.0074 2 1H1ZM2.05728 3.62154L1.14927 4.04048C2.21015 6.33987 4.37991 10.8819 7.82986 14.581L8.56116 13.899L9.29247 13.2169C6.07834 9.77068 4.01897 5.48637 2.9653 3.2026L2.05728 3.62154ZM8.56116 13.899L7.82986 14.581C11.2839 18.2845 15.8961 20.9467 19.0099 22.5087L19.4583 21.6149L19.9066 20.721C16.8612 19.1934 12.5025 16.6588 9.29247 13.2169L8.56116 13.899ZM19.4583 21.6149L19.0099 22.5087C22.1613 24.0895 23.803 24.5432 25.559 24.7951L25.701 23.8052L25.8429 22.8153C24.3484 22.601 22.9144 22.2298 19.9066 20.721L19.4583 21.6149ZM25.701 23.8052L25.559 24.7951C28.9645 25.2835 31.9701 24.8258 34.089 24.1885L33.801 23.2309L33.5129 22.2733C31.6261 22.8408 28.916 23.2561 25.8429 22.8153L25.701 23.8052ZM33.801 23.2309L34.089 24.1885C35.9944 23.6154 37.7192 22.4625 41.274 20.0326L40.7097 19.207L40.1454 18.3815C36.4943 20.8772 35.0547 21.8096 33.5129 22.2733L33.801 23.2309ZM40.7097 19.207L41.274 20.0326C44.0066 18.1647 48.2586 14.9352 51.0548 12.7156L50.433 11.9323L49.8113 11.1491C47.0307 13.3564 42.821 16.5525 40.1454 18.3815L40.7097 19.207ZM50.433 11.9323L51.0548 12.7156C53.8664 10.4836 55.0706 9.28398 56.1392 8.35126L55.4816 7.5979L54.8239 6.84455C53.6789 7.84408 52.5763 8.95417 49.8113 11.1491L50.433 11.9323ZM55.4816 7.5979L56.1392 8.35126C57.1896 7.43437 58.1408 6.74537 59.6972 5.99533L59.2631 5.09447L58.829 4.19362C57.0864 5.03338 55.9871 5.82918 54.8239 6.84455L55.4816 7.5979ZM59.2631 5.09447L59.6972 5.99533C61.2896 5.22796 63.4852 4.41879 65.1729 3.85362L64.8553 2.90538L64.5378 1.95714C62.8255 2.53057 60.5356 3.37119 58.829 4.19362L59.2631 5.09447ZM64.8553 2.90538L65.1729 3.85362C67.7807 2.98031 70.0295 2.75757 72.5116 2.973L72.5981 1.97675L72.6845 0.980495C69.9395 0.742239 67.415 0.99361 64.5378 1.95714L64.8553 2.90538ZM72.5981 1.97675L72.5116 2.973C73.779 3.08301 75.1501 3.58241 76.8464 4.20159L77.1893 3.26221L77.5322 2.32283C75.914 1.73216 74.2711 1.1182 72.6845 0.980495L72.5981 1.97675ZM77.1893 3.26221L76.8464 4.20159C78.4423 4.78409 80.1163 5.4992 83.1037 7.27458L83.6146 6.41493L84.1254 5.55528C81.0371 3.71987 79.2509 2.95018 77.5322 2.32283L77.1893 3.26221ZM83.6146 6.41493L83.1037 7.27458C86.1123 9.06262 90.3781 11.8902 93.4611 14.1622L94.0544 13.3572L94.6476 12.5521C91.5132 10.2422 87.1925 7.37803 84.1254 5.55528L83.6146 6.41493ZM94.0544 13.3572L93.4611 14.1622C96.5268 16.4214 98.2882 18.0411 100.334 19.8685L101 19.1227L101.666 18.3769C99.6264 16.5547 97.7994 14.8748 94.6476 12.5521L94.0544 13.3572Z" fill="#99A1AF"/>
</svg>
