<svg width="43" height="57" viewBox="0 0 43 57" fill="none" xmlns="http://www.w3.org/2000/svg">
<path d="M12.9371 55.2454C12.5204 55.6078 12.4763 56.2394 12.8387 56.6562C13.2011 57.0729 13.8327 57.117 14.2495 56.7546L12.9371 55.2454ZM41.7577 22.0904L40.7881 22.3351H40.7881L41.7577 22.0904ZM28.3406 12.5362L28.655 11.5869L28.633 11.5796L28.6106 11.5733L28.3406 12.5362ZM0.31934 7.2674C-0.0852623 7.64332 -0.108517 8.27605 0.267399 8.68066L6.39333 15.2741C6.76925 15.6787 7.40199 15.7019 7.80659 15.326C8.2112 14.9501 8.23445 14.3173 7.85853 13.9127L2.41326 8.05194L8.27406 2.60667C8.67867 2.23075 8.70192 1.59801 8.326 1.19341C7.95008 0.788803 7.31734 0.765549 6.91274 1.14147L0.31934 7.2674ZM13.5933 56L14.2495 56.7546C23.3991 48.7982 32.6487 40.7588 37.6972 34.8225L36.9355 34.1747L36.1737 33.5268C31.2473 39.3194 22.1422 47.2409 12.9371 55.2454L13.5933 56ZM36.9355 34.1747L37.6972 34.8225C42.7863 28.8386 43.5246 25.0052 42.7273 21.8457L41.7577 22.0904L40.7881 22.3351C41.3602 24.6021 41.0596 27.7818 36.1737 33.5268L36.9355 34.1747ZM41.7577 22.0904L42.7273 21.8457C42.0356 19.1052 40.1066 17.0811 37.6126 15.4914C35.1262 13.9066 31.9755 12.6869 28.655 11.5869L28.3406 12.5362L28.0261 13.4854C31.3197 14.5766 34.2717 15.7337 36.5375 17.1779C38.7957 18.6173 40.2681 20.2748 40.7881 22.3351L41.7577 22.0904ZM28.3406 12.5362L28.6106 11.5733C24.214 10.3401 17.7708 8.88082 12.7864 8.06652L12.6252 9.05344L12.4639 10.0404C17.3705 10.8419 23.741 12.2846 28.0705 13.499L28.3406 12.5362ZM12.6252 9.05344L12.7864 8.06652C7.77688 7.24812 4.43583 7.1256 1.03673 7.00068L1 8L0.963272 8.99932C4.34356 9.12356 7.5825 9.24288 12.4639 10.0404L12.6252 9.05344Z" fill="#99A1AF"/>
</svg>
