<svg width="60" height="60" viewBox="0 0 60 60" fill="none" xmlns="http://www.w3.org/2000/svg">
<g clip-path="url(#clip0_610_6057)">
<path d="M24.375 23.7002C24.0018 23.7002 23.7 24.0021 23.7 24.3752V35.6252C23.7 35.9983 24.0018 36.3002 24.375 36.3002H35.625C35.9981 36.3002 36.3 35.9983 36.3 35.6252V24.3752C36.3 24.0021 35.9981 23.7002 35.625 23.7002H24.375ZM34.95 34.9502H25.0499V25.0502H34.95V34.9502ZM47.8125 10.0502H20.625V8.7002H47.8125C53.8706 8.7002 58.8 13.6277 58.8 19.6877C58.8 25.7477 53.8706 30.6752 47.8125 30.6752H39.375V29.3252H47.8125C53.1262 29.3252 57.45 25.0014 57.45 19.6877C57.45 14.3739 53.1262 10.0502 47.8125 10.0502ZM2.54995 16.8752H1.19995V15.9377C1.19995 12.7239 3.13495 9.8177 6.02808 8.51457C5.33995 7.72145 4.95183 6.70145 4.95183 5.6252C4.95183 3.18582 6.93558 1.2002 9.37495 1.2002C11.8143 1.2002 13.7981 3.18582 13.7981 5.6252C13.7981 6.70145 13.4081 7.72145 12.7218 8.51457C15.615 9.8177 17.5499 12.7221 17.5499 15.9377V16.8752H16.2V15.9377C16.2 12.9283 14.1618 10.2414 11.2425 9.40707C10.9893 9.33395 10.8018 9.1202 10.7606 8.85957C10.7212 8.59707 10.8375 8.33832 11.0568 8.19395C11.9287 7.6202 12.45 6.6602 12.45 5.6252C12.45 3.9302 11.07 2.5502 9.37495 2.5502C7.67995 2.5502 6.29995 3.9302 6.29995 5.6252C6.29995 6.6602 6.81933 7.6202 7.6912 8.19395C7.91245 8.33832 8.0287 8.59707 7.98933 8.85957C7.94808 9.1202 7.76058 9.33395 7.50745 9.40707C4.58808 10.2414 2.54995 12.9264 2.54995 15.9377V16.8752ZM58.8 57.1858V58.1252H57.45V57.1858C57.45 54.1765 55.4118 51.4915 52.4943 50.6552C52.2393 50.584 52.0518 50.3702 52.0125 50.1096C51.9731 49.8471 52.0875 49.5883 52.3068 49.444C53.1787 48.8702 53.6981 47.9121 53.6981 46.8771C53.6981 45.1821 52.32 43.8021 50.6231 43.8021C48.9262 43.8021 47.5481 45.1802 47.5481 46.8771C47.5481 47.9121 48.0675 48.8702 48.9393 49.444C49.1587 49.5883 49.275 49.849 49.2337 50.1096C49.1943 50.3702 49.0068 50.584 48.7518 50.6552C45.8343 51.4915 43.7962 54.1765 43.7962 57.1858V58.1252H42.45V57.1858C42.45 53.9721 44.385 51.0658 47.2781 49.7627C46.59 48.9696 46.2 47.9496 46.2 46.8752C46.2 44.4339 48.1856 42.4502 50.625 42.4502C53.0643 42.4502 55.05 44.4358 55.05 46.8752C55.05 47.9496 54.66 48.9696 53.9718 49.7627C56.865 51.0658 58.8 53.9721 58.8 57.1858ZM34.2281 44.5221L40.3293 50.6252L34.2281 56.7283L33.2718 55.7721L37.7456 51.3002H12.1875C6.12933 51.3002 1.19995 46.3708 1.19995 40.3127C1.19995 34.2546 6.12745 29.3252 12.1875 29.3252H20.625V30.6752H12.1875C6.8737 30.6752 2.54995 34.9989 2.54995 40.3127C2.54995 45.6264 6.8737 49.9502 12.1875 49.9502H37.7456L33.2718 45.4783L34.2281 44.5221Z" fill="white"/>
</g>
<defs>
<clipPath id="clip0_610_6057">
<rect width="60" height="60" fill="white"/>
</clipPath>
</defs>
</svg>
