<svg width="60" height="60" viewBox="0 0 60 60" fill="none" xmlns="http://www.w3.org/2000/svg">
<g clip-path="url(#clip0_610_5692)">
<path d="M52 34.9999C52.6 34.9999 52.9999 34.6 52.9999 34C52.9999 33.4 52.6 33 52 33C51.4 33 51 33.4 51 34C51 34.6 51.4 34.9999 52 34.9999Z" fill="white"/>
<path d="M57 10.9999C57.6 10.9999 57.9999 10.6 57.9999 9.99996C57.9999 9.39996 57.6 9 57 9C56.4 9 56 9.39996 56 9.99996C56 10.5998 56.4 10.9999 57 10.9999Z" fill="white"/>
<path d="M2.99996 48C2.39996 48 2 48.4 2 49C2 49.6 2.39996 49.9999 2.99996 49.9999C3.59996 49.9999 3.99992 49.6 3.99992 49C3.99992 48.4 3.59996 48 2.99996 48Z" fill="white"/>
<path d="M8.99996 23C8.39996 23 8 23.4 8 24C8 24.6 8.39996 24.9999 8.99996 24.9999C9.59996 24.9999 9.99992 24.6 9.99992 24C9.99992 23.4 9.59996 23 8.99996 23Z" fill="white"/>
<path d="M9 3.99996C7.29996 3.99996 6 2.7 6 0.999961C6 0.399961 5.60004 0 5.00004 0C4.40004 0 4.00008 0.399961 4.00008 0.999961C4.00008 2.7 2.70012 3.99996 1.00008 3.99996C0.399961 3.99996 0 4.40004 0 5.00004C0 5.60004 0.399961 6 0.999961 6C2.7 6 3.99996 7.29996 3.99996 9C3.99996 9.6 4.39992 9.99996 4.99992 9.99996C5.59992 9.99996 6 9.6 6 9C6 7.29996 7.29996 6 9 6C9.6 6 9.99996 5.60004 9.99996 5.00004C9.99996 4.40004 9.6 3.99996 9 3.99996ZM5.00004 6C4.70004 5.60004 4.40004 5.30004 4.00008 5.00004C4.40004 4.70004 4.70004 4.40004 5.00004 4.00008C5.30004 4.40004 5.60004 4.70004 6 5.00004C5.60004 5.30004 5.30004 5.60004 5.00004 6Z" fill="white"/>
<path d="M59.0001 52.9999H57.4001L55.0001 50.5999V49C55.0001 48.4 54.6001 48 54.0001 48C53.4001 48 53.0002 48.4 53.0002 49V50.5999L50.6002 52.9999H49.0002C48.4002 52.9999 48.0002 53.3999 48.0002 53.9999C48.0002 54.5999 48.4002 54.9998 49.0002 54.9998H50.6002L53.0002 57.3998V58.9998C53.0002 59.5998 53.4001 59.9998 54.0001 59.9998C54.6001 59.9998 55.0001 59.5998 55.0001 58.9998V57.3998L57.4001 54.9998H59.0001C59.6001 54.9998 60 54.5999 60 53.9999C60 53.3999 59.6001 52.9999 59.0001 52.9999ZM54 55.5998L52.4001 53.9999L54 52.3999L55.6 53.9999L54 55.5998Z" fill="white"/>
<path d="M41.8075 31.3362C41.8998 29.6112 41.9001 28.2988 41.9001 27.9C41.9001 25.5 41.8001 23.1 41.6001 20.8C41.2001 16.6 40.2 12.7 38.6001 9.3C37.052 5.98887 35.3378 3.825 33.8704 2.4252C33.8511 2.40668 33.8318 2.3884 33.8126 2.37012C33.8029 2.36098 33.7932 2.35172 33.7836 2.34258C32.0395 0.691523 30.6663 0.149766 30.3573 0.024375C30.329 0.0127734 30.3096 0.00480469 30.3 0C30.1 0 29.9001 0 29.7 0C29.5 0.0999609 25 1.59996 21.3 9.39996C19.7001 12.7999 18.7 16.6999 18.3 20.8999C18.1 23.2 18 25.6 18 28C18 28.3794 18.0002 29.7491 18.0981 31.5516C16.8153 32.4761 13 35.99 13 43.0999V47.0999C13 47.8999 13.4 48.4999 14.1 48.8999C14.4 48.9998 14.7 49.0999 15 49.0999C15.4 49.0999 15.8001 48.8999 16.3 48.5999L22.025 44.6098C22.6941 45.1516 23.7289 45.813 25.1888 46.3097C23.6609 48.3853 23.548 51.222 25 53.3999L29.2 59.5999C29.4 59.8 29.7 60 30 60C30.3 60 30.6 59.8 30.9 59.6L35.0001 53.4C36.4797 51.0881 36.3332 48.1785 34.7215 46.172C36.1279 45.6784 37.1291 45.0342 37.7812 44.5051L43.8 48.7001C44.2 49.0001 44.6001 49.1 45 49.1C45.3 49.1 45.6 49.0001 45.9 48.8C46.6 48.4001 47.0001 47.8001 47.0001 47V43.0001C47.0001 35.5473 42.8083 32.046 41.8075 31.3362ZM30.0855 2.14371C30.1086 2.15578 30.1327 2.16855 30.1577 2.18191C30.1618 2.18414 30.1659 2.18637 30.1701 2.18859C30.5984 2.42016 31.2929 2.8568 32.1297 3.60551C33.0849 4.46602 34.2234 5.74488 35.3683 7.61719C33.7762 8.50605 31.987 9 30 9C28.0131 9 26.2239 8.50605 24.6318 7.61719C25.7767 5.745 26.9152 4.46602 27.8704 3.60551C28.7072 2.8568 29.4017 2.42004 29.83 2.18859C29.8342 2.18637 29.8383 2.18414 29.8424 2.18191C29.8674 2.16844 29.8915 2.15566 29.9146 2.14371C29.9443 2.12824 29.9733 2.11336 30 2.1C30.0268 2.11336 30.0558 2.12824 30.0855 2.14371ZM20.3001 21.1C20.7 17.2 21.7001 13.5 23.2001 10.3C23.3549 9.96738 23.5112 9.6491 23.6682 9.34172C25.5061 10.4257 27.7166 11 30 11C32.2836 11 34.4939 10.4257 36.3319 9.34172C36.4889 9.6491 36.6452 9.96738 36.8 10.3C38.3999 13.5 39.2999 17.1 39.7 21.1C39.9 23.2999 40 25.6 40 28C40 31.2 39.6 40 37.3 42.4L37.2 42.4999L37.1001 42.5999C37.0647 42.6353 37.0335 42.6748 37.0045 42.7158C36.6094 43.115 35.5974 43.9757 33.8001 44.4998C33.838 44.0821 33.876 43.6496 33.9085 43.2084C33.9695 42.4763 34.0001 41.7334 34.0001 40.9998C34.0001 36.1998 32.7002 30.9998 30.0002 30.9998C27.3002 30.9998 26.0002 36.1998 26.0002 40.9998C26.0002 41.823 26.0385 42.6581 26.1155 43.4767C26.1422 43.7977 26.1711 44.108 26.2002 44.3998C24.6877 43.9587 23.7317 43.3191 23.2312 42.8813C23.1812 42.7364 23.1047 42.6042 23.0003 42.4998L22.9004 42.3998L22.8004 42.2999C21.5004 40.9999 20.6004 37.2998 20.2004 32.1998C20.2004 32.0254 20.2002 31.9269 20.1338 31.8382C20.0332 30.2895 20.0003 28.9153 20.0003 27.9998C20.0001 25.7 20.1 23.3 20.3001 21.1ZM30 49C29.929 49 29.4544 48.6458 28.9703 47.4021C28.4692 46.0652 28 43.9084 28 40.9999C28 35.9632 29.4073 33.1782 29.95 33.0082C30.4927 33.1781 31.9 35.9632 31.9 40.9999C31.9 42.5999 31.8 44.2 31.5 45.5999C31.5 45.6523 31.5043 45.7083 31.5104 45.7652C31.3011 46.6834 31.0495 47.4115 30.8054 47.943C30.4074 48.7478 30.06 49 30 49ZM15 47V43.0001C15 38.2307 16.8756 35.3378 18.273 33.9278C18.5793 37.1875 19.23 40.9629 20.6111 43.0625L15 47ZM33.4 52.3L30.1 57.1999L26.8 52.3C25.703 50.8041 25.7997 48.8112 26.8912 47.511C26.9922 47.8254 27.1019 48.1253 27.2202 48.4077C27.859 49.9768 28.7294 50.8516 29.7333 50.9823C29.7399 50.9831 29.7463 50.9844 29.7529 50.9852C29.7841 50.989 29.8155 50.9916 29.8469 50.9938C29.8567 50.9945 29.8663 50.9958 29.8762 50.9964C29.9172 50.9988 29.9584 51.0001 29.9999 51.0001C30.0414 51.0001 30.0827 50.9988 30.1237 50.9964C30.1334 50.9958 30.143 50.9945 30.1527 50.9938C30.1843 50.9914 30.2159 50.989 30.2472 50.9851C30.2532 50.9844 30.2589 50.9832 30.2649 50.9825C31.45 50.8295 32.4618 49.642 33.2999 47.5001C34.3 48.8 34.4001 50.8 33.4 52.3ZM45 47.1L39.3 43.1C40.5 41.3 41.3001 38.3 41.7 34.0001C43.1001 35.4 45 38.3 45 43.1V47.1Z" fill="white"/>
<path d="M30 29.0001C34.4001 29.0001 38.0001 25.4001 38.0001 21C38.0001 16.6 34.4001 13 30 13C25.6 13 22 16.6 22 21C22 25.4001 25.6 29.0001 30 29.0001ZM30 15C33.3 15 36 17.7 36 21C36 24.3 33.3 27 30 27C26.7 27 24 24.3 24 21C24 17.7 26.7 15 30 15Z" fill="white"/>
<path d="M30 24.9999C32.1999 24.9999 33.9999 23.1999 33.9999 21C33.9999 18.8 32.1999 17 30 17C27.8 17 26 18.8 26 21C26 23.1999 27.8 24.9999 30 24.9999ZM30 18.9999C31.1 18.9999 32 19.8999 32 21C32 22.1 31.1 23 30 23C28.8999 23 27.9999 22.1 27.9999 21C27.9999 19.8999 28.8999 18.9999 30 18.9999Z" fill="white"/>
</g>
<defs>
<clipPath id="clip0_610_5692">
<rect width="60" height="60" fill="white"/>
</clipPath>
</defs>
</svg>
