<svg width="60" height="60" viewBox="0 0 60 60" fill="none" xmlns="http://www.w3.org/2000/svg">
<g clip-path="url(#clip0_610_5786)">
<path d="M30.3131 14.001C27.5137 14.001 25.3125 16.2004 25.3125 19.0016C25.3125 21.8029 27.5119 24.0022 30.3131 24.0022C33.1125 24.0022 35.3137 21.8029 35.3137 19.0016C35.3137 16.2004 33.1144 14.001 30.3131 14.001ZM30.3131 21.9997C28.6125 21.9997 27.3131 20.7004 27.3131 18.9997C27.3131 17.2991 28.6125 15.9997 30.3131 15.9997C32.0137 15.9997 33.3131 17.2991 33.3131 18.9997C33.3131 20.7004 32.0137 21.9997 30.3131 21.9997Z" fill="white"/>
<path d="M40.3125 35.4994C40.3125 28.2994 40.3125 20.1 40.3125 17.1C40.3125 11.4994 36.6131 3.9 30.3131 0C24.0131 3.9 20.3138 11.4994 20.3138 17.1994C20.3138 20.1994 20.3138 28.3988 20.3138 35.5988L10.3144 47.9981H50.3138L40.3144 35.4975L40.3125 35.4994ZM20.3119 45.9994H14.5125L20.3119 38.7V45.9994ZM38.3119 45.9994H22.3125V17.1994C22.3125 12.6994 25.1119 6.19875 30.3131 2.4C35.5125 6.20062 38.3138 12.6 38.3138 17.1994V45.9994H38.3119ZM40.3125 38.7L46.1119 45.9994H40.3125C40.3125 44.2988 40.3125 41.7 40.3125 38.7Z" fill="white"/>
<path d="M29.3119 50.001H31.3125V60.0004H29.3119V50.001Z" fill="white"/>
<path d="M34.3125 50.001H36.3131V56.001H34.3125V50.001Z" fill="white"/>
<path d="M24.3131 50.001H26.3137V56.001H24.3131V50.001Z" fill="white"/>
</g>
<defs>
<clipPath id="clip0_610_5786">
<rect width="60" height="60" fill="white"/>
</clipPath>
</defs>
</svg>
