<svg width="60" height="60" viewBox="0 0 60 60" fill="none" xmlns="http://www.w3.org/2000/svg">
<path d="M2.93814 45C4.41001 47.55 7.71564 48.8981 12.495 48.8981C14.6438 48.8981 17.01 48.5963 19.4756 48.0769C21.8494 55.35 25.6388 60 30 60C34.3613 60 38.1506 55.35 40.5244 48.0769C42.9919 48.5944 45.3563 48.8981 47.505 48.8981C52.2825 48.8981 55.5881 47.55 57.06 45C58.965 41.6981 57.2794 36.15 51.4988 30C57.2794 23.85 58.965 18.3019 57.06 15C55.5881 12.45 52.2825 11.1019 47.5031 11.1019C45.3544 11.1019 42.9881 11.4038 40.5225 11.9231C38.1506 4.65 34.3613 0 30 0C25.6388 0 21.8494 4.65 19.4756 11.9231C17.0081 11.4038 14.6419 11.1019 12.495 11.1019C7.71564 11.1019 4.41001 12.45 2.93814 15C1.03314 18.3019 2.71876 23.85 8.49939 30C2.71876 36.15 1.03126 41.6981 2.93814 45ZM30 58.125C26.5519 58.125 23.4075 54.0019 21.3244 47.6644C24.1425 46.95 27.0731 45.9394 30 44.6663C32.9269 45.9394 35.8575 46.95 38.6756 47.6644C36.5925 54.0019 33.4481 58.125 30 58.125ZM18.75 30C18.75 27.8175 18.8663 25.6931 19.065 23.6381C20.7394 22.4719 22.5094 21.3356 24.375 20.2575C26.22 19.1925 28.1081 18.2381 30 17.3831C31.8919 18.2362 33.78 19.1906 35.625 20.2575C37.4906 21.3337 39.2588 22.47 40.935 23.6381C41.1338 25.6931 41.25 27.8175 41.25 30C41.25 32.1825 41.1338 34.3069 40.935 36.3619C39.2606 37.5281 37.4906 38.6644 35.625 39.7425C33.78 40.8075 31.8919 41.7619 30 42.6169C28.1081 41.7638 26.22 40.8094 24.375 39.7425C22.5094 38.6662 20.7413 37.53 19.065 36.3619C18.8663 34.3069 18.75 32.1825 18.75 30ZM17.0588 34.9181C14.91 33.3037 12.9638 31.6463 11.2725 30C12.9638 28.3537 14.91 26.6962 17.0588 25.0819C16.9481 26.6831 16.875 28.3162 16.875 30C16.875 31.6838 16.9481 33.3169 17.0588 34.9181ZM19.3519 21.1613C19.6969 18.6469 20.1806 16.2788 20.7844 14.1225C23.025 14.6869 25.35 15.4669 27.6881 16.4081C26.2594 17.1 24.8344 17.8275 23.4375 18.6337C21.9881 19.4719 20.6475 20.3156 19.3519 21.1613ZM32.31 16.4081C34.6481 15.4669 36.9731 14.6869 39.2138 14.1225C39.8175 16.2788 40.3013 18.6469 40.6463 21.1613C39.3525 20.3156 38.01 19.4719 36.5606 18.6337C35.1656 17.8275 33.7406 17.1 32.31 16.4081ZM42.9413 25.0819C45.0919 26.6962 47.0363 28.3519 48.7275 30C47.0363 31.6463 45.09 33.3037 42.9413 34.9181C43.0519 33.3169 43.125 31.6838 43.125 30C43.125 28.3162 43.0519 26.6831 42.9413 25.0819ZM40.6481 38.8388C40.3031 41.3531 39.8194 43.7213 39.2156 45.8775C36.975 45.3131 34.65 44.5331 32.3119 43.5919C33.7425 42.9019 35.1675 42.1725 36.5644 41.3663C38.0119 40.5281 39.3525 39.6844 40.6481 38.8388ZM23.4375 41.3663C24.8344 42.1725 26.2594 42.9019 27.69 43.5919C25.3519 44.5331 23.0269 45.3131 20.7863 45.8775C20.1825 43.7213 19.6988 41.3531 19.3538 38.8388C20.6475 39.6844 21.9881 40.5281 23.4375 41.3663ZM55.4381 44.0625C54.3356 45.9731 51.5194 47.0231 47.5069 47.0231C45.5269 47.0231 43.3481 46.7494 41.0719 46.2825C41.8144 43.6125 42.3713 40.6425 42.7163 37.455C45.615 35.4225 48.0619 33.39 50.1038 31.4006C54.8513 36.4294 57.09 41.1994 55.4381 44.0625ZM47.505 12.9769C51.5175 12.9769 54.3356 14.0287 55.4363 15.9375C57.09 18.8006 54.8494 23.5706 50.1019 28.5994C48.06 26.6119 45.6131 24.5775 42.7144 22.545C42.3694 19.3575 41.8125 16.3875 41.07 13.7175C43.3463 13.2506 45.5269 12.9769 47.505 12.9769ZM30 1.875C33.4481 1.875 36.5925 5.99812 38.6756 12.3356C35.8575 13.05 32.9269 14.0606 30 15.3338C27.0731 14.0606 24.1425 13.05 21.3244 12.3356C23.4075 5.99812 26.5519 1.875 30 1.875ZM4.56189 15.9375C5.66439 14.0269 8.48064 12.9769 12.4931 12.9769C14.4731 12.9769 16.6519 13.2506 18.9281 13.7175C18.1856 16.3875 17.6288 19.3575 17.2838 22.545C14.385 24.5775 11.9381 26.61 9.89626 28.5994C5.14876 23.5706 2.91001 18.8006 4.56189 15.9375ZM9.89626 31.4006C11.9381 33.3881 14.385 35.4225 17.2838 37.455C17.6288 40.6425 18.1856 43.6125 18.9281 46.2825C16.6538 46.7494 14.475 47.0231 12.495 47.0231C8.48251 47.0231 5.66251 45.9713 4.56189 44.0625C2.91001 41.1994 5.14876 36.4294 9.89626 31.4006Z" fill="#ED1C24"/>
<path d="M30 34.6875C32.5838 34.6875 34.6875 32.5856 34.6875 30C34.6875 27.4144 32.5838 25.3125 30 25.3125C27.4162 25.3125 25.3125 27.4144 25.3125 30C25.3125 32.5856 27.4162 34.6875 30 34.6875ZM30 27.1875C31.5506 27.1875 32.8125 28.4494 32.8125 30C32.8125 31.5506 31.5506 32.8125 30 32.8125C28.4494 32.8125 27.1875 31.5506 27.1875 30C27.1875 28.4494 28.4494 27.1875 30 27.1875Z" fill="#ED1C24"/>
</svg>
