<svg width="24" height="25" viewBox="0 0 24 25" fill="none" xmlns="http://www.w3.org/2000/svg">
<g id="Item &#226;&#134;&#146; Link &#226;&#134;&#146; SVG">
<path id="Vector" d="M12 2.82237C15.2041 2.82237 15.5836 2.83456 16.849 2.89229C18.019 2.94569 18.6544 3.14118 19.0773 3.30547C19.6373 3.52316 20.0371 3.78324 20.457 4.20313C20.8769 4.62303 21.137 5.02282 21.3546 5.5829C21.519 6.0058 21.7145 6.64119 21.7679 7.81113C21.8256 9.07653 21.8378 9.45603 21.8378 12.6602C21.8378 15.8644 21.8256 16.2439 21.7679 17.5092C21.7145 18.6792 21.519 19.3146 21.3546 19.7375C21.137 20.2976 20.8769 20.6974 20.457 21.1173C20.0371 21.5372 19.6373 21.7972 19.0773 22.0149C18.6544 22.1792 18.019 22.3747 16.849 22.4281C15.5838 22.4858 15.2043 22.498 12 22.498C8.79563 22.498 8.41613 22.4858 7.15097 22.4281C5.98098 22.3747 5.34559 22.1792 4.92274 22.0149C4.36261 21.7972 3.96282 21.5372 3.54293 21.1173C3.12303 20.6974 2.86295 20.2976 2.64531 19.7375C2.48097 19.3146 2.28548 18.6792 2.23209 17.5093C2.17435 16.2439 2.16216 15.8644 2.16216 12.6602C2.16216 9.45603 2.17435 9.07653 2.23209 7.81118C2.28548 6.64119 2.48097 6.0058 2.64531 5.5829C2.86295 5.02282 3.12303 4.62303 3.54293 4.20313C3.96282 3.78324 4.36261 3.52316 4.92274 3.30547C5.34559 3.14118 5.98098 2.94569 7.15092 2.89229C8.41632 2.83456 8.79582 2.82237 12 2.82237ZM12 0.660156C8.74095 0.660156 8.33234 0.67397 7.05242 0.73237C5.77511 0.790673 4.90283 0.993499 4.1395 1.29016C3.35039 1.59683 2.68118 2.00716 2.01406 2.67427C1.34695 3.34139 0.936629 4.0106 0.629961 4.7997C0.333296 5.56304 0.13047 6.43532 0.0721656 7.71262C0.0137662 8.9925 0 9.40116 0 12.6602C0 15.9193 0.0137662 16.3279 0.0721656 17.6078C0.13047 18.8851 0.333296 19.7574 0.629961 20.5207C0.936629 21.3098 1.34695 21.979 2.01406 22.6461C2.68118 23.3133 3.35039 23.7236 4.1395 24.0302C4.90283 24.3269 5.77511 24.5297 7.05242 24.588C8.33234 24.6464 8.74095 24.6602 12 24.6602C15.259 24.6602 15.6677 24.6464 16.9475 24.588C18.2248 24.5297 19.0971 24.3269 19.8605 24.0302C20.6496 23.7236 21.3188 23.3133 21.9859 22.6461C22.653 21.979 23.0633 21.3098 23.37 20.5207C23.6667 19.7574 23.8695 18.8851 23.9278 17.6078C23.9862 16.3279 24 15.9193 24 12.6602C24 9.40116 23.9862 8.9925 23.9278 7.71262C23.8695 6.43532 23.6667 5.56304 23.37 4.7997C23.0633 4.0106 22.653 3.34139 21.9859 2.67427C21.3188 2.00716 20.6496 1.59683 19.8605 1.29016C19.0971 0.993499 18.2248 0.790673 16.9475 0.73237C15.6677 0.67397 15.259 0.660156 12 0.660156ZM12 6.498C8.59671 6.498 5.83779 9.25692 5.83779 12.6602C5.83779 16.0635 8.59671 18.8224 12 18.8224C15.4032 18.8224 18.1622 16.0635 18.1622 12.6602C18.1622 9.25692 15.4032 6.498 12 6.498ZM12 16.6602C9.79085 16.6602 7.99995 14.8693 7.99995 12.6602C7.99995 10.4511 9.79085 8.66016 12 8.66016C14.2091 8.66016 16 10.4511 16 12.6602C16 14.8693 14.2091 16.6602 12 16.6602ZM19.8456 6.25454C19.8456 7.04984 19.2009 7.69457 18.4056 7.69457C17.6103 7.69457 16.9656 7.04984 16.9656 6.25454C16.9656 5.45925 17.6103 4.81457 18.4056 4.81457C19.2009 4.81457 19.8456 5.45925 19.8456 6.25454Z" fill="white"/>
</g>
</svg>
