<svg width="24" height="24" viewBox="0 0 24 24" fill="none" xmlns="http://www.w3.org/2000/svg">
<path d="M19.5938 3H4.40625C3.6293 3 3 3.6293 3 4.40625V19.5938C3 20.3707 3.6293 21 4.40625 21H19.5938C20.3707 21 21 20.3707 21 19.5938V4.40625C21 3.6293 20.3707 3 19.5938 3ZM9.48281 15.7652H7.72852V10.1508H9.48281V15.7652ZM8.5582 9.44766H8.54414C7.90781 9.44766 7.49648 9.01875 7.49648 8.47383C7.49648 7.91836 7.92188 7.5 8.56875 7.5C9.21562 7.5 9.61289 7.91836 9.62695 8.47383C9.63047 9.01523 9.21914 9.44766 8.5582 9.44766ZM16.5 15.7652H14.5102V12.8613C14.5102 12.102 14.2008 11.5816 13.5152 11.5816C12.9914 11.5816 12.6996 11.9332 12.566 12.2707C12.5168 12.3902 12.5238 12.559 12.5238 12.7312V15.7652H10.5516C10.5516 15.7652 10.5762 10.6184 10.5516 10.1508H12.5238V11.0332C12.6398 10.6465 13.2691 10.098 14.2746 10.098C15.5227 10.098 16.5 10.9066 16.5 12.6434V15.7652Z" fill="white"/>
</svg>
