<svg width="24" height="24" viewBox="0 0 24 24" fill="none" xmlns="http://www.w3.org/2000/svg">
<g id="envelope 2" clip-path="url(#clip0_480_882)">
<g id="Layer 2">
<g id="InterfaceIcon">
<g id="02.Envelope">
<path id="Background" d="M24 17.8144V6.18563C24 2.7694 21.2306 0 17.8144 0H6.18563C2.7694 0 0 2.7694 0 6.18563V17.8144C0 21.2306 2.7694 24 6.18563 24H17.8144C21.2306 24 24 21.2306 24 17.8144Z" fill="url(#paint0_linear_480_882)"/>
<path id="icon" d="M18.5372 6.2043L18.289 6.2943L4.819 11.1475C4.72354 11.177 4.64058 11.2374 4.58311 11.3191C4.52564 11.4008 4.49692 11.4993 4.50144 11.5991C4.50596 11.6989 4.54348 11.7944 4.6081 11.8706C4.67273 11.9468 4.76081 11.9994 4.85854 12.0202L8.34536 12.9748L8.99581 14.8838L9.64627 16.7929C9.68363 16.8865 9.74328 16.9696 9.82003 17.0349C9.89677 17.1002 9.9883 17.1458 10.0867 17.1677C10.185 17.1896 10.2872 17.1871 10.3845 17.1606C10.4817 17.134 10.5709 17.0841 10.6445 17.0152L12.4458 15.3134L15.9831 17.712C16.4154 18.0066 17.0317 17.7884 17.1422 17.3029L19.4849 6.95158C19.5995 6.43885 19.0595 6.01748 18.5372 6.2043ZM16.8176 8.50203L10.7317 13.4766L10.4454 13.7111C10.3825 13.761 10.3414 13.8334 10.3308 13.9129L10.2667 14.442L10.0908 15.9284C10.0923 15.9465 10.0865 15.9644 10.0747 15.9782C10.0629 15.992 10.0462 16.0006 10.0281 16.002C10.01 16.0035 9.99209 15.9977 9.97828 15.9859C9.96447 15.9742 9.9559 15.9574 9.95445 15.9393L9.45945 14.4543L8.94809 12.9338C8.92646 12.8655 8.92933 12.7918 8.95621 12.7253C8.98309 12.6589 9.0323 12.6038 9.09536 12.5698L15.4281 8.93976L16.6199 8.25794C16.7931 8.15703 16.9704 8.37658 16.8176 8.50203Z" fill="white"/>
</g>
</g>
</g>
</g>
<defs>
<linearGradient id="paint0_linear_480_882" x1="1.81172" y1="1.81172" x2="22.1883" y2="22.1883" gradientUnits="userSpaceOnUse">
<stop stop-color="#549EFF"/>
<stop offset="1" stop-color="#006DB0"/>
</linearGradient>
<clipPath id="clip0_480_882">
<rect width="24" height="24" fill="white"/>
</clipPath>
</defs>
</svg>
