<svg width="24" height="24" viewBox="0 0 24 24" fill="none" xmlns="http://www.w3.org/2000/svg">
<g id="envelope 1" clip-path="url(#clip0_480_872)">
<g id="Layer 2">
<g id="InterfaceIcon">
<g id="02.Envelope">
<path id="Background" d="M24 17.8144V6.18563C24 2.7694 21.2306 0 17.8144 0H6.18563C2.7694 0 0 2.7694 0 6.18563V17.8144C0 21.2306 2.7694 24 6.18563 24H17.8144C21.2306 24 24 21.2306 24 17.8144Z" fill="url(#paint0_linear_480_872)"/>
<g id="02.Envelope_2">
<path id="Vector" d="M13.341 12.2861L18.434 7.32855C18.3184 7.2812 18.1947 7.25684 18.0698 7.25684H5.92916C5.80424 7.25679 5.68052 7.28116 5.56494 7.32855L10.6588 12.2861C11.0177 12.6357 11.4989 12.8313 11.9999 12.8313C12.501 12.8313 12.9822 12.6357 13.341 12.2861Z" fill="white"/>
<path id="Vector_2" d="M10.4831 12.8065L5.12485 7.69385C5.02265 7.84967 4.96838 8.03203 4.96875 8.21838V15.7821C4.96875 16.0371 5.07004 16.2816 5.25034 16.4619C5.43064 16.6422 5.67518 16.7435 5.93016 16.7435H18.0708C18.3256 16.7433 18.5699 16.6419 18.75 16.4616C18.9301 16.2813 19.0313 16.0369 19.0313 15.7821V8.21838C19.0314 8.03207 18.9771 7.84977 18.8752 7.69385L13.5169 12.8065C13.1082 13.1967 12.565 13.4144 12 13.4144C11.435 13.4144 10.8918 13.1967 10.4831 12.8065Z" fill="white"/>
</g>
</g>
</g>
</g>
</g>
<defs>
<linearGradient id="paint0_linear_480_872" x1="1.81172" y1="1.81172" x2="22.1883" y2="22.1883" gradientUnits="userSpaceOnUse">
<stop stop-color="#54FFDD"/>
<stop offset="1" stop-color="#177744"/>
</linearGradient>
<clipPath id="clip0_480_872">
<rect width="24" height="24" fill="white"/>
</clipPath>
</defs>
</svg>
