<svg width="24" height="25" viewBox="0 0 24 25" fill="none" xmlns="http://www.w3.org/2000/svg">
<g id="Item &#226;&#134;&#146; Link &#226;&#134;&#146; SVG">
<path id="Vector" d="M17.5133 5.95016C16.7158 5.03971 16.2763 3.87049 16.2767 2.66016H12.6717V17.1268C12.6439 17.9097 12.3133 18.6512 11.7497 19.1952C11.1861 19.7393 10.4334 20.0434 9.65 20.0435C7.99333 20.0435 6.61667 18.6902 6.61667 17.0102C6.61667 15.0035 8.55333 13.4985 10.5483 14.1168V10.4302C6.52333 9.89349 3 13.0202 3 17.0102C3 20.8952 6.22 23.6602 9.63833 23.6602C13.3017 23.6602 16.2767 20.6852 16.2767 17.0102V9.67182C17.7385 10.7216 19.4936 11.2849 21.2933 11.2818V7.67682C21.2933 7.67682 19.1 7.78182 17.5133 5.95016Z" fill="white"/>
</g>
</svg>
