<svg width="60" height="60" viewBox="0 0 60 60" fill="none" xmlns="http://www.w3.org/2000/svg">
<path d="M23.4375 11.25H29.0625C29.58 11.25 30 10.83 30 10.3125V7.5C30 5.43187 28.3181 3.75 26.25 3.75C24.1819 3.75 22.5 5.43187 22.5 7.5V10.3125C22.5 10.83 22.92 11.25 23.4375 11.25ZM24.375 7.5C24.375 6.46688 25.2169 5.625 26.25 5.625C27.2831 5.625 28.125 6.46688 28.125 7.5V9.375H24.375V7.5Z" fill="#ED1C24"/>
<path d="M51.4012 11.9641L43.4456 4.00844C42.03 2.59094 39.5588 2.59094 38.1431 4.00844C37.4344 4.71531 37.0444 5.65656 37.0444 6.65969C37.0444 7.66094 37.4344 8.60219 38.1431 9.31094L38.8069 9.97469C39.1725 10.3403 39.1725 10.9347 38.8237 11.2853L35.0363 14.8891C34.3931 15.5022 34.0837 16.3591 34.1869 17.2366C34.2956 18.1347 34.8113 18.9128 35.6025 19.3684C42.1463 23.1428 45.7538 30.4178 44.85 37.9516C43.8188 46.4659 36.9281 53.3097 28.3894 54.2547C22.9631 54.8603 17.7675 53.1991 13.7437 49.5953C9.77625 46.0403 7.5 40.9459 7.5 35.6228C7.5 26.0097 14.6981 17.9941 24.2438 16.9797C24.5306 16.9497 24.7912 17.0359 25.0012 17.2234C25.2019 17.4034 25.3125 17.6528 25.3125 17.9209V33.8491C25.3125 35.3997 26.5744 36.6616 28.125 36.6616H34.6875C35.205 36.6616 35.625 36.2416 35.625 35.7241C35.625 35.2066 35.205 34.7866 34.6875 34.7866H28.125C27.6075 34.7866 27.1875 34.3666 27.1875 33.8491V17.9209C27.1875 17.1259 26.8462 16.3628 26.2537 15.8284C25.6537 15.2903 24.8381 15.0316 24.045 15.1141C13.545 16.2316 5.625 25.0478 5.625 35.6228C5.625 41.4803 8.12813 47.0828 12.495 50.9922C16.3275 54.4234 21.1313 56.2497 26.2163 56.2497C27.0038 56.2497 27.7987 56.2066 28.5975 56.1184C37.9087 55.0891 45.4312 47.6828 46.6744 38.4316L46.6894 38.4334C46.7006 38.3509 46.7025 38.2703 46.7119 38.1878C46.7194 38.1203 46.7363 38.0528 46.7438 37.9853L46.7306 37.9834C47.64 29.7709 43.6838 21.8641 36.5419 17.7447C36.2663 17.5853 36.0862 17.3191 36.0506 17.0134C36.03 16.8447 36.0412 16.5222 36.33 16.2466L40.1325 12.6259C40.6631 12.0953 40.9556 11.3884 40.9556 10.6366C40.9556 9.88656 40.6631 9.17969 40.1325 8.64719L39.4687 7.98531C39.1144 7.63094 38.9194 7.16031 38.9194 6.65969C38.9194 6.15906 39.1144 5.68844 39.4687 5.33406C40.1775 4.62531 41.4113 4.62531 42.12 5.33406L50.0756 13.2897C50.43 13.6441 50.625 14.1147 50.625 14.6153C50.625 15.1159 50.43 15.5866 50.0756 15.9409C49.3444 16.6722 48.1556 16.6722 47.4244 15.9409L46.7606 15.2772C45.6637 14.1803 43.8787 14.1822 42.7819 15.2772L41.5237 16.5372C41.1581 16.9028 41.1581 17.4972 41.5237 17.8628C41.8894 18.2284 42.4838 18.2284 42.8494 17.8628L44.1075 16.6047C44.4731 16.2391 45.0675 16.2372 45.435 16.6047L46.0988 17.2684C47.5594 18.7309 49.9406 18.7309 51.4012 17.2684C52.11 16.5578 52.5 15.6166 52.5 14.6153C52.5 13.6122 52.11 12.6709 51.4012 11.9641Z" fill="#ED1C24"/>
<path d="M23.4375 11.25H29.0625C29.58 11.25 30 10.83 30 10.3125V7.5C30 5.43187 28.3181 3.75 26.25 3.75C24.1819 3.75 22.5 5.43187 22.5 7.5V10.3125C22.5 10.83 22.92 11.25 23.4375 11.25ZM24.375 7.5C24.375 6.46688 25.2169 5.625 26.25 5.625C27.2831 5.625 28.125 6.46688 28.125 7.5V9.375H24.375V7.5Z" fill="#ED1C24"/>
<path d="M51.4012 11.9641L43.4456 4.00844C42.03 2.59094 39.5588 2.59094 38.1431 4.00844C37.4344 4.71531 37.0444 5.65656 37.0444 6.65969C37.0444 7.66094 37.4344 8.60219 38.1431 9.31094L38.8069 9.97469C39.1725 10.3403 39.1725 10.9347 38.8237 11.2853L35.0363 14.8891C34.3931 15.5022 34.0837 16.3591 34.1869 17.2366C34.2956 18.1347 34.8113 18.9128 35.6025 19.3684C42.1463 23.1428 45.7538 30.4178 44.85 37.9516C43.8188 46.4659 36.9281 53.3097 28.3894 54.2547C22.9631 54.8603 17.7675 53.1991 13.7437 49.5953C9.77625 46.0403 7.5 40.9459 7.5 35.6228C7.5 26.0097 14.6981 17.9941 24.2438 16.9797C24.5306 16.9497 24.7912 17.0359 25.0012 17.2234C25.2019 17.4034 25.3125 17.6528 25.3125 17.9209V33.8491C25.3125 35.3997 26.5744 36.6616 28.125 36.6616H34.6875C35.205 36.6616 35.625 36.2416 35.625 35.7241C35.625 35.2066 35.205 34.7866 34.6875 34.7866H28.125C27.6075 34.7866 27.1875 34.3666 27.1875 33.8491V17.9209C27.1875 17.1259 26.8462 16.3628 26.2537 15.8284C25.6537 15.2903 24.8381 15.0316 24.045 15.1141C13.545 16.2316 5.625 25.0478 5.625 35.6228C5.625 41.4803 8.12813 47.0828 12.495 50.9922C16.3275 54.4234 21.1313 56.2497 26.2163 56.2497C27.0038 56.2497 27.7987 56.2066 28.5975 56.1184C37.9087 55.0891 45.4312 47.6828 46.6744 38.4316L46.6894 38.4334C46.7006 38.3509 46.7025 38.2703 46.7119 38.1878C46.7194 38.1203 46.7363 38.0528 46.7438 37.9853L46.7306 37.9834C47.64 29.7709 43.6838 21.8641 36.5419 17.7447C36.2663 17.5853 36.0862 17.3191 36.0506 17.0134C36.03 16.8447 36.0412 16.5222 36.33 16.2466L40.1325 12.6259C40.6631 12.0953 40.9556 11.3884 40.9556 10.6366C40.9556 9.88656 40.6631 9.17969 40.1325 8.64719L39.4687 7.98531C39.1144 7.63094 38.9194 7.16031 38.9194 6.65969C38.9194 6.15906 39.1144 5.68844 39.4687 5.33406C40.1775 4.62531 41.4113 4.62531 42.12 5.33406L50.0756 13.2897C50.43 13.6441 50.625 14.1147 50.625 14.6153C50.625 15.1159 50.43 15.5866 50.0756 15.9409C49.3444 16.6722 48.1556 16.6722 47.4244 15.9409L46.7606 15.2772C45.6637 14.1803 43.8787 14.1822 42.7819 15.2772L41.5237 16.5372C41.1581 16.9028 41.1581 17.4972 41.5237 17.8628C41.8894 18.2284 42.4838 18.2284 42.8494 17.8628L44.1075 16.6047C44.4731 16.2391 45.0675 16.2372 45.435 16.6047L46.0988 17.2684C47.5594 18.7309 49.9406 18.7309 51.4012 17.2684C52.11 16.5578 52.5 15.6166 52.5 14.6153C52.5 13.6122 52.11 12.6709 51.4012 11.9641Z" fill="#ED1C24"/>
</svg>
