<svg width="60" height="60" viewBox="0 0 60 60" fill="none" xmlns="http://www.w3.org/2000/svg">
<path d="M7.94349 28.5358C8.38428 28.9673 8.96628 29.2054 9.58395 29.2054C10.2016 29.2054 10.7865 28.9687 11.223 28.5358L12.0903 27.6841L14.0588 29.6172C12.7251 32.2871 13.2557 35.5188 15.4211 37.6452L24.893 46.9478C26.2396 48.2688 28.0313 49 29.9399 49C29.9499 49 29.9585 49 29.9699 49C29.9713 49 29.9742 49 29.9756 49C29.9856 49 29.9941 49 30.0055 49C31.9099 49 33.7016 48.2702 35.0496 46.9478L44.52 37.6452C46.6897 35.5146 47.2204 32.2871 45.8823 29.6172L47.8523 27.6841L48.7211 28.5358C49.159 28.9673 49.741 29.2054 50.3587 29.2054C50.9749 29.2054 51.5598 28.9687 51.9977 28.5358L56.2529 24.3531C57.163 23.4636 57.163 22.0193 56.2529 21.1298L46.5942 11.6451C45.724 10.7864 44.1877 10.7836 43.3147 11.6451L39.0523 15.8292C38.1494 16.7173 38.1494 18.163 39.0523 19.0511L40.3005 20.2768L38.4475 22.0978C35.7429 20.5205 32.3022 20.8819 29.977 23.0069C29.9228 22.9579 29.87 22.906 29.8172 22.8584C27.4735 20.8399 24.1298 20.5597 21.4866 22.0978L19.6321 20.2768L20.8789 19.0525C21.3197 18.621 21.5607 18.0509 21.5607 17.4415C21.5607 16.8322 21.3197 16.2607 20.8789 15.832L16.6194 11.6479C15.7421 10.785 14.2115 10.7878 13.337 11.6479L3.67829 21.1326C2.7739 22.0221 2.7739 23.4664 3.67829 24.3559L7.94349 28.5358ZM40.0666 16.8182L44.326 12.634C44.4915 12.4687 44.7141 12.3749 44.9537 12.3749C45.1934 12.3749 45.413 12.4659 45.5799 12.634L55.2387 22.1188C55.5867 22.4606 55.5867 23.0195 55.2387 23.3613L50.9792 27.5455C50.6425 27.8732 50.0562 27.8732 49.7139 27.5455L44.9951 22.9116L41.8069 19.7781C41.8069 19.7781 41.804 19.7781 41.804 19.7767L40.0523 18.0579C39.7199 17.7161 39.7199 17.1586 40.0666 16.8182ZM38.1337 23.5602C38.4147 23.7577 38.8055 23.7269 39.0538 23.4846L41.3162 21.2629L44.0136 23.9076L46.8409 26.6882L44.4972 28.9925C44.269 29.2166 44.2219 29.5668 44.3888 29.84C45.7126 32.042 45.3503 34.8464 43.5115 36.652L41.6443 38.4842C41.697 38.1369 41.7256 37.7839 41.7256 37.4281C41.7256 36.5343 41.5473 35.6715 41.2234 34.8646C41.212 34.838 41.2092 34.81 41.1963 34.7834C41.048 34.4304 40.8611 34.1012 40.6557 33.7706C40.6129 33.6991 40.5858 33.6249 40.5387 33.5577C40.272 33.171 39.9738 32.8026 39.6301 32.4678L33.8528 26.8002C33.8528 26.8002 33.8528 26.7988 33.8499 26.7988C33.576 26.5257 33.1196 26.5257 32.8414 26.7988L26.8074 32.727C25.3966 34.1082 23.1955 34.2567 21.6064 33.1668L30.4734 24.4637L30.7844 24.1555C32.7658 22.2224 35.8556 21.9703 38.1337 23.5602ZM18.6279 21.2671L20.8903 23.4888C21.1371 23.7311 21.5251 23.7605 21.8104 23.5644C23.9786 22.0473 26.8858 22.193 28.8786 23.9104C28.9071 23.9342 28.9314 23.9594 28.9585 23.9832L20.0515 32.7312C19.7733 33.0016 19.7733 33.4484 20.0515 33.7216C21.1228 34.775 22.5279 35.3002 23.9401 35.3002C25.3452 35.3002 26.7546 34.775 27.8259 33.7216L33.3621 28.2879L38.6315 33.4624C38.9054 33.7328 39.145 34.0255 39.359 34.3379C39.3975 34.3953 39.4218 34.4612 39.456 34.5186C39.6129 34.7792 39.7713 35.0411 39.8854 35.3143C39.894 35.3423 39.9011 35.3689 39.9096 35.3969C40.426 36.7052 40.426 38.1635 39.9096 39.4676C39.9011 39.4928 39.894 39.5194 39.8854 39.5475C39.7713 39.8234 39.6172 40.0896 39.456 40.3459C39.4218 40.4061 39.3975 40.4692 39.359 40.5266C39.1508 40.8362 38.9097 41.1289 38.6315 41.4021L33.9926 45.9575C32.9199 47.0081 31.4934 47.5936 29.9784 47.5992C29.967 47.5992 29.9585 47.5992 29.9485 47.5992C28.4236 47.5992 26.99 47.0165 25.9101 45.9575L16.4382 36.6576C14.5981 34.8492 14.2372 32.0476 15.5624 29.8456C15.7264 29.571 15.6822 29.2208 15.4525 28.9967L13.1088 26.6952L15.939 23.9146L18.6279 21.2671ZM4.69253 22.1174L14.3513 12.6326C14.5196 12.4673 14.7421 12.3735 14.9818 12.3735C15.22 12.3735 15.444 12.4645 15.6109 12.6326L19.8718 16.8154C20.0387 16.9821 20.1357 17.202 20.1357 17.4359C20.1357 17.6699 20.0444 17.8912 19.8718 18.0565L14.9304 22.9102L11.5853 26.1937C11.5853 26.1937 11.5853 26.1951 11.5839 26.1951L10.213 27.5413C9.87638 27.8704 9.28724 27.8704 8.94631 27.5413L4.68682 23.3585C4.34019 23.0195 4.34019 22.4606 4.69253 22.1174Z" fill="white"/>
<path d="M9.13068 25.7099C9.78791 25.7099 10.4029 25.4539 10.8627 24.9874C11.8199 24.0257 11.8199 22.4643 10.8627 21.5041C9.93714 20.5742 8.31969 20.5742 7.39414 21.5041C6.43844 22.4643 6.43844 24.0257 7.39414 24.9874C7.86445 25.4539 8.47797 25.7099 9.13068 25.7099ZM8.4644 22.5733C8.64228 22.3961 8.87894 22.2946 9.13068 22.2946C9.38241 22.2946 9.62059 22.3931 9.79846 22.5733C10.1648 22.9429 10.1648 23.5471 9.79846 23.9167C9.44271 24.2726 8.81864 24.2726 8.45988 23.9167C8.09659 23.5456 8.0966 22.9444 8.4644 22.5733Z" fill="white"/>
<path d="M50.8087 25.7099C51.4655 25.7099 52.0801 25.4539 52.5395 24.9874C53.4976 24.0257 53.4976 22.4643 52.5395 21.5041C51.6146 20.5742 49.9968 20.5742 49.0734 21.5041C48.1153 22.4643 48.1153 24.0257 49.0734 24.9874C49.5389 25.4539 50.155 25.7099 50.8087 25.7099ZM50.1429 22.5733C50.3192 22.3961 50.5572 22.2946 50.8072 22.2946C51.0603 22.2946 51.2968 22.3931 51.473 22.5733C51.8406 22.9429 51.8406 23.5471 51.473 23.9167C51.119 24.2726 50.4954 24.2726 50.1354 23.9167C49.7754 23.5456 49.7754 22.9444 50.1429 22.5733Z" fill="white"/>
</svg>
