<svg width="60" height="60" viewBox="0 0 60 60" fill="none" xmlns="http://www.w3.org/2000/svg">
<path d="M41 18C41 18 40.4 18 40.2 18.4L29.4 29.4L28.2 30C27.8 30 27.4 30 27 29.4L22 24.4C20.8 23.4 19.4 24.8 20.4 25.8L25.2 30.6C26 31.4 27.2 31.8 28 31.8C29 31.8 30 31.4 30.8 30.6L42 20C42.4 19.2 42 18 41 18ZM3 2C1.4 2 0 3.4 0 5V43C0 44.6 1.4 46 3 46H10V55C10 55.6 10 56.2 10.4 57C10.4 57.4 11.2 57.8 11.6 58C12.8 58 13.6 57.6 14.8 56.6L25.4 46H57C58.6 46 60 44.6 60 43V5C60 3.4 58.6 2 57 2H3ZM3 4H57C57.6 4 58 4.4 58 5V43C58 43.6 57.6 44 57 44H24.2L13.4 55.4C12.4 56.4 12.2 55.4 12.2 55V45C12.2 44.4 11.8 44 11.2 44H3.2C2.6 44 2.2 43.6 2.2 43V5C2.2 4.4 2.6 4 3.2 4H3Z" fill="#ED1C24"/>
</svg>
