<svg width="60" height="60" viewBox="0 0 60 60" fill="none" xmlns="http://www.w3.org/2000/svg">
<g clip-path="url(#clip0_610_5805)">
<path d="M46.4519 30C53.5698 28.7782 59.0078 22.5777 59.0078 15.1169C59.0078 6.7813 52.2265 0 43.8909 0C37.787 0 32.3356 3.77351 30 9.21247C27.6634 3.77351 22.2119 0 16.1091 0C7.77349 0 0.992188 6.7813 0.992188 15.1169C0.992188 22.5777 6.43011 28.7782 13.548 30C6.43115 31.2218 0.992188 37.4223 0.992188 44.8831C0.992188 53.2187 7.77349 60 16.1091 60C22.213 60 27.6634 56.2265 30 50.7875C32.3366 56.2265 37.787 60 43.8909 60C52.2265 60 59.0078 53.2187 59.0078 44.8831C59.0078 37.4223 53.5688 31.2218 46.4519 30ZM43.8909 36C48.7885 36 52.774 39.9844 52.774 44.8831C52.774 49.7808 48.7896 53.7662 43.8909 53.7662C38.9922 53.7662 35.0078 49.7818 35.0078 44.8831C35.0078 39.9844 38.9922 36 43.8909 36ZM31.4047 38.7605C31.1626 38.8 30.9174 38.8301 30.6691 38.8478L30.6441 38.8499C30.4301 38.8655 30.2171 38.8821 30 38.8821C29.7766 38.8821 29.5584 38.8644 29.3402 38.8488L29.3309 38.8478C29.0815 38.8291 28.8363 38.799 28.5932 38.7595C28.5797 38.7574 28.5662 38.7553 28.5527 38.7532C24.7906 38.1288 21.7652 35.0909 21.2176 31.2655L21.1595 30.8592C21.1324 30.5756 21.1158 30.2888 21.1158 29.999C21.1158 29.7091 21.1324 29.4223 21.1595 29.1387L21.2176 28.7325C21.7652 24.907 24.7906 21.8691 28.5527 21.2447C28.5662 21.2426 28.5797 21.2405 28.5932 21.2384C28.8363 21.199 29.0826 21.1688 29.3309 21.1501L29.3548 21.1481C29.5688 21.1325 29.7818 21.1158 30 21.1158C30.2234 21.1158 30.4415 21.1335 30.6608 21.1491L30.6691 21.1501C30.9174 21.1688 31.1626 21.199 31.4047 21.2374C31.4192 21.2395 31.4337 21.2416 31.4483 21.2436C35.2093 21.8681 38.2337 24.906 38.7813 28.7314L38.8395 29.1377C38.8665 29.4213 38.8831 29.7081 38.8831 29.9979C38.8831 30.2878 38.8665 30.5745 38.8395 30.8582L38.7813 31.2644C38.2337 35.0899 35.2093 38.1278 31.4483 38.7522C31.4337 38.7564 31.4192 38.7584 31.4047 38.7605ZM24.9922 44.8831C24.9922 49.7808 21.0078 53.7662 16.1091 53.7662C11.2104 53.7662 7.22595 49.7818 7.22595 44.8831C7.22595 39.9844 11.2104 36 16.1091 36C21.0078 36 24.9922 39.9844 24.9922 44.8831ZM16.1091 24C11.2114 24 7.22595 20.0156 7.22595 15.1169C7.22595 10.2192 11.2104 6.23377 16.1091 6.23377C21.0078 6.23377 24.9922 10.2182 24.9922 15.1169C24.9922 20.0156 21.0067 24 16.1091 24ZM35.0078 15.1169C35.0078 10.2192 38.9922 6.23377 43.8909 6.23377C48.7885 6.23377 52.774 10.2182 52.774 15.1169C52.774 20.0156 48.7896 24 43.8909 24C38.9922 24 35.0078 20.0156 35.0078 15.1169ZM31.0265 13.0951C32.0104 6.81455 37.5408 2.07792 43.8909 2.07792C51.0805 2.07792 56.9298 7.92727 56.9298 15.1169C56.9298 22.3065 51.0805 28.1558 43.8909 28.1558C42.827 28.1558 41.7662 28.0239 40.7293 27.7631C40.5506 26.9029 40.2608 26.0852 39.8919 25.3122C41.1324 25.8005 42.4779 26.0779 43.8898 26.0779C49.9335 26.0779 54.8509 21.1605 54.8509 15.1169C54.8509 9.07325 49.9356 4.15584 43.8909 4.15584C37.8462 4.15584 32.9299 9.07221 32.9299 15.1169C32.9299 16.7958 33.3205 18.3813 33.9979 19.8047C33.2384 19.5055 32.4384 19.2935 31.6083 19.1709C31.575 19.1657 31.5428 19.1574 31.5096 19.1532C31.3018 18.5101 31.1397 17.8327 31.0265 17.1294L30.7065 15.1397L31.0265 13.0951ZM3.07011 15.1169C3.07011 7.92727 8.91946 2.07792 16.1091 2.07792C22.4582 2.07792 27.9896 6.81455 28.9735 13.0951L29.2945 15.1429L28.9735 17.1294C28.8602 17.8327 28.6982 18.5112 28.4904 19.1532C28.4561 19.1584 28.4228 19.1668 28.3886 19.1719C27.5595 19.2945 26.7595 19.5075 26.001 19.8057C26.6784 18.3823 27.0691 16.7969 27.0691 15.1179C27.0701 9.07221 22.1527 4.15584 16.1091 4.15584C10.0654 4.15584 5.14803 9.07221 5.14803 15.1169C5.14803 21.1616 10.0654 26.0779 16.1091 26.0779C17.521 26.0779 18.8665 25.8005 20.107 25.3122C19.7392 26.0862 19.4493 26.9029 19.2696 27.7631C18.2327 28.0239 17.173 28.1558 16.1091 28.1558C8.91946 28.1558 3.07011 22.3065 3.07011 15.1169ZM28.9735 46.9049C27.9886 53.1855 22.4582 57.9221 16.1091 57.9221C8.91946 57.9221 3.07011 52.0727 3.07011 44.8831C3.07011 37.6935 8.91946 31.8442 16.1091 31.8442C17.173 31.8442 18.2337 31.9761 19.2696 32.2369C19.4483 33.0971 19.7382 33.9138 20.107 34.6878C18.8665 34.1995 17.521 33.9221 16.1091 33.9221C10.0654 33.9221 5.14803 38.8395 5.14803 44.8831C5.14803 50.9268 10.0644 55.8442 16.1091 55.8442C22.1537 55.8442 27.0701 50.9278 27.0701 44.8831C27.0701 43.2042 26.6795 41.6187 26.0021 40.1953C26.7605 40.4935 27.5595 40.7065 28.3896 40.8291C28.4239 40.8343 28.4571 40.8426 28.4914 40.8478C28.6992 41.4909 28.8613 42.1683 28.9745 42.8717L29.2956 44.8582L28.9735 46.9049ZM43.8909 57.9221C37.5408 57.9221 32.0104 53.1855 31.0265 46.9049L30.7065 44.8603L31.0265 42.8707C31.1397 42.1683 31.3018 41.4899 31.5096 40.8468C31.5428 40.8416 31.575 40.8343 31.6083 40.8291C32.4384 40.7065 33.2395 40.4935 33.9979 40.1953C33.3205 41.6187 32.9299 43.2042 32.9299 44.8831C32.9299 50.9268 37.8473 55.8442 43.8909 55.8442C49.9345 55.8442 54.8519 50.9278 54.8519 44.8831C54.8519 38.8384 49.9356 33.9221 43.8909 33.9221C42.4789 33.9221 41.1335 34.1995 39.893 34.6878C40.2608 33.9138 40.5506 33.0971 40.7304 32.2369C41.7673 31.9761 42.827 31.8442 43.8919 31.8442C51.0815 31.8442 56.9309 37.6935 56.9309 44.8831C56.9299 52.0727 51.0805 57.9221 43.8909 57.9221Z" fill="#ED1C24"/>
</g>
<defs>
<clipPath id="clip0_610_5805">
<rect width="60" height="60" fill="white"/>
</clipPath>
</defs>
</svg>
