<svg width="60" height="60" viewBox="0 0 60 60" fill="none" xmlns="http://www.w3.org/2000/svg">
<path d="M4.86035 17.1133H55.1406C57.2714 17.1133 59 18.8422 59 20.9736V26.7842L36.0713 31.623V28.543H23.7861V31.623L1 26.8174V20.9736C1 18.8423 2.72848 17.1133 4.86035 17.1133Z" stroke="#ED1C24" stroke-width="2"/>
<path d="M57.2861 51.54C57.286 53.6712 55.5575 55.3994 53.4268 55.3994H6.57324C4.44274 55.3994 2.71501 53.6714 2.71484 51.54V33.21L23.7861 37.3955V44.2568H36.0723V37.3945L57.2861 33.1768V51.54Z" stroke="#ED1C24" stroke-width="2"/>
<path d="M32.5001 32.1143H27.3577V40.6844H32.5001V32.1143Z" fill="#ED1C24"/>
<path d="M22.7093 8.46137C22.7103 8.2618 22.7841 8.10313 22.9144 7.96824C23.0465 7.83899 23.2062 7.76692 23.4038 7.76504H36.5964C36.794 7.76692 36.9548 7.83899 37.0868 7.96824C37.2161 8.10313 37.2891 8.2618 37.2899 8.46137V11.9333H41.4555V8.46137C41.4564 7.12426 40.9088 5.89789 40.0325 5.02438C39.1599 4.14723 37.9308 3.59867 36.5964 3.59961H23.4038C22.0686 3.59867 20.8403 4.14723 19.9679 5.02438C19.0925 5.89789 18.5431 7.12414 18.5458 8.46137V11.9333H22.7093V8.46137Z" fill="#ED1C24"/>
</svg>
