<svg width="60" height="60" viewBox="0 0 60 60" fill="none" xmlns="http://www.w3.org/2000/svg">
<path d="M38.4201 39.5633C43.1481 36.6246 45.9708 31.5509 45.9708 25.9913C45.9708 20.3015 42.9063 14.9979 37.9732 12.1503C37.5239 11.8908 36.9492 12.0449 36.69 12.4942C36.4305 12.9435 36.5845 13.5181 37.0339 13.7776C38.3686 14.5481 39.5474 15.5228 40.5416 16.6481L40.1869 17.5349L38.5159 20.0415H36.0124C35.3825 20.0415 34.9215 20.6792 35.1212 21.278L35.9779 23.8484L35.0103 25.2998L33.7878 23.466C33.6136 23.2047 33.3204 23.0477 33.0062 23.0477H29.5786L28.0779 20.0463L29.7797 17.4937C30.0888 17.0301 29.9155 16.381 29.4181 16.1323L25.442 14.1441L23.9764 13.2647C25.7487 12.4175 27.7213 11.9297 29.7985 11.9008C31.1424 11.8816 32.4763 12.0521 33.7585 12.4059C34.2583 12.544 34.776 12.2503 34.9141 11.7502C35.0523 11.2501 34.7587 10.7327 34.2585 10.5946C32.805 10.1934 31.2951 10.0019 29.7725 10.0219C21.1069 10.1428 14.0446 17.2935 14.0292 25.9624C14.0195 31.5487 16.8535 36.6404 21.6108 39.5822C22.4974 40.1306 23.0479 41.1261 23.0479 42.1805V44.0913H21.9832C21.4643 44.0913 21.0437 44.5119 21.0437 45.0308V53.0474C21.0437 56.8808 24.1623 59.9995 27.9957 59.9995H32.0041C35.8374 59.9995 38.9562 56.8809 38.9562 53.0474V45.0308C38.9562 44.512 38.5357 44.0913 38.0167 44.0913H36.9519V42.1564C36.952 41.1042 37.5009 40.1347 38.4201 39.5633ZM40.1329 35.7904L39.9401 34.8257C39.916 34.7055 39.8687 34.591 39.8005 34.4889L38.1773 32.0542L41.5242 27.8708L44.0094 27.5158C43.6734 30.6597 42.3058 33.5538 40.1329 35.7904ZM22.9317 38.2128C22.824 38.1329 22.7138 38.0556 22.599 37.9845C18.4006 35.3881 15.8994 30.8951 15.9081 25.9659C15.9082 25.8919 15.9099 25.8183 15.9113 25.7446L17.4538 26.7729C17.6081 26.8758 17.7895 26.9308 17.9749 26.9308H20.5921L23.3231 29.6619C23.4994 29.8381 23.7382 29.937 23.9874 29.937H27.4151L28.4798 32.0664H23.9873C23.3021 32.0664 22.8398 32.812 23.1471 33.426L23.975 35.0822L22.9317 38.2128ZM37.0773 52.1083H22.9228V49.9789H37.0773V52.1083ZM37.0773 45.9705V48.0999H22.9228V45.9705H37.0773ZM35.073 42.1566V44.0915H24.9269V42.1808C24.9269 41.3692 24.7217 40.5796 24.3531 39.8785C24.3587 39.864 24.3662 39.8508 24.3712 39.8357L25.8807 35.307C26.0429 34.8201 25.7167 34.3636 25.5076 33.9452H30C30.6852 33.9452 31.1475 33.1996 30.8402 32.5856L28.8361 28.5772C28.6768 28.2589 28.3517 28.0578 27.9958 28.0578H24.3765L21.6454 25.3267C21.4692 25.1505 21.2304 25.0516 20.9811 25.0516H18.2593L16.111 23.6194C16.7713 19.7841 19.0019 16.4567 22.1121 14.3372L24.5062 15.7737C24.5267 15.7861 24.5479 15.7976 24.5694 15.8084L27.6259 17.3368L26.2121 19.4575C26.0251 19.7379 26.0027 20.0972 26.1535 20.3988L28.1577 24.4072C28.3169 24.7254 28.642 24.9265 28.9979 24.9265H32.5035L34.2287 27.5144C34.5941 28.0625 35.4266 28.0627 35.792 27.5144L37.7961 24.5082C37.9569 24.2669 37.9973 23.965 37.9057 23.69L37.3159 21.9203H39.0188C39.333 21.9203 39.6263 21.7634 39.8005 21.502L41.8046 18.4958C41.8255 18.4644 41.844 18.4314 41.861 18.3977C43.2234 20.5276 44.014 23.0147 44.0853 25.6069L40.8901 26.0634C40.6535 26.0972 40.4387 26.2199 40.2894 26.4066L36.281 31.4171C36.0254 31.7365 36.0061 32.1847 36.2329 32.525L38.1341 35.3766L38.5045 37.2283C38.1594 37.4888 37.8009 37.736 37.4285 37.9675C35.9535 38.8844 35.073 40.4504 35.073 42.1566Z" fill="#ED1C24"/>
<path d="M30 0C29.4811 0 29.0605 0.420586 29.0605 0.939492V5.94996C29.0605 6.46875 29.481 6.88945 30 6.88945C30.5189 6.88945 30.9395 6.46887 30.9395 5.94996V0.939492C30.9395 0.420586 30.5189 0 30 0Z" fill="#ED1C24"/>
<path d="M20.2917 8.29939L17.7865 3.96017C17.5272 3.51076 16.9522 3.35678 16.5032 3.61635C16.0539 3.8758 15.8999 4.45037 16.1594 4.89967L18.6645 9.23888C18.9406 9.71724 19.5899 9.85318 20.0356 9.52553C20.4161 9.24557 20.5276 8.70814 20.2917 8.29939Z" fill="#ED1C24"/>
<path d="M12.2453 15.6586L7.90606 13.1534C7.45641 12.894 6.88207 13.0478 6.62274 13.4972C6.36329 13.9465 6.51727 14.5211 6.96657 14.7806L11.3058 17.2858C11.7852 17.5625 12.4147 17.3541 12.6364 16.8483C12.8261 16.4158 12.6539 15.8945 12.2453 15.6586Z" fill="#ED1C24"/>
<path d="M8.95619 26.0547H3.94572C3.42681 26.0547 3.00623 26.4753 3.00623 26.9942C3.00623 27.5131 3.42669 27.9337 3.94572 27.9337H8.95619C9.47509 27.9337 9.89568 27.5131 9.89568 26.9942C9.89568 26.4753 9.47509 26.0547 8.95619 26.0547Z" fill="#ED1C24"/>
<path d="M12.5891 37.0462C12.3295 36.5968 11.755 36.4427 11.3058 36.7023L6.96656 39.2075C6.55781 39.4435 6.38578 39.9646 6.57539 40.3973C6.79699 40.9028 7.42676 41.1115 7.90606 40.8348L12.2453 38.3295C12.6946 38.0701 12.8486 37.4955 12.5891 37.0462Z" fill="#ED1C24"/>
<path d="M53.0334 39.2075L48.6941 36.7023C48.2445 36.4427 47.6702 36.5967 47.4108 37.0461C47.1514 37.4954 47.3054 38.07 47.7547 38.3294L52.0939 40.8347C52.5733 41.1113 53.2028 40.903 53.4245 40.3972C53.6143 39.9647 53.442 39.4434 53.0334 39.2075Z" fill="#ED1C24"/>
<path d="M56.0543 26.0547H51.0439C50.525 26.0547 50.1044 26.4753 50.1044 26.9942C50.1044 27.5131 50.5248 27.9337 51.0439 27.9337H56.0543C56.5732 27.9337 56.9938 27.5131 56.9938 26.9942C56.9938 26.4753 56.5732 26.0547 56.0543 26.0547Z" fill="#ED1C24"/>
<path d="M53.3772 13.4972C53.1176 13.0478 52.5429 12.894 52.0938 13.1534L47.7546 15.6586C47.3858 15.8716 47.2016 16.3307 47.3236 16.739C47.4404 17.1302 47.8167 17.4118 48.2252 17.4118C48.3846 17.4118 48.5463 17.3712 48.6941 17.2858L53.0333 14.7806C53.4826 14.5211 53.6366 13.9465 53.3772 13.4972Z" fill="#ED1C24"/>
<path d="M43.4969 3.61637C43.0472 3.35669 42.4729 3.5109 42.2135 3.9602L39.7083 8.29942C39.4489 8.74872 39.6028 9.32329 40.0521 9.58274C40.4959 9.83903 41.0796 9.68211 41.3355 9.23891L43.8407 4.89969C44.1001 4.4504 43.9462 3.87583 43.4969 3.61637Z" fill="#ED1C24"/>
</svg>
