<svg width="60" height="60" viewBox="0 0 60 60" fill="none" xmlns="http://www.w3.org/2000/svg">
<path d="M29.028 44.7959L29.2428 44.8203L28.818 42.915C29.208 42.732 29.8319 42.5265 30.4977 42.3242C31.184 42.1157 31.9852 41.8905 32.7682 41.6729C33.5564 41.4538 34.324 41.2427 34.9615 41.0576C35.622 40.8658 36.0671 40.7222 36.2535 40.6406C38.7521 39.5409 39.7281 37.9301 39.9078 36.7822C39.9998 36.1942 39.8858 35.7546 39.7213 35.5C39.5744 35.2727 39.3716 35.1536 39.0807 35.1582H39.0797C37.4431 35.1844 36.1426 35.3965 34.3551 35.7305C32.5629 36.0653 30.3098 36.5168 26.8385 36.9902L25.8317 37.1143C23.4614 37.3804 20.9584 37.4865 18.7457 37.6289C16.1447 37.7963 14.0219 38.0126 12.7096 38.5137C11.8769 38.8319 10.7989 39.6687 9.59631 40.8838C8.41949 42.0729 7.21502 43.528 6.12561 44.9531C5.03868 46.375 4.07919 47.7506 3.39026 48.7715C3.12684 49.1618 2.90426 49.5005 2.72913 49.7686L11.858 58.6162C11.9717 58.5107 12.0959 58.3936 12.2321 58.2695C12.8961 57.6646 13.8178 56.8556 14.8424 56.0439C15.8631 55.2354 17.007 54.4076 18.1139 53.7773C19.1823 53.1691 20.3669 52.6553 21.4274 52.6553C28.5396 52.6553 28.804 52.5611 35.4362 52.2002H35.4371C36.8487 52.1247 37.651 52.0598 38.2916 51.9541C38.9128 51.8515 39.4034 51.7069 40.194 51.4404L40.9772 51.1631C44.9041 49.7073 48.9398 47.2807 52.0953 45.042C53.7728 43.8519 55.1828 42.7278 56.1764 41.8525C56.6747 41.4135 57.0564 41.0477 57.3112 40.7744C57.422 40.6555 57.4979 40.5642 57.5465 40.501C57.5754 40.2264 57.5266 40.0233 57.4479 39.8652C57.3518 39.6727 57.1802 39.4836 56.9156 39.3145C56.3658 38.963 55.5504 38.7862 54.8239 38.8301L54.8248 38.8311C53.3832 38.9201 51.6081 39.706 49.527 40.8252C47.5292 41.8995 45.2571 43.2782 43.0768 44.2656C40.2211 45.5588 36.6614 45.6601 33.9186 45.4766C32.5289 45.3836 31.3096 45.2144 30.4371 45.0684C30.0005 44.9953 29.6489 44.9276 29.4049 44.8779C29.283 44.8531 29.1875 44.8328 29.1217 44.8184C29.0888 44.8112 29.0633 44.8048 29.0455 44.8008C29.0383 44.7991 29.0325 44.7969 29.028 44.7959ZM29.028 44.7959C29.027 44.7957 29.0259 44.7961 29.025 44.7959L29.0192 44.7949L29.0211 44.7959C29.0221 44.7961 29.0246 44.7953 29.028 44.7959Z" stroke="#ED1C24" stroke-width="2"/>
<path d="M32.6331 19.4237L33.8028 19.6334C33.8137 19.6351 33.8241 19.6349 33.8349 19.636C33.8827 20.3539 34.0097 21.0511 34.2104 21.7148C34.1959 21.7212 34.182 21.7258 34.1685 21.7353L33.1395 22.3368C32.9633 22.4407 32.8348 22.6104 32.782 22.8089C32.7297 23.0094 32.7573 23.2219 32.8592 23.3991L34.2338 25.8152C34.376 26.0646 34.6341 26.2056 34.8989 26.2056C35.0286 26.2056 35.1607 26.1721 35.2817 26.0996L36.3105 25.498C36.3344 25.4847 36.3559 25.467 36.3767 25.4497C36.8533 25.9544 37.3835 26.4022 37.9598 26.7884C37.9466 26.8133 37.9325 26.84 37.9219 26.869L37.5158 28.0025C37.4457 28.196 37.4554 28.4102 37.5409 28.5971C37.6273 28.784 37.7827 28.9272 37.9741 28.9995L40.5582 29.9539C40.6454 29.9853 40.7334 30 40.8209 30C41.1343 30 41.4282 29.8044 41.5411 29.4878L41.9473 28.3555C41.959 28.324 41.9658 28.2921 41.973 28.2603C42.31 28.2979 42.6526 28.32 42.9991 28.32C43.3467 28.32 43.6887 28.2979 44.0256 28.2602C44.0329 28.2919 44.0397 28.3238 44.0509 28.3553L44.4572 29.4878C44.5271 29.6824 44.6696 29.8401 44.854 29.9277C44.9567 29.9749 45.0668 29.9998 45.1785 29.9998C45.2668 29.9998 45.3561 29.9835 45.4405 29.9541L48.025 28.9995C48.4233 28.8518 48.6283 28.4064 48.4838 28.0025L48.0773 26.869C48.0663 26.84 48.0532 26.8133 48.0394 26.7883C48.6152 26.402 49.146 25.9541 49.622 25.4495C49.6441 25.4668 49.6641 25.4846 49.6884 25.4979L50.7175 26.0996C50.8351 26.1704 50.9674 26.2055 51.1011 26.2055C51.1675 26.2055 51.2347 26.1953 51.2996 26.1787C51.4954 26.1244 51.6638 25.9946 51.7649 25.8152L53.1402 23.3991C53.3518 23.0269 53.2263 22.552 52.8594 22.3369L51.8306 21.7353C51.8168 21.7258 51.8024 21.7211 51.7895 21.7147C51.9887 21.0511 52.116 20.3537 52.1637 19.636C52.1743 19.6346 52.1849 19.635 52.1961 19.6333L53.366 19.4237C53.5666 19.3881 53.7449 19.2729 53.8616 19.1045C53.9779 18.9363 54.0234 18.7269 53.9886 18.5226L53.5103 15.7765C53.4753 15.5721 53.3619 15.3912 53.1954 15.2746C53.0283 15.156 52.8227 15.1086 52.6221 15.1441L51.4544 15.3533C51.1764 14.6922 50.8229 14.0703 50.4081 13.4958L51.164 12.5835C51.2952 12.4257 51.3585 12.2206 51.3405 12.0162C51.3226 11.8099 51.2256 11.6204 51.069 11.4881L48.9628 9.69441C48.8066 9.56237 48.6055 9.49743 48.4026 9.51483C48.2 9.53383 48.0125 9.63231 47.8818 9.79016L47.1416 10.6859C46.5131 10.361 45.8434 10.1089 45.1418 9.93949V8.77777C45.1418 8.34948 44.7986 8 44.3753 8H41.6251C41.2011 8 40.8575 8.34959 40.8575 8.77777V9.9396C40.1567 10.1089 39.4868 10.3611 38.8581 10.686L38.1172 9.79039C37.9866 9.63254 37.7994 9.53405 37.5967 9.51506C37.3944 9.49766 37.1927 9.5626 37.0373 9.69463L34.93 11.4883C34.6056 11.7645 34.5631 12.2537 34.8355 12.5836L35.591 13.4958C35.1759 14.0703 34.8237 14.6923 34.5447 15.3533L33.3773 15.1442C33.1777 15.1087 32.971 15.156 32.8048 15.2746C32.638 15.3912 32.5245 15.5721 32.4892 15.7765L32.0121 18.5226C31.9374 18.9465 32.2162 19.3501 32.6331 19.4237ZM36.9747 19.0724C36.9747 15.7017 39.6773 12.961 42.9991 12.961C46.3214 12.961 49.0243 15.7018 49.0243 19.0724C49.0243 22.4429 46.3214 25.1836 42.9991 25.1836C39.6772 25.1835 36.9747 22.4428 36.9747 19.0724Z" fill="#ED1C24"/>
</svg>
