<svg width="60" height="60" viewBox="0 0 60 60" fill="none" xmlns="http://www.w3.org/2000/svg">
<g clip-path="url(#clip0_610_6099)">
<path d="M14.1447 52.7193C14.4473 51.8706 15.2509 51.3037 16.152 51.3037H48.4381C49.4682 51.3037 50.3509 52.0407 50.5347 53.0544L51.499 58.3742C51.543 58.6175 51.5339 58.8708 51.4491 59.1029C51.246 59.6583 50.7307 59.9999 50.1751 59.9999H13.4976C13.2223 59.9999 12.9469 59.9302 12.719 59.7759C12.1841 59.4134 11.9921 58.7613 12.194 58.1948L14.1447 52.7193Z" fill="#ED1C24"/>
<path d="M18.4659 1.01367C18.3721 0.986986 18.2718 1.00086 18.1896 1.05078L18.1134 1.11328C18.0462 1.18598 18.0141 1.28268 18.0216 1.37891L18.0421 1.47363L20.045 6.88867L20.2218 7.36621L19.9386 7.79004L9.5343 23.3975C9.48182 23.4761 9.46357 23.5713 9.48157 23.6611L9.51184 23.749L10.3937 25.5127C10.8982 26.5215 11.8135 27.2663 12.9034 27.5557C13.9934 27.845 15.1569 27.6518 16.0948 27.0264L19.9034 24.4873L20.5236 24.0732L21.0968 24.5488C21.9961 25.2945 22.9817 25.684 24.0568 25.7402C24.8175 25.78 25.5545 25.6408 26.2267 25.4111L28.2286 24.7266L27.4874 26.708C25.3591 32.39 19.906 41.4233 17.6212 44.9746C17.5315 45.1141 17.5511 45.297 17.6681 45.4141L19.8546 47.6006H46.5284C47.5485 44.7961 48.819 40.229 49.0948 34.3477C48.5861 34.5701 47.9871 34.7614 47.3497 34.8418C46.2179 34.9845 44.8738 34.7877 43.7931 33.707C43.4026 33.3165 43.4026 32.6835 43.7931 32.293C44.1836 31.9025 44.8166 31.9025 45.2072 32.293C45.7263 32.8121 46.3818 32.948 47.0997 32.8574C47.8404 32.764 48.5458 32.4344 48.9454 32.168C49.0109 32.1243 49.0799 32.0899 49.1505 32.0635C49.1517 30.8013 49.1036 29.4873 48.9991 28.125C48.4378 28.3832 47.7044 28.6231 46.9025 28.709C45.8154 28.8254 44.5172 28.6666 43.3868 27.79C42.9507 27.4515 42.8717 26.823 43.2101 26.3867C43.5486 25.9507 44.1761 25.8718 44.6124 26.21C45.2161 26.6781 45.9463 26.7993 46.6896 26.7197C47.4442 26.6389 48.1243 26.3563 48.4894 26.1396C48.5863 26.0821 48.6896 26.0445 48.7941 26.0225C48.6585 24.8697 48.4809 23.6862 48.255 22.4736C47.8239 22.7585 47.314 23.026 46.7511 23.2119C45.6606 23.572 44.3003 23.6463 42.9855 22.8574C42.5119 22.5733 42.3586 21.9589 42.6427 21.4854C42.9269 21.0119 43.5413 20.8585 44.0148 21.1426C44.6999 21.5536 45.4231 21.544 46.1241 21.3125C46.8463 21.074 47.4664 20.6196 47.7931 20.293C47.795 20.291 47.797 20.289 47.799 20.2871C47.5043 19.0414 47.1545 17.8912 46.754 16.8311C46.5001 17.0927 46.1833 17.3505 45.7931 17.5645C44.9246 18.0407 43.7656 18.2728 42.3038 17.9805C41.7623 17.8721 41.4113 17.3452 41.5197 16.8037C41.6281 16.2623 42.1549 15.9112 42.6964 16.0195C43.7343 16.227 44.4091 16.0426 44.8322 15.8105C45.2763 15.5669 45.5174 15.2292 45.6056 15.0527C45.6673 14.9294 45.7511 14.8246 45.8497 14.7402C43.3368 9.61498 39.6603 6.9828 36.6876 5.62109C32.8815 3.87754 29.4476 3.80947 28.5675 3.8252L28.42 3.82812L28.2775 3.78809L18.4669 1.01367H18.4659Z" stroke="#ED1C24" stroke-width="2" stroke-linecap="round"/>
</g>
<defs>
<clipPath id="clip0_610_6099">
<rect width="60" height="60" fill="white" transform="matrix(-1 0 0 1 60 0)"/>
</clipPath>
</defs>
</svg>
