<svg width="60" height="60" viewBox="0 0 60 60" fill="none" xmlns="http://www.w3.org/2000/svg">
<path d="M29.6491 35.0004H13.75C12.7284 35.0004 12.1382 33.8414 12.7391 33.0152L32.7391 5.51517C33.5473 4.40396 35.296 5.22057 34.9627 6.55355L30.351 25.0004H46.25C47.2716 25.0004 47.8618 26.1594 47.261 26.9856L27.261 54.4856C26.4528 55.5968 24.7041 54.7802 25.0374 53.4472L29.6491 35.0004ZM30.977 12.1885L16.2047 32.5004H31.25C32.0632 32.5004 32.6599 33.2646 32.4627 34.0536L29.023 47.8123L43.7953 27.5004H28.75C27.9368 27.5004 27.3401 26.7361 27.5374 25.9472L30.977 12.1885Z" fill="white"/>
</svg>
