<svg width="60" height="60" viewBox="0 0 60 60" fill="none" xmlns="http://www.w3.org/2000/svg">
<path d="M56.2968 14.0252C56.1193 13.8156 55.8981 13.6474 55.6487 13.5325C55.3993 13.4175 55.1277 13.3584 54.8531 13.3595L9.00012 13.3595C8.56647 13.354 8.1447 13.5013 7.80874 13.7755C7.47277 14.0498 7.24404 14.4335 7.16262 14.8595L6.4062 44.522C6.36176 44.7783 6.37398 45.0412 6.442 45.2922C6.51003 45.5433 6.63221 45.7764 6.79995 45.9752C6.97748 46.1847 7.1987 46.3529 7.44811 46.4679C7.69752 46.5828 7.96906 46.6419 8.2437 46.6408H53.9907C54.4244 46.6463 54.8462 46.499 55.1821 46.2248C55.5181 45.9505 55.7468 45.5668 55.8283 45.1408L56.6906 15.4783C56.7375 15.222 56.7264 14.9585 56.6583 14.7071C56.5902 14.4557 56.4667 14.2227 56.2968 14.0252ZM38.2064 15.2908H41.8345L39.6782 25.5095C38.4314 24.197 38.422 24.197 38.0095 24.197C37.747 24.197 37.7376 24.197 35.797 25.3501C36.1345 23.8876 36.4907 22.4439 36.847 21.0283C37.3064 19.1626 37.7845 17.2314 38.2064 15.2908ZM54.0001 44.7658H53.9907L8.25307 44.8502L9.00012 15.2345L36.2845 15.2626C35.8907 17.0533 35.4501 18.8439 35.0282 20.5783C34.5032 22.6876 33.9689 24.8626 33.5001 27.0658C33.4723 27.202 33.4752 27.3427 33.5084 27.4777C33.5417 27.6127 33.6046 27.7386 33.6926 27.8463C33.7805 27.954 33.8913 28.0407 34.0169 28.1003C34.1425 28.1599 34.2798 28.1908 34.4189 28.1908C34.6907 28.1908 34.6907 28.1908 36.6782 27.0095C37.1001 26.7564 37.522 26.5033 37.8501 26.3158C38.0282 26.4939 38.2345 26.7095 38.4408 26.9345C39.8001 28.3783 39.8001 28.3783 40.222 28.3783C40.4368 28.3788 40.6453 28.3055 40.8125 28.1707C40.9798 28.0358 41.0956 27.8477 41.1407 27.6376L43.7657 15.2345L54.8437 15.1502L54.0001 44.7658Z" fill="white"/>
<path d="M48.375 37.7342C48.2867 37.6225 48.1741 37.5323 48.0458 37.4706C47.9175 37.4089 47.7768 37.3772 47.6344 37.3779H40.2469C40.0375 37.3781 39.8342 37.4483 39.6694 37.5775C39.5046 37.7066 39.3877 37.8872 39.3375 38.0904L38.4094 41.7842C38.3752 41.9222 38.373 42.0662 38.4027 42.2053C38.4324 42.3444 38.4934 42.4748 38.581 42.5868C38.6687 42.6988 38.7806 42.7894 38.9084 42.8518C39.0362 42.9141 39.1765 42.9466 39.3187 42.9467H46.7062C46.9156 42.9465 47.1189 42.8763 47.2837 42.7472C47.4485 42.618 47.5654 42.4374 47.6156 42.2342L48.5437 38.5404C48.5773 38.402 48.5796 38.2577 48.5504 38.1183C48.5212 37.9788 48.4613 37.8476 48.375 37.7342ZM45.975 41.0717H40.5187L40.9781 39.2529H46.4344L45.975 41.0717Z" fill="white"/>
</svg>
