<svg width="121" height="25" viewBox="0 0 121 25" fill="none" xmlns="http://www.w3.org/2000/svg">
<g clip-path="url(#clip0_16_8)">
<path d="M41.9501 8.47793C42.1384 8.60659 42.1384 8.60659 42.3511 8.67544C42.4872 8.61558 42.599 8.55518 42.7233 8.47652C42.797 8.43271 42.8709 8.38914 42.9449 8.34578C43.0016 8.31238 43.0016 8.31238 43.0594 8.2783C43.9083 7.7913 44.8765 7.44502 45.8419 7.28941C45.9039 7.27895 45.9659 7.2685 46.0298 7.25772C48.1992 6.93597 50.6606 7.22877 52.4737 8.53427C52.9741 8.92608 53.411 9.36622 53.7474 9.90748C53.7773 9.95367 53.8073 9.99986 53.8381 10.0474C54.4349 11.0101 54.6815 12.1538 54.6776 13.2782C54.6777 13.3499 54.6777 13.3499 54.6778 13.423C54.6779 13.5819 54.6776 13.7408 54.6773 13.8997C54.6773 14.014 54.6773 14.1284 54.6773 14.2428C54.6773 14.5524 54.677 14.8621 54.6767 15.1718C54.6763 15.4957 54.6763 15.8196 54.6763 16.1436C54.6761 16.687 54.6758 17.2304 54.6753 17.7738C54.6749 18.3334 54.6745 18.8929 54.6743 19.4525C54.6743 19.5043 54.6743 19.5043 54.6742 19.5571C54.6742 19.7304 54.6741 19.9036 54.674 20.0769C54.6735 21.5125 54.6726 22.9482 54.6715 24.3839C53.8645 24.715 52.9089 24.7125 52.047 24.7143C52.0077 24.7146 51.9684 24.7149 51.928 24.7153C51.4979 24.7175 51.081 24.6954 50.6567 24.6221C50.6215 24.616 50.5862 24.6099 50.5499 24.6036C50.0197 24.5025 49.5563 24.254 49.23 23.8192C48.7659 23.0599 48.7604 22.2706 48.7607 21.4071C48.7605 21.319 48.7604 21.2309 48.7601 21.1428C48.7597 20.9539 48.7595 20.7649 48.7593 20.5759C48.759 20.2766 48.7582 19.9773 48.7572 19.678C48.7569 19.5753 48.7565 19.4726 48.7562 19.3699C48.7561 19.3184 48.7559 19.267 48.7557 19.214C48.7536 18.5178 48.7519 17.8216 48.7512 17.1255C48.7508 16.655 48.7497 16.1845 48.7477 15.7141C48.7467 15.4655 48.746 15.217 48.7463 14.9685C48.7465 14.7346 48.7458 14.5007 48.7444 14.2668C48.744 14.1814 48.744 14.0959 48.7444 14.0105C48.7466 13.4501 48.7092 12.9425 48.4022 12.455C47.8619 11.9616 47.2286 11.814 46.5102 11.8406C45.9322 11.8794 45.3997 12.1109 44.9179 12.4229C44.8307 12.5973 44.8597 12.7962 44.8604 12.9881C44.8603 13.0366 44.8603 13.0851 44.8602 13.1351C44.8601 13.2986 44.8604 13.4622 44.8607 13.6258C44.8607 13.7426 44.8607 13.8594 44.8607 13.9763C44.8607 14.2944 44.861 14.6124 44.8613 14.9305C44.8616 15.2626 44.8617 15.5947 44.8617 15.9267C44.8619 16.4844 44.8622 17.0421 44.8627 17.5997C44.8631 18.1742 44.8635 18.7486 44.8637 19.3231C44.8637 19.3585 44.8637 19.3939 44.8638 19.4303C44.8638 19.6079 44.8639 19.7854 44.864 19.963C44.8645 21.4366 44.8654 22.9102 44.8665 24.3839C44.0567 24.7171 43.0797 24.7124 42.2132 24.7143C42.1752 24.7146 42.1373 24.7149 42.0982 24.7153C41.677 24.7175 41.2691 24.6938 40.8536 24.6221C40.8182 24.616 40.7829 24.6099 40.7464 24.6036C40.2162 24.5029 39.7508 24.2548 39.4251 23.8192C39.0857 23.2503 38.9573 22.6993 38.956 22.0423C38.9558 22.0052 38.9557 21.9681 38.9555 21.9299C38.9551 21.8068 38.955 21.6837 38.9549 21.5606C38.9547 21.4718 38.9544 21.3831 38.9542 21.2943C38.9536 21.1038 38.9531 20.9132 38.9528 20.7227C38.9523 20.421 38.9512 20.1194 38.9501 19.8178C38.9469 18.9602 38.9441 18.1027 38.9424 17.2451C38.9415 16.7711 38.94 16.297 38.9379 15.823C38.9368 15.5725 38.936 15.3219 38.9359 15.0714C38.9358 14.8356 38.935 14.6 38.9337 14.3642C38.9333 14.278 38.9332 14.1918 38.9333 14.1056C38.9344 13.4657 38.9004 12.869 38.4497 12.3715C37.8794 11.9077 37.1666 11.7972 36.454 11.8463C35.97 11.8991 35.5519 12.1207 35.1129 12.3202C35.096 16.3012 35.0791 20.2822 35.0616 24.3839C34.2487 24.709 33.3032 24.7125 32.4371 24.7143C32.3978 24.7146 32.3586 24.7149 32.3181 24.7153C31.8884 24.7175 31.4713 24.6956 31.0473 24.6227C31.0121 24.6167 30.9769 24.6107 30.9406 24.6045C30.3644 24.495 29.8756 24.2041 29.5367 23.7261C29.1172 23.0166 29.1284 22.2417 29.1324 21.4434C29.1322 21.3305 29.1319 21.2176 29.1315 21.1047C29.1308 20.8004 29.1314 20.4961 29.1322 20.1918C29.1329 19.8722 29.1326 19.5526 29.1324 19.233C29.1323 18.6625 29.1331 18.092 29.1344 17.5214C29.1355 17.0053 29.1357 16.4892 29.1352 15.973C29.1346 15.3074 29.1347 14.6417 29.1355 13.9761C29.1358 13.7227 29.1358 13.4693 29.1356 13.2159C29.1353 12.9174 29.1358 12.619 29.1369 12.3205C29.1372 12.2113 29.1372 12.1021 29.137 11.9929C29.135 11.017 29.2296 10.3109 29.9249 9.5738C32.779 6.84399 38.6717 6.19993 41.9501 8.47793Z" fill="#ED1C24"/>
<path d="M89.1973 1.68114C89.2635 1.68066 89.3297 1.68018 89.398 1.67969C90.235 1.68245 91.2108 1.73143 91.8378 2.36133C92.189 2.77969 92.346 3.25359 92.4075 3.79056C92.4119 3.82867 92.4162 3.86677 92.4208 3.90602C92.4637 4.30757 92.4669 4.70615 92.4638 5.10954C92.4636 5.18655 92.4635 5.26357 92.4634 5.34059C92.463 5.54 92.462 5.73941 92.4609 5.93882C92.4598 6.14362 92.4593 6.34842 92.4588 6.55323C92.4577 6.95264 92.456 7.35206 92.4538 7.75147C92.4993 7.7359 92.4993 7.7359 92.5457 7.72001C92.6854 7.67235 92.8252 7.62508 92.965 7.57781C93.0126 7.56148 93.0603 7.54515 93.1094 7.52832C93.9431 7.24746 94.7807 7.17471 95.6558 7.17395C95.6921 7.17392 95.7284 7.17389 95.7658 7.17385C96.3673 7.17476 96.9472 7.21176 97.536 7.34079C97.576 7.34933 97.6161 7.35787 97.6574 7.36666C99.1628 7.69738 100.431 8.44111 101.54 9.49685C101.576 9.52987 101.613 9.56289 101.65 9.59691C103.297 11.1434 103.875 13.5937 103.953 15.7597C104.002 18.0292 103.512 20.3664 102.002 22.1252C101.966 22.1679 101.929 22.2107 101.892 22.2547C100.32 24.0504 97.9472 24.8054 95.627 24.9736C92.855 25.1523 90.028 24.6687 87.7824 22.9465C87.7467 22.9204 87.711 22.8943 87.6743 22.8673C87.0544 22.3836 86.6566 21.6112 86.5503 20.8418C86.5361 20.5828 86.5369 20.3241 86.538 20.0649C86.5379 19.9867 86.5378 19.9085 86.5377 19.8304C86.5375 19.6167 86.5379 19.4031 86.5384 19.1895C86.5389 18.9587 86.5387 18.7278 86.5386 18.497C86.5386 18.0975 86.5389 17.698 86.5395 17.2985C86.5403 16.7208 86.5406 16.1432 86.5407 15.5656C86.5409 14.6283 86.5416 13.6911 86.5426 12.7538C86.5435 11.8436 86.5442 10.9333 86.5447 10.023C86.5447 9.96689 86.5447 9.91075 86.5448 9.85291C86.5449 9.57127 86.545 9.28962 86.5452 9.00798C86.5462 6.67264 86.548 4.33731 86.5503 2.00198C86.7136 1.96901 86.8769 1.93616 87.0402 1.90332C87.086 1.89407 87.1319 1.88481 87.1791 1.87528C87.8555 1.73947 88.5074 1.6843 89.1973 1.68114ZM92.4025 12.3203C92.4025 14.7936 92.4025 17.2669 92.4025 19.8151C93.5263 20.3338 94.7008 20.5484 95.8932 20.1231C96.7001 19.7862 97.2221 19.1434 97.5692 18.3591C97.8461 17.6141 97.9073 16.8601 97.9081 16.0709C97.9082 16.0357 97.9082 16.0004 97.9083 15.9641C97.9071 14.7274 97.6881 13.5338 96.8044 12.6102C96.1314 11.9652 95.3541 11.7812 94.4457 11.7889C93.7344 11.8073 93.0396 12.0017 92.4025 12.3203Z" fill="#ED1C24"/>
<path d="M14.3225 9.18898C15.452 10.2879 15.9413 11.7526 15.9772 13.3062C15.9796 13.4906 15.9797 13.6749 15.9793 13.8593C15.9796 13.9424 15.9798 14.0255 15.9801 14.1085C15.9808 14.3313 15.9808 14.554 15.9807 14.7767C15.9807 14.9636 15.9809 15.1505 15.9812 15.3374C15.9817 15.7784 15.9818 16.2195 15.9814 16.6605C15.9811 17.1139 15.9818 17.5673 15.9829 18.0206C15.9838 18.4118 15.9841 18.803 15.9839 19.1943C15.9838 19.4271 15.9839 19.6599 15.9847 19.8927C15.9853 20.1114 15.9852 20.3302 15.9845 20.5489C15.9844 20.6287 15.9845 20.7085 15.985 20.7883C15.9893 21.6578 15.8414 22.3108 15.2241 22.9467C13.52 24.623 10.7937 24.9471 8.5217 25.0001C8.45842 25.0018 8.45842 25.0018 8.39387 25.0035C6.06236 25.0582 3.27427 24.7853 1.4952 23.1049C0.57927 22.2154 0.00391266 21.0992 -0.0203109 19.8028C-0.0210935 19.6922 -0.0209061 19.5817 -0.019935 19.4711C-0.0191109 19.3601 -0.0199316 19.2491 -0.0209125 19.1381C-0.0228608 17.8704 0.36631 16.7089 1.25423 15.7839C2.30126 14.7772 3.74198 14.3736 5.14564 14.1749C5.20695 14.1662 5.26825 14.1575 5.33141 14.1485C6.15695 14.0344 6.98574 13.9484 7.81449 13.8613C7.98963 13.8428 8.16474 13.8239 8.33984 13.8051C8.51026 13.7868 8.6807 13.7687 8.85115 13.7507C8.93163 13.7421 9.0121 13.7335 9.09256 13.7249C9.2043 13.7129 9.31606 13.7012 9.42783 13.6895C9.49098 13.6829 9.55413 13.6762 9.61919 13.6693C9.81941 13.654 10.015 13.6527 10.2157 13.6551C10.177 12.9886 10.177 12.9886 9.85641 12.4231C9.81928 12.3817 9.81928 12.3817 9.78141 12.3394C8.95657 11.5367 7.51056 11.6314 6.44405 11.6422C5.3044 11.6594 4.17793 11.874 3.10128 12.2468C3.06868 12.2579 3.03607 12.2691 3.00248 12.2806C2.84287 12.3352 2.68431 12.3915 2.52642 12.451C2.10986 12.5973 2.10986 12.5973 1.95075 12.5402C1.86985 12.4758 1.86985 12.4758 1.74552 12.3204C1.71263 12.2816 1.67975 12.2428 1.64586 12.2029C1.22193 11.592 1.00824 11.0163 1.01079 10.2734C1.00997 10.2257 1.00914 10.178 1.00829 10.1288C1.00786 9.52153 1.1896 9.05984 1.59413 8.60986C4.35692 5.89814 11.6695 6.79349 14.3225 9.18898ZM9.169 17.5942C9.12035 17.5983 9.0717 17.6024 9.02158 17.6066C8.91942 17.6152 8.81727 17.624 8.71514 17.633C8.56134 17.6463 8.40748 17.6586 8.2536 17.6708C6.96893 17.7704 6.96893 17.7704 5.90363 18.426C5.69962 18.6828 5.62399 18.9115 5.63413 19.2434C5.67465 19.5904 5.80888 19.9258 6.05764 20.1746C6.50805 20.5208 7.03739 20.6586 7.59768 20.688C7.64678 20.6907 7.69588 20.6934 7.74647 20.6962C8.53 20.7176 9.59727 20.6725 10.2671 20.2259C10.2896 20.1079 10.2896 20.1079 10.2846 19.9692C10.2846 19.9158 10.2845 19.8624 10.2845 19.8073C10.2837 19.7495 10.2829 19.6916 10.2821 19.632C10.2819 19.5729 10.2817 19.5138 10.2815 19.4529C10.2806 19.2635 10.2787 19.0742 10.2767 18.8848C10.2759 18.7567 10.2752 18.6285 10.2746 18.5004C10.2729 18.1858 10.2703 17.8712 10.2671 17.5565C9.89881 17.5519 9.53592 17.563 9.169 17.5942Z" fill="#ED1C24"/>
<path d="M74.6406 7.17711C74.7109 7.17716 74.7109 7.17716 74.7825 7.17721C75.4585 7.17843 76.1272 7.18702 76.7967 7.28941C76.8413 7.29603 76.886 7.30264 76.932 7.30946C77.9346 7.46275 78.9155 7.7062 79.8255 8.1621C79.8769 8.1878 79.8769 8.1878 79.9295 8.21401C80.4496 8.47849 80.8859 8.79386 81.3142 9.18879C81.3482 9.21864 81.3822 9.24848 81.4172 9.27923C82.4375 10.2212 82.9058 11.6873 82.966 13.0378C82.9821 13.5877 82.98 14.1381 82.9792 14.6883C82.9791 14.8804 82.9794 15.0725 82.9797 15.2647C82.9804 15.718 82.9804 16.1714 82.9798 16.6248C82.9792 17.0906 82.9799 17.5564 82.9813 18.0222C82.9824 18.4245 82.9828 18.8268 82.9825 19.2291C82.9823 19.4684 82.9824 19.7077 82.9833 19.9469C82.9841 20.1716 82.9839 20.3963 82.9829 20.6211C82.9827 20.703 82.9829 20.7849 82.9834 20.8668C82.9876 21.5514 82.9096 22.1584 82.4435 22.6898C82.4117 22.7313 82.3799 22.7728 82.3471 22.8156C81.0705 24.3507 78.6092 24.7605 76.7462 24.9351C76.3525 24.9692 75.9596 24.9905 75.5647 24.9999C75.5216 25.001 75.4786 25.0021 75.4342 25.0033C73.2433 25.0527 70.5305 24.8567 68.7885 23.3572C68.7228 23.3019 68.7228 23.3019 68.6557 23.2455C67.7096 22.4229 67.151 21.3711 66.9918 20.1231C66.916 18.5813 67.0634 17.1706 68.0937 15.9511C69.1466 14.817 70.6784 14.3708 72.1688 14.1727C72.232 14.1641 72.2953 14.1556 72.3605 14.1467C73.1496 14.0424 73.9411 13.958 74.7326 13.8746C74.9503 13.8517 75.1679 13.8284 75.3855 13.8049C75.5557 13.7866 75.7259 13.7685 75.8961 13.7505C75.9764 13.742 76.0568 13.7334 76.1371 13.7247C76.2486 13.7127 76.3601 13.701 76.4716 13.6894C76.5346 13.6827 76.5976 13.676 76.6625 13.6691C76.8626 13.6538 77.0581 13.6525 77.2587 13.6549C77.2368 13.5243 77.2143 13.3939 77.1913 13.2635C77.1853 13.2269 77.1792 13.1903 77.173 13.1526C77.0922 12.7009 76.9008 12.4069 76.524 12.1405C75.7398 11.6733 74.7612 11.6319 73.8738 11.6368C73.8189 11.637 73.8189 11.637 73.7628 11.6372C72.2315 11.6445 70.8064 11.978 69.3665 12.4869C69.1465 12.5602 69.1465 12.5602 69.0452 12.5769C68.4738 12.1728 68.2067 11.5213 68.0397 10.8678C67.942 10.2289 67.9614 9.51547 68.3048 8.95358C69.0482 7.94403 70.3421 7.60722 71.522 7.41351C71.9951 7.34172 72.4704 7.28521 72.9466 7.23807C72.9964 7.23305 73.0463 7.22802 73.0976 7.22285C73.6115 7.17692 74.1251 7.17648 74.6406 7.17711ZM76.2188 17.594C76.1702 17.5981 76.1216 17.6022 76.0715 17.6064C75.9693 17.6151 75.867 17.6239 75.7648 17.6328C75.6111 17.6461 75.4574 17.6584 75.3036 17.6707C74.0102 17.76 74.0102 17.76 72.9241 18.3905C72.7127 18.6686 72.6204 18.9559 72.6418 19.3049C72.6979 19.6864 72.8614 19.9837 73.1437 20.2462C73.9502 20.8442 75.0865 20.7333 76.0232 20.6031C76.449 20.5387 76.8951 20.4682 77.2587 20.2258C77.2812 20.1077 77.2812 20.1077 77.2762 19.9691C77.2762 19.9156 77.2762 19.8622 77.2762 19.8071C77.2754 19.7493 77.2746 19.6914 77.2738 19.6318C77.2735 19.5727 77.2733 19.5136 77.2731 19.4527C77.2722 19.2633 77.2703 19.074 77.2683 18.8846C77.2676 18.7565 77.2669 18.6284 77.2662 18.5002C77.2645 18.1856 77.262 17.871 77.2587 17.5564C76.9099 17.5514 76.5664 17.5645 76.2188 17.594Z" fill="#ED1C24"/>
<path d="M119.23 8.50363C119.742 9.00379 120.021 9.52626 120.033 10.2456C120.036 11.1497 119.826 11.801 119.202 12.4744C119.097 12.5769 119.097 12.5769 118.943 12.6796C118.823 12.6349 118.716 12.5859 118.602 12.5288C117.027 11.7928 114.589 11.257 112.885 11.8069C112.594 11.9179 112.316 12.0339 112.166 12.3202C112.107 12.5454 112.098 12.7246 112.163 12.9491C112.396 13.2603 112.701 13.3625 113.067 13.4681C113.105 13.4791 113.143 13.4902 113.182 13.5016C113.602 13.6213 114.026 13.7166 114.452 13.813C116.339 14.2438 118.249 14.7783 119.661 16.1703C119.696 16.204 119.73 16.2377 119.765 16.2724C120.667 17.2269 120.882 18.5264 120.856 19.7868C120.812 21.0764 120.322 22.2343 119.405 23.1519C117.713 24.7138 115.345 25.0115 113.138 25.0127C113.084 25.0128 113.029 25.0128 112.972 25.0129C111.452 25.0113 109.876 24.9162 108.47 24.2812C108.437 24.2665 108.405 24.2517 108.371 24.2366C107.864 24.0023 107.473 23.7048 107.084 23.3059C107.052 23.2742 107.02 23.2425 106.987 23.2098C106.496 22.6902 106.386 21.9933 106.404 21.3072C106.445 20.4544 106.837 19.8213 107.444 19.2504C107.54 19.1852 107.54 19.1852 107.649 19.1478C107.76 19.1806 107.76 19.1806 107.882 19.245C107.928 19.2685 107.974 19.2919 108.022 19.3161C108.071 19.3421 108.121 19.368 108.172 19.3948C109.891 20.2558 112.221 20.9746 114.139 20.3762C114.494 20.2382 114.715 20.0942 114.932 19.7766C115.031 19.492 114.984 19.2586 114.871 18.9841C114.323 18.4101 113.345 18.3192 112.594 18.1779C110.597 17.7987 108.248 17.2239 107.023 15.4426C106.303 14.2625 106.118 12.7794 106.415 11.4355C106.796 10.0507 107.631 8.99016 108.874 8.2745C111.578 6.766 116.735 6.31644 119.23 8.50363Z" fill="#ED1C24"/>
<path d="M63.4613 2.27008C63.9734 2.78324 64.1749 3.44498 64.1747 4.15808C64.1748 4.19319 64.1748 4.2283 64.1749 4.26448C64.175 4.38206 64.1748 4.49964 64.1745 4.61723C64.1746 4.7024 64.1746 4.78758 64.1747 4.87275C64.1748 5.10676 64.1746 5.34077 64.1743 5.57478C64.1741 5.82714 64.1742 6.07951 64.1742 6.33188C64.1743 6.7691 64.1741 7.20633 64.1738 7.64356C64.1734 8.27571 64.1733 8.90787 64.1732 9.54003C64.1731 10.5656 64.1727 11.5913 64.1722 12.6169C64.1718 13.6132 64.1714 14.6095 64.1712 15.6059C64.1712 15.6673 64.1712 15.7287 64.1712 15.792C64.1711 16.1 64.171 16.4081 64.171 16.7161C64.1704 19.2721 64.1695 21.828 64.1684 24.3839C63.2923 24.6372 62.3974 24.7123 61.4893 24.7144C61.4523 24.7147 61.4153 24.715 61.3771 24.7153C60.5078 24.7201 59.6012 24.6369 58.9322 24.0246C58.3567 23.3959 58.3007 22.6641 58.3039 21.8489C58.3038 21.7632 58.3037 21.6774 58.3036 21.5917C58.3034 21.3569 58.3038 21.1221 58.3043 20.8872C58.3047 20.6337 58.3046 20.3802 58.3045 20.1267C58.3045 19.6877 58.3048 19.2487 58.3054 18.8097C58.3062 18.175 58.3065 17.5403 58.3066 16.9056C58.3068 15.8758 58.3075 14.846 58.3085 13.8162C58.3094 12.8159 58.3101 11.8157 58.3106 10.8154C58.3106 10.7537 58.3106 10.6921 58.3107 10.6285C58.3108 10.3191 58.3109 10.0097 58.3111 9.70032C58.3121 7.13421 58.3139 4.56809 58.3162 2.00198C59.7757 1.63337 62.187 1.2135 63.4613 2.27008Z" fill="#ED1C24"/>
<path d="M22.2889 7.62637C22.3481 7.62592 22.3481 7.62592 22.4086 7.62545C23.2765 7.62093 24.1911 7.68515 24.8652 8.29693C25.4701 8.95597 25.5219 9.81326 25.5195 10.6609C25.5196 10.7197 25.5196 10.7786 25.5197 10.8393C25.5197 11.0358 25.5195 11.2323 25.5192 11.4288C25.5191 11.5699 25.5192 11.7111 25.5192 11.8523C25.5192 12.1558 25.5191 12.4593 25.5188 12.7629C25.5184 13.2017 25.5182 13.6405 25.5182 14.0794C25.518 14.7915 25.5177 15.5035 25.5172 16.2156C25.5168 16.9071 25.5164 17.5986 25.5162 18.2901C25.5162 18.3328 25.5161 18.3755 25.5161 18.4194C25.5161 18.6334 25.516 18.8475 25.5159 19.0615C25.5154 20.8356 25.5145 22.6098 25.5133 24.3839C25.4071 24.4086 25.3008 24.4333 25.1945 24.4579C25.1354 24.4716 25.0762 24.4854 25.0152 24.4995C24.2982 24.6624 23.5898 24.7077 22.8568 24.7112C22.8194 24.7116 22.782 24.712 22.7435 24.7124C22.3231 24.7159 21.9161 24.6944 21.5012 24.6232C21.4659 24.6172 21.4306 24.6112 21.3943 24.605C20.9283 24.5168 20.445 24.2943 20.1407 23.9197C19.7179 23.2732 19.5933 22.6841 19.5975 21.9145C19.5974 21.8545 19.5973 21.7945 19.5972 21.7326C19.5971 21.5677 19.5974 21.4027 19.5979 21.2378C19.5984 21.0593 19.5982 20.8808 19.5982 20.7023C19.5981 20.3936 19.5984 20.0849 19.599 19.7762C19.5998 19.3299 19.6001 18.8836 19.6002 18.4372C19.6005 17.713 19.6011 16.9887 19.6021 16.2644C19.6031 15.5612 19.6038 14.8579 19.6042 14.1547C19.6042 14.1113 19.6043 14.0679 19.6043 14.0232C19.6044 13.8054 19.6046 13.5877 19.6047 13.3699C19.6058 11.5656 19.6076 9.76121 19.6099 7.95684C20.4688 7.66553 21.3889 7.62831 22.2889 7.62637Z" fill="#ED1C24"/>
<path d="M24.538 0.513258C25.1654 0.96156 25.5908 1.68032 25.744 2.42928C25.863 3.29123 25.7707 4.20091 25.2567 4.92804C24.7194 5.6199 24.0574 6.03961 23.1836 6.18995C22.2297 6.30018 21.2796 6.17876 20.492 5.58998C19.8793 5.06147 19.408 4.39137 19.3427 3.56253C19.3063 2.50246 19.4519 1.63457 20.1979 0.830903C21.295 -0.270471 23.2817 -0.313646 24.538 0.513258Z" fill="#ED1C24"/>
</g>
<defs>
<clipPath id="clip0_16_8">
<rect width="120.842" height="25" fill="white"/>
</clipPath>
</defs>
</svg>
