<svg width="60" height="50" viewBox="0 0 60 50" fill="none" xmlns="http://www.w3.org/2000/svg">
<path d="M27.1533 6.49701L16.4963 26.3896L9.78102 28.2911C10.5596 26.8284 11.4355 25.6582 12.4088 24.7806C13.382 23.8055 14.5012 23.3179 15.7664 23.3179C18.5888 23.3179 21.1192 24.4881 23.3577 26.8284C25.6934 29.0711 26.8613 31.9965 26.8613 35.6045C26.8613 39.4075 25.5474 42.6741 22.9197 45.4045C20.3893 48.1348 17.2263 49.5 13.4307 49.5C9.82968 49.5 6.66667 48.1836 3.94161 45.5507C1.31387 42.8204 0 39.505 0 35.6045C0 34.0443 0.291971 32.2403 0.875912 30.1925C1.55718 28.1448 2.77372 25.4632 4.52555 22.1478L16.2044 0.5L27.1533 6.49701ZM60 6.49701L49.3431 26.3896L42.7737 28.2911C43.455 26.8284 44.2822 25.6582 45.2555 24.7806C46.326 23.8055 47.4453 23.3179 48.6131 23.3179C51.4355 23.3179 54.0146 24.4881 56.3504 26.8284C58.6861 29.0711 59.854 31.9965 59.854 35.6045C59.854 39.4075 58.5401 42.6741 55.9124 45.4045C53.382 48.1348 50.219 49.5 46.4234 49.5C42.8224 49.5 39.6594 48.1836 36.9343 45.5507C34.3066 42.8204 32.9927 39.505 32.9927 35.6045C32.9927 34.0443 33.2847 32.2403 33.8686 30.1925C34.4526 28.1448 35.6204 25.4632 37.3723 22.1478L49.1971 0.5L60 6.49701Z" fill="#D1D5DC"/>
</svg>
