<svg width="41" height="40" viewBox="0 0 41 40" fill="none" xmlns="http://www.w3.org/2000/svg">
<path d="M39.125 7.00018C39 6.50018 38.5 6.25018 38 6.25018H34.25V2.50018C34.25 2.00018 34 1.50018 33.5 1.37518C33 1.12518 32.5 1.25018 32.125 1.62518L27.125 6.62518C26.875 6.87518 26.75 7.12518 26.75 7.50018V12.0002L19.625 19.1252C19.125 19.6252 19.125 20.3752 19.625 20.8752C19.875 21.1252 20.25 21.2502 20.5 21.2502C20.75 21.2502 21.125 21.1252 21.375 20.8752L28.5 13.7502H33C33.375 13.7502 33.625 13.6252 33.875 13.3752L38.875 8.37518C39.25 8.00018 39.375 7.50018 39.125 7.00018Z" fill="white"/>
<path d="M23.125 22.625C22.5 23.375 21.5 23.75 20.5 23.75C19.5 23.75 18.5 23.375 17.875 22.625C16.375 21.125 16.375 18.75 17.875 17.375L21.375 13.875C21.125 13.75 20.75 13.75 20.5 13.75C17 13.75 14.25 16.5 14.25 20C14.25 23.5 17 26.25 20.5 26.25C24 26.25 26.75 23.5 26.75 20C26.75 19.75 26.75 19.375 26.625 19.125L23.125 22.625Z" fill="white"/>
<path d="M35.625 15.125C35 15.875 34 16.25 33 16.25H29.5L28.625 17.125C29 18 29.125 19 29.125 20C29.125 24.875 25.25 28.75 20.375 28.75C15.5 28.75 11.625 24.875 11.625 20C11.625 15.125 15.5 11.25 20.375 11.25C21.375 11.25 22.375 11.5 23.25 11.75L24.25 11V7.5C24.25 6.5 24.625 5.5 25.375 4.875L26.625 3.625C24.625 2.875 22.625 2.5 20.5 2.5C10.875 2.5 3 10.375 3 20C3 29.625 10.875 37.5 20.5 37.5C30.125 37.5 38 29.625 38 20C38 17.875 37.625 15.875 36.875 13.875L35.625 15.125Z" fill="white"/>
</svg>
