<svg width="41" height="40" viewBox="0 0 41 40" fill="none" xmlns="http://www.w3.org/2000/svg">
<g clip-path="url(#clip0_152_3049)">
<path d="M34.5586 22.4628C37.0985 22.4628 39.1579 20.4048 39.1579 17.8649C39.1579 15.3251 37.0984 13.2656 34.5586 13.2656C32.0194 13.2656 29.96 15.3251 29.96 17.8649C29.96 20.4048 32.0194 22.4628 34.5586 22.4628Z" fill="white"/>
<path d="M40.4475 26.8944C40.2426 25.6629 39.2247 23.9395 38.4542 23.1696C38.3528 23.0676 37.8992 23.044 37.7767 23.1199C36.8399 23.696 35.7396 24.0351 34.5587 24.0351C33.3791 24.0351 32.2787 23.696 31.3419 23.1199C31.2188 23.044 30.7659 23.0676 30.6644 23.1696C30.449 23.385 30.214 23.6717 29.9849 24.0042C30.6048 25.1714 31.0964 26.4112 31.2738 27.4789C31.4512 28.5492 31.3936 29.5625 31.1068 30.4862C32.1254 30.8547 33.3469 31.0165 34.5586 31.0165C37.7192 31.0165 40.9535 29.9206 40.4475 26.8944Z" fill="white"/>
<path d="M20.3821 20.5225C24.4982 20.5225 27.8354 17.1853 27.8354 13.0692C27.8354 8.95438 24.4982 5.61719 20.3821 5.61719C16.2666 5.61719 12.9307 8.95438 12.9307 13.0692C12.9307 17.1853 16.2665 20.5225 20.3821 20.5225Z" fill="white"/>
<path d="M26.6932 21.6644C26.5314 21.5034 25.797 21.4622 25.5973 21.5858C24.0779 22.5207 22.2949 23.0679 20.3821 23.0679C18.4707 23.0679 16.6868 22.5207 15.1682 21.5858C14.9686 21.4621 14.2341 21.5034 14.0724 21.6644C12.8207 22.9147 11.1711 25.7099 10.8393 27.7025C10.021 32.6108 15.2638 34.3828 20.3821 34.3828C25.5018 34.3828 30.7445 32.6108 29.9262 27.7025C29.5943 25.7099 27.9447 22.9147 26.6932 21.6644Z" fill="white"/>
<path d="M6.44158 22.4628C8.9808 22.4628 11.0402 20.4048 11.0402 17.8649C11.0402 15.3251 8.9808 13.2656 6.44158 13.2656C3.90166 13.2656 1.84229 15.3251 1.84229 17.8649C1.84229 20.4048 3.90166 22.4628 6.44158 22.4628Z" fill="white"/>
<path d="M9.49176 27.4789C9.68035 26.3576 10.2125 25.0372 10.8796 23.8164C10.6936 23.5624 10.5078 23.3411 10.3362 23.1696C10.2347 23.0676 9.78176 23.044 9.65871 23.1199C8.72191 23.696 7.62152 24.0351 6.44137 24.0351C5.26105 24.0351 4.15996 23.696 3.22394 23.1199C3.10144 23.044 2.64722 23.0676 2.54574 23.1696C1.77332 23.9394 0.758084 25.6629 0.552459 26.8944C0.0471466 29.9206 3.2809 31.0164 6.44137 31.0164C7.56926 31.0164 8.70824 30.8776 9.68035 30.5601C9.37402 29.6176 9.30918 28.5806 9.49176 27.4789Z" fill="white"/>
</g>
<defs>
<clipPath id="clip0_152_3049">
<rect width="40" height="40" fill="white" transform="translate(0.5)"/>
</clipPath>
</defs>
</svg>
