<svg width="41" height="40" viewBox="0 0 41 40" fill="none" xmlns="http://www.w3.org/2000/svg">
<path d="M27.5854 3.07729C27.5848 3.07683 27.5844 3.07637 27.5839 3.07591C27.5843 3.0646 27.5854 3.05356 27.5854 3.04216C27.5854 2.46653 27.1188 2 26.5432 2C26.0197 2 25.5866 2.38589 25.5123 2.8886L23.6232 6.47517C23.5193 6.66805 23.4171 6.86175 23.317 7.0566L21.7183 10.0918L21.4645 9.20308L21.9703 8.21844H21.9303H20.9914H20.9513H20.0124H19.9723L20.4782 9.20308L20.2244 10.0918L18.6257 7.0566C18.5256 6.86175 18.4235 6.66805 18.3195 6.47517L16.4304 2.8886C16.3562 2.38584 15.9229 2 15.3996 2C14.824 2 14.3574 2.46653 14.3574 3.04216C14.3574 3.05356 14.3586 3.06464 14.3589 3.07591C14.3584 3.07641 14.358 3.07687 14.3575 3.07724C14.3581 3.07871 14.3586 3.08014 14.3592 3.08156C14.3594 3.08566 14.3595 3.08975 14.3598 3.09388C14.359 3.09471 14.3583 3.09545 14.3575 3.09628C14.3585 3.09821 14.3593 3.10005 14.3602 3.10198C14.3659 3.20175 14.3851 3.29779 14.4169 3.38814L17.7838 10.4168L17.8054 16.5411C17.8054 16.5411 16.5702 22.5868 16.5702 22.6436C16.5702 23.4308 17.2083 24.0689 17.9955 24.0689C18.0007 24.0689 18.006 24.0684 18.0113 24.0682C18.0195 24.0684 18.0275 24.0689 18.0356 24.0689C18.6497 24.0689 19.1731 23.6805 19.3737 23.1358C19.4339 23.0207 19.4814 22.8933 19.5136 22.7552C19.7108 21.9073 19.9035 21.0581 20.1001 20.2099C20.1627 19.966 20.225 19.7223 20.2853 19.4776C20.3954 19.0314 20.5005 18.5839 20.6073 18.1367C20.7085 17.8052 20.8332 17.4531 20.9718 17.0232C21.1102 17.4531 21.235 17.8052 21.3362 18.1367C21.443 18.5839 21.548 19.0314 21.6582 19.4776C21.7185 19.7221 21.7807 19.966 21.8433 20.2099C22.0397 21.0581 22.2327 21.9073 22.4299 22.7552C22.462 22.8933 22.5095 23.0207 22.5697 23.1358C22.77 23.6805 23.2935 24.069 23.9077 24.069C23.916 24.069 23.924 24.0685 23.9322 24.0683C23.9373 24.0684 23.9426 24.069 23.9479 24.069C24.735 24.069 25.3731 23.4308 25.3731 22.6437C25.3731 22.5869 24.138 16.5412 24.138 16.5412L24.1597 10.4168L27.5265 3.38823C27.5582 3.29793 27.5774 3.20188 27.5831 3.10211C27.5841 3.10018 27.5849 3.09834 27.5858 3.09637C27.585 3.09549 27.5844 3.09476 27.5835 3.09393C27.5837 3.08988 27.584 3.08575 27.5841 3.08166C27.5841 3.08028 27.5848 3.0788 27.5854 3.07729Z" fill="white"/>
<path d="M20.9513 7.39434C20.958 7.39434 20.9646 7.39383 20.9714 7.39379C20.9781 7.39383 20.9847 7.39434 20.9915 7.39434C22.14 7.39434 23.071 6.46331 23.071 5.31485C23.071 4.16639 22.14 3.23535 20.9915 3.23535C20.9848 3.23535 20.9782 3.23581 20.9714 3.23586C20.9647 3.23581 20.9581 3.23535 20.9513 3.23535C19.8028 3.23535 18.8718 4.16639 18.8718 5.31485C18.8718 6.46331 19.8028 7.39434 20.9513 7.39434Z" fill="white"/>
<path d="M36.0805 32.6502H27.2912V34.4203C27.2912 34.7376 27.0339 34.995 26.7165 34.995C26.3991 34.995 26.1418 34.7376 26.1418 34.4203V29.2938C26.1418 29.2634 26.1448 29.2336 26.1494 29.2045V25.7076C26.1494 25.1997 25.7377 24.7881 25.2299 24.7881H16.4713C15.9634 24.7881 15.5517 25.1997 15.5517 25.7076V29.2938V29.4777V34.4203C15.5517 34.7376 15.2944 34.995 14.977 34.995C14.6596 34.995 14.4023 34.7376 14.4023 34.4203V29.4777H5.91954C5.41168 29.4777 5 29.8894 5 30.3973V36.972C5 37.4798 5.41168 37.8915 5.91954 37.8915H23.4368H25.1839H36.0805C36.5883 37.8915 37 37.4798 37 36.972V33.5697C37 33.0618 36.5883 32.6502 36.0805 32.6502ZM21.6251 32.958H20.8832V28.0005H20.8661L19.8797 28.5328L19.7313 27.9487L20.9706 27.2849H21.6251V32.958Z" fill="white"/>
</svg>
