<svg width="24" height="24" viewBox="0 0 24 24" fill="none" xmlns="http://www.w3.org/2000/svg">
<path d="M17.982 18.7247C17.2833 17.7996 16.3793 17.0493 15.3412 16.5331C14.3031 16.0168 13.1594 15.7487 12 15.7497C10.8407 15.7487 9.6969 16.0168 8.65883 16.5331C7.62077 17.0493 6.71675 17.7996 6.01801 18.7247M17.982 18.7247C19.3455 17.5119 20.3071 15.9133 20.7412 14.1408C21.1753 12.3683 21.0603 10.5058 20.4115 8.80018C19.7627 7.09457 18.6107 5.62648 17.1084 4.5906C15.6061 3.55472 13.8244 3 11.9995 3C10.1747 3 8.39295 3.55472 6.89062 4.5906C5.38829 5.62648 4.23634 7.09457 3.58755 8.80018C2.93875 10.5058 2.82376 12.3683 3.25783 14.1408C3.6919 15.9133 4.65451 17.5119 6.01801 18.7247M17.982 18.7247C16.336 20.1929 14.2056 21.0028 12 20.9997C9.79404 21.0031 7.66425 20.1931 6.01801 18.7247M15 9.74971C15 10.5454 14.6839 11.3084 14.1213 11.871C13.5587 12.4336 12.7957 12.7497 12 12.7497C11.2044 12.7497 10.4413 12.4336 9.87869 11.871C9.31608 11.3084 9.00001 10.5454 9.00001 9.74971C9.00001 8.95406 9.31608 8.19099 9.87869 7.62838C10.4413 7.06578 11.2044 6.74971 12 6.74971C12.7957 6.74971 13.5587 7.06578 14.1213 7.62838C14.6839 8.19099 15 8.95406 15 9.74971Z" stroke="white" stroke-width="1.5" stroke-linecap="round" stroke-linejoin="round"/>
</svg>
