<svg width="120" height="120" viewBox="0 0 120 120" fill="none" xmlns="http://www.w3.org/2000/svg">
<g clip-path="url(#clip0_610_6173)">
<path d="M60 120C93.1371 120 120 93.1371 120 60C120 26.8629 93.1371 0 60 0C26.8629 0 0 26.8629 0 60C0 93.1371 26.8629 120 60 120Z" fill="#F9FAFB"/>
<path d="M70.2514 62.636C73.1049 62.636 75.4181 60.1125 75.4181 56.9996C75.4181 53.8868 73.1049 51.3633 70.2514 51.3633C67.398 51.3633 65.0848 53.8868 65.0848 56.9996C65.0848 60.1125 67.398 62.636 70.2514 62.636Z" fill="#1E2939"/>
<path d="M71.2552 52.1409C72.2065 52.141 73.1415 52.3749 73.9688 52.8197C74.7961 53.2646 75.4874 53.9051 75.975 54.6788C76.4626 55.4524 76.73 56.3326 76.7509 57.2334C76.7718 58.1342 76.5455 59.0247 76.0942 59.8178C76.5708 59.2531 76.9179 58.6005 77.1135 57.9017C77.309 57.2029 77.3487 56.4732 77.2301 55.759C77.1114 55.0449 76.837 54.362 76.4242 53.7538C76.0115 53.1457 75.4695 52.6257 74.8328 52.2269C74.1962 51.8281 73.4787 51.5592 72.7263 51.4376C71.9739 51.3159 71.2029 51.344 70.4626 51.52C69.7223 51.6961 69.0288 52.0164 68.4264 52.4603C67.8239 52.9043 67.3257 53.4622 66.9636 54.0986C67.4774 53.4876 68.1301 52.9943 68.8732 52.6553C69.6162 52.3164 70.4304 52.1405 71.2552 52.1409Z" fill="#1E2939"/>
<path d="M54.2379 52C54.2379 52 55.7424 62.5284 53.4278 63.7107C51.1131 64.893 67.2 65 67.2 65C67.2 65 63.6122 55.8678 65.2324 53.0741L54.2379 52Z" fill="#FFC5C7"/>
<path d="M59.9181 57C68.4785 57 75.4181 50.0604 75.4181 41.5C75.4181 32.9396 68.4785 26 59.9181 26C51.3577 26 44.4181 32.9396 44.4181 41.5C44.4181 50.0604 51.3577 57 59.9181 57Z" fill="#1E2939"/>
<path d="M48.1974 31.8575C50.881 28.8732 54.6322 27.0366 58.6594 26.7354C62.6865 26.4341 66.6745 27.6917 69.7817 30.2428C69.6543 30.1231 69.5283 30.0024 69.396 29.8861C66.3086 27.1745 62.2584 25.7863 58.1361 26.0267C54.0138 26.2672 50.1569 28.1166 47.4132 31.1683C44.6696 34.22 43.2639 38.2241 43.5053 42.3004C43.7467 46.3766 45.6154 50.1912 48.7004 52.9055C48.8328 53.0218 48.9687 53.1314 49.1039 53.2424C46.1777 50.49 44.4475 46.7211 44.2783 42.7312C44.1092 38.7413 45.5144 34.8424 48.1974 31.8575Z" fill="#1E2939"/>
<path d="M60.3878 57.0007C65.5759 57.0007 69.7817 52.5846 69.7817 47.1371C69.7817 41.6895 65.5759 37.2734 60.3878 37.2734C55.1997 37.2734 50.9939 41.6895 50.9939 47.1371C50.9939 52.5846 55.1997 57.0007 60.3878 57.0007Z" fill="#FFC5C7"/>
<path d="M66.8444 60.7578L53.4821 61.3567C53.4821 61.3567 54.5973 68.2461 47.3682 68.9013C40.1392 69.5565 33.5673 67.5909 30.9385 72.5048C28.3097 77.4187 29.4428 94.916 29.4428 94.916C29.4428 94.916 34.3717 112.606 38.3149 115.227C42.258 117.848 76.7604 114.244 76.7604 114.244L91.1999 96.0674L90.7109 82.0494C90.4555 74.7292 83.7518 69.2333 76.5316 70.588C76.3898 70.6146 76.247 70.6432 76.1033 70.6739C76.1033 70.6739 74.517 69.492 70.165 67.3226C67.5036 65.9959 66.8444 60.7578 66.8444 60.7578Z" fill="#ED1C24"/>
<path d="M38.5939 68.2276C38.5939 68.2276 41.874 74.117 40.5165 82.5127C39.159 90.9085 44.8547 108.665 44.8547 108.665L48.9272 107.658C48.9272 107.658 46.2122 90.1946 46.891 86.1647C47.5697 82.1347 47.757 70.2426 44.3633 68.2276C40.9695 66.2126 38.5939 68.2276 38.5939 68.2276Z" fill="#1E2939"/>
<path d="M77.1108 72.0286L78.1262 107.981L80.0586 109.605C80.0586 109.605 82.8366 70.1504 81.3872 70.1504H78.4382C78.2636 70.1504 78.0908 70.1966 77.9295 70.2864C77.7683 70.3762 77.6218 70.5078 77.4983 70.6737C77.3749 70.8396 77.277 71.0366 77.2102 71.2534C77.1434 71.4701 77.109 71.7025 77.109 71.9371C77.109 71.9676 77.1096 71.9981 77.1108 72.0286Z" fill="#1E2939"/>
<path d="M51.9332 34.4551V43.849H54.1879L57.0573 40.8825L56.673 43.849H66.639L66.0241 40.8825L67.2539 43.849H68.8423V34.4551H51.9332Z" fill="#1E2939"/>
<mask id="mask0_610_6173" style="mask-type:luminance" maskUnits="userSpaceOnUse" x="0" y="0" width="120" height="120">
<path d="M60 120C93.1371 120 120 93.1371 120 60C120 26.8629 93.1371 0 60 0C26.8629 0 0 26.8629 0 60C0 93.1371 26.8629 120 60 120Z" fill="white"/>
</mask>
<g mask="url(#mask0_610_6173)">
<path d="M97.7239 89.7644H66.5158V89.1211H52.3648V89.7644H21.0281C20.4684 89.7645 19.9316 89.9868 19.5357 90.3825C19.1399 90.7783 18.9174 91.315 18.9172 91.8747V134.609C18.9172 134.886 18.9718 135.161 19.0779 135.417C19.184 135.673 19.3395 135.905 19.5355 136.102C19.7316 136.298 19.9643 136.453 20.2204 136.559C20.4766 136.665 20.7511 136.72 21.0283 136.72H97.7239C98.0011 136.72 98.2756 136.665 98.5317 136.559C98.7879 136.453 99.0206 136.298 99.2166 136.102C99.4126 135.905 99.5681 135.673 99.6742 135.417C99.7803 135.161 99.8349 134.886 99.8349 134.609V91.8747C99.8349 91.5975 99.7803 91.323 99.6742 91.0669C99.5681 90.8107 99.4126 90.578 99.2166 90.382C99.0206 90.1859 98.7879 90.0304 98.5317 89.9244C98.2756 89.8183 98.0011 89.7637 97.7239 89.7637V89.7644Z" fill="#1E2939"/>
<path d="M60.0834 109.371C62.6723 109.371 64.7709 107.272 64.7709 104.684C64.7709 102.095 62.6723 99.9961 60.0834 99.9961C57.4946 99.9961 55.3959 102.095 55.3959 104.684C55.3959 107.272 57.4946 109.371 60.0834 109.371Z" fill="#F9FAFB"/>
</g>
</g>
<defs>
<clipPath id="clip0_610_6173">
<rect width="120" height="120" fill="white"/>
</clipPath>
</defs>
</svg>
