<svg width="120" height="120" viewBox="0 0 120 120" fill="none" xmlns="http://www.w3.org/2000/svg">
<path d="M60 120C93.1371 120 120 93.1371 120 60C120 26.8629 93.1371 0 60 0C26.8629 0 0 26.8629 0 60C0 93.1371 26.8629 120 60 120Z" fill="#F9FAFB"/>
<mask id="mask0_610_6216" style="mask-type:luminance" maskUnits="userSpaceOnUse" x="0" y="0" width="120" height="120">
<path d="M60 120C93.1371 120 120 93.1371 120 60C120 26.8629 93.1371 0 60 0C26.8629 0 0 26.8629 0 60C0 93.1371 26.8629 120 60 120Z" fill="white"/>
</mask>
<g mask="url(#mask0_610_6216)">
<path d="M51.4753 49.6777C51.4753 49.6777 54.0731 69.2599 50.0766 71.4589C46.08 73.6579 73.8559 73.8568 73.8559 73.8568C73.8559 73.8568 67.6612 56.8715 70.4587 51.6755L51.4753 49.6777Z" fill="#FFC5C7"/>
<path d="M61.7668 60.0858C69.3817 60.0858 75.5548 53.9127 75.5548 46.2978C75.5548 38.6829 69.3817 32.5098 61.7668 32.5098C54.1519 32.5098 47.9788 38.6829 47.9788 46.2978C47.9788 53.9127 54.1519 60.0858 61.7668 60.0858Z" fill="#FFC5C7"/>
<path d="M94.1381 73.957L91.8281 84.4758L86.9438 106.73L86.7975 107.949L85.1119 122.058L83.9906 131.431L83.2388 137.728C78.6675 140.077 75.3544 141.699 75.3544 141.699C75.3544 141.699 75.0694 140.27 74.61 138.442C71.4019 139.404 65.4656 141 60.435 141.318C62.2669 143.36 33.975 91.4208 32.8894 84.4758C32.0156 78.8864 31.3594 74.1633 31.2206 73.1583C31.2019 73.027 31.1925 72.9595 31.1925 72.9595L52.2731 63.6445C53.7713 67.1189 60.7669 68.1633 60.7669 68.1633C66.5625 67.7639 71.1056 64.7077 71.1056 64.7077L94.1381 73.957Z" fill="#ED1C24"/>
<path d="M73.4616 33.2558L76.0395 32.2246C76.0395 32.2246 70.6491 26.29 63.1494 26.8058L65.2588 24.4836C65.2588 24.4836 60.1026 22.4195 55.4151 27.838C52.9511 30.6863 50.1002 34.0345 48.3229 37.8061H45.5618L46.7141 40.3433L42.6812 42.8806L46.8206 42.4248C46.5739 43.8142 46.536 45.2326 46.7081 46.6332C46.8856 48.0344 47.6005 49.3117 48.702 50.1957C48.702 50.1957 51.8993 43.577 51.8993 42.5457V45.1259C51.8993 45.1259 54.4774 42.8037 54.4774 41.2555L55.8836 43.0617L56.5868 40.2235L65.2582 43.0617L63.852 40.7395L69.2424 41.5135L67.1331 38.6753C67.1331 38.6753 73.2268 42.0297 73.461 44.8679C73.6952 47.7061 75.4789 50.3956 75.4789 50.3956C75.4789 50.3956 80.2583 37.1262 73.4616 33.2558Z" fill="#1E2939"/>
<path d="M109.125 122.315C107.721 123.838 104.241 126.131 100.022 128.613C98.4525 129.536 96.7819 130.486 95.0775 131.431C91.0106 133.687 86.7525 135.922 83.2387 137.728C78.6675 140.077 75.3544 141.699 75.3544 141.699C75.3544 141.699 75.0694 140.27 74.61 138.442C73.995 135.995 73.0687 132.832 72.1031 131.431C72.0694 131.383 72.0356 131.338 72.0019 131.293C71.7206 130.923 71.4375 130.708 71.1581 130.708L85.1119 122.058L91.1419 118.32L86.7975 107.949L81.3487 94.9402L84.6375 84.4758L87.9431 73.957H94.1381C94.1381 73.957 96.1894 78.4345 98.8125 84.6783C99.2044 85.612 99.6094 86.5852 100.022 87.5902C105.418 100.715 112.146 119.042 109.125 122.315Z" fill="#ED1C24"/>
<path d="M46.7794 131.308C46.2705 131.306 45.7624 131.347 45.2606 131.431C40.95 132.172 39.6787 136.074 39.3169 138.688C39.201 139.486 39.1571 140.293 39.1856 141.099L35.3775 138.17L33.99 137.103C30.6506 135.939 27.675 133.871 25.095 131.431C22.8568 129.278 20.8491 126.897 19.1044 124.327C17.3666 121.794 15.8174 119.137 14.4694 116.377C14.0932 115.607 13.891 114.763 13.8771 113.906C13.8632 113.049 14.0378 112.2 14.3887 111.418L19.1044 100.908L25.9969 85.5482C26.0469 85.1826 26.1025 84.8251 26.1637 84.4757C27.5306 76.6382 31.1925 73.1582 31.1925 73.1582H33.99L35.8612 84.4757L38.1862 98.5363L36.5569 103.85L32.7919 116.122L36.39 120.029L46.7794 131.308Z" fill="#ED1C24"/>
<path d="M97.7239 89.7644H66.5158V89.1211H52.3648V89.7644H21.0281C20.4684 89.7645 19.9316 89.9868 19.5357 90.3825C19.1399 90.7783 18.9174 91.315 18.9172 91.8747V134.609C18.9172 134.886 18.9718 135.161 19.0779 135.417C19.184 135.673 19.3395 135.905 19.5355 136.102C19.7316 136.298 19.9643 136.453 20.2204 136.559C20.4766 136.665 20.7511 136.72 21.0283 136.72H97.7239C98.0011 136.72 98.2756 136.665 98.5317 136.559C98.7879 136.453 99.0206 136.298 99.2166 136.102C99.4126 135.905 99.5681 135.673 99.6742 135.417C99.7803 135.161 99.8349 134.886 99.8349 134.609V91.8747C99.8349 91.5975 99.7803 91.323 99.6742 91.0669C99.5681 90.8107 99.4126 90.578 99.2166 90.382C99.0206 90.1859 98.7879 90.0304 98.5317 89.9244C98.2756 89.8183 98.0011 89.7637 97.7239 89.7637V89.7644Z" fill="#1E2939"/>
<path d="M60.0834 109.371C62.6723 109.371 64.7709 107.272 64.7709 104.684C64.7709 102.095 62.6723 99.9961 60.0834 99.9961C57.4946 99.9961 55.3959 102.095 55.3959 104.684C55.3959 107.272 57.4946 109.371 60.0834 109.371Z" fill="#F9FAFB"/>
</g>
</svg>
