<svg width="120" height="120" viewBox="0 0 120 120" fill="none" xmlns="http://www.w3.org/2000/svg">
<g clip-path="url(#clip0_610_6193)">
<path d="M60 120C93.1371 120 120 93.1371 120 60C120 26.8629 93.1371 0 60 0C26.8629 0 0 26.8629 0 60C0 93.1371 26.8629 120 60 120Z" fill="#F9FAFB"/>
<mask id="mask0_610_6193" style="mask-type:luminance" maskUnits="userSpaceOnUse" x="0" y="0" width="120" height="120">
<path d="M60 120C93.1371 120 120 93.1371 120 60C120 26.8629 93.1371 0 60 0C26.8629 0 0 26.8629 0 60C0 93.1371 26.8629 120 60 120Z" fill="white"/>
</mask>
<g mask="url(#mask0_610_6193)">
<path d="M82.5 43.5977C75.0442 43.5977 69 37.5535 69 30.0977C69 22.6418 75.0442 16.5977 82.5 16.5977C89.9558 16.5977 96 22.6418 96 30.0977C96 37.5535 89.9558 43.5977 82.5 43.5977Z" fill="#FFC5C7"/>
<path d="M90.3942 45.0682L90.9921 38.8826L79.0511 36.5977L72 54.1663L84.2628 68.5977L93 51.029L90.3942 45.0682Z" fill="#FFC5C7"/>
<path d="M94.396 40.1392L91.9498 41.2964C91.9498 41.2964 92.5411 34.469 91.7169 34.0153C90.8926 33.5617 89.4239 34.8992 89.4239 34.8992L88.097 37.2666L85.4508 35.5737C85.4508 35.5737 82.4602 33.2124 81.3612 32.6076C80.2622 32.0027 81.0569 28.6608 81.0569 28.6608C81.0569 28.6608 66.6412 28.0825 70.2282 20.4002C70.2282 20.4002 72.0401 14.6022 73.3822 16.0561C74.7242 17.5101 75.2788 14.5965 75.2788 14.5965L78.9456 14.4687C78.9456 14.4687 84.9737 8.84524 93.5175 16.0511C102.061 23.2569 94.396 40.1392 94.396 40.1392Z" fill="#1E2939"/>
<path d="M70.2473 46.4269L90.4467 45.582L99.4243 50.5105L99.0034 82.1934L108.402 100.077L60.9893 91.0646L64.6364 77.5466L62.9531 49.1024L70.2473 46.4269Z" fill="#ED1C24"/>
<path d="M0.543992 107.975C-0.100888 106.954 -0.177047 105.693 0.340308 104.602L8.02828 88.3867C8.60206 87.1765 9.83552 86.3945 11.1706 86.3945H108.276C109.574 86.3945 110.755 87.1113 111.357 88.2652L119.598 104.034C120.168 105.124 120.13 106.404 119.498 107.458C118.865 108.513 117.756 109.145 116.53 109.15L3.49634 109.597H3.48219C2.28393 109.597 1.18626 108.991 0.543992 107.975Z" fill="white"/>
<path d="M0.543992 107.975C-0.100888 106.954 -0.177047 105.693 0.340308 104.602L8.02828 88.3867C8.60206 87.1765 9.83552 86.3945 11.1706 86.3945H108.276C109.574 86.3945 110.755 87.1113 111.357 88.2652L119.598 104.034C120.168 105.124 120.13 106.404 119.498 107.458C118.865 108.513 117.756 109.145 116.53 109.15L3.49634 109.597H3.48219C2.28393 109.597 1.18626 108.991 0.543992 107.975ZM11.1706 86.7612C9.97565 86.7612 8.87167 87.4612 8.35812 88.5442L0.67015 104.76C0.207076 105.736 0.275208 106.865 0.852432 107.778C1.42734 108.688 2.40967 109.23 3.48225 109.23H3.49491L116.528 108.783C117.626 108.779 118.619 108.213 119.185 107.269C119.751 106.325 119.784 105.18 119.274 104.204L111.034 88.4354C110.494 87.4028 109.437 86.7612 108.276 86.7612H11.1706Z" fill="#1E2939"/>
<path d="M99.2349 103.399L59.1623 100.634C58.5707 100.593 58.0988 100.192 57.9602 99.6135C57.8216 99.0347 58.0607 98.4628 58.5692 98.1565L67.4304 92.8192C67.6554 92.6837 67.9135 92.6178 68.1751 92.6304L102.838 94.2121C103.296 94.2329 103.705 94.4841 103.933 94.8841C104.16 95.284 104.167 95.7656 103.952 96.1722L100.501 102.693C100.269 103.131 99.815 103.402 99.3261 103.402C99.2959 103.402 99.2654 103.401 99.2349 103.399Z" fill="#1E2939"/>
<path d="M58.8149 99.0206L98.7228 101.766L101.879 94.937L67.6597 93.5898L58.8149 99.0206Z" fill="white"/>
<path d="M90.5354 95.7213C91.3069 95.7519 91.8941 96.4458 91.9366 97.1976C91.9808 97.978 91.4403 98.6968 90.791 99.0684C90.0303 99.5036 89.0808 99.5734 88.2243 99.4985C87.4538 99.4311 86.6156 99.1906 86.1198 98.552C85.7027 98.0147 85.5492 97.2028 85.904 96.5928C86.2558 95.988 87.0039 95.821 87.6296 96.0637C88.2919 96.3206 88.7082 96.9252 88.7124 97.6396C88.717 98.4316 88.2614 99.1634 87.622 99.6013C86.9324 100.074 86.0644 100.225 85.2436 100.224C84.3492 100.221 83.4587 100.033 82.6359 99.6831C81.865 99.3553 81.0948 98.8825 80.5436 98.2402C80.0269 97.6379 79.7175 96.8023 80.0044 96.0212C80.2396 95.3806 80.834 94.9878 81.5147 95.0421C82.1379 95.0918 82.7682 95.4548 83.0448 96.0328C83.3569 96.685 83.2168 97.4675 82.8196 98.0506C82.361 98.7238 81.6361 99.1021 80.8311 99.1568C79.9744 99.215 79.126 98.9093 78.4213 98.4369C77.7687 97.9995 77.1952 97.4395 76.4945 97.0756C76.1574 96.9005 75.7905 96.7891 75.4087 96.7896C74.9226 96.7902 74.4553 96.9505 73.9826 97.0435C73.5819 97.1223 73.1689 97.1682 72.7735 97.0397C72.4352 96.9296 72.1185 96.7281 71.9054 96.439C71.7038 96.1655 71.633 95.8229 71.7472 95.4982C71.8368 95.2436 72.2435 95.3533 72.153 95.6105C71.9442 96.2042 72.6606 96.6405 73.1621 96.695C73.5425 96.7363 73.935 96.6259 74.3021 96.5398C74.6846 96.4499 75.0757 96.3581 75.4712 96.3678C76.8725 96.4024 77.7987 97.6048 78.9285 98.2571C80.1163 98.943 81.8557 98.9908 82.5831 97.6279C82.8472 97.1329 82.9018 96.4749 82.5389 96.0125C82.2365 95.6272 81.6994 95.3967 81.2126 95.4714C80.6013 95.5651 80.2968 96.1496 80.319 96.7307C80.3462 97.4419 80.8399 98.0197 81.3666 98.4456C82.5388 99.3938 84.0933 99.8767 85.5926 99.792C86.2961 99.7522 87.0437 99.5683 87.5902 99.0982C88.0624 98.6919 88.3846 98.0313 88.2712 97.3985C88.173 96.8508 87.7155 96.4354 87.1626 96.3803C86.597 96.3239 86.1551 96.727 86.1298 97.294C86.1015 97.9319 86.479 98.4643 87.0261 98.7548C87.6458 99.0839 88.3968 99.1246 89.0835 99.0888C89.8126 99.0507 90.5725 98.8578 91.0827 98.3005C91.5179 97.825 91.6829 97.1197 91.2819 96.5696C91.1048 96.3268 90.8386 96.1557 90.5354 96.1437C90.2655 96.133 90.2641 95.7105 90.5354 95.7213Z" fill="#ED1C24"/>
<path d="M71.3562 95.2693L71.5707 93.9376L83.4763 71.095C83.6735 70.7167 84.1407 70.5699 84.5176 70.7678C84.8945 70.9658 85.0407 71.4347 84.8435 71.8131L72.9432 94.6455L71.9703 95.5919C71.8552 95.7032 71.6892 95.7271 71.5475 95.6527C71.4059 95.5783 71.3308 95.4278 71.3562 95.2693Z" fill="#1E2939"/>
<path d="M79.4713 80.7359C80.8145 80.9897 82.0776 81.5628 83.1549 82.4071L83.2156 82.4202L83.2278 82.3596L96.2034 84.3998L95.2634 67.0748L105.097 61.668L102.773 90.9532C102.269 92.8235 100.336 93.9158 98.4821 93.3772L81.9648 88.6079L82.006 88.4038L81.9483 88.3882C80.6282 88.7456 79.2421 88.7804 77.9059 88.4896C74.5538 87.8087 72.1867 85.5204 72.6188 83.379C73.0508 81.2376 76.1181 80.0542 79.4713 80.7359Z" fill="#FFC5C7"/>
<path d="M88.3425 53.6077L99.4242 50.5098C99.4242 50.5098 105.246 54.8046 105.947 59.4514C106.03 60.004 106.262 85.7476 106.017 86.4171C104.204 91.3764 94.234 83.46 94.234 83.46L88.3425 53.6077Z" fill="#ED1C24"/>
<path d="M40.2758 99.8773L39.127 98.8889C38.956 98.7416 38.7479 98.6441 38.5256 98.6069L12.928 94.3242C12.3437 94.2264 11.9122 93.8028 11.8016 93.2187C11.6911 92.6345 11.938 92.0816 12.4459 91.7756L21.578 86.2754C21.8832 86.0916 22.2424 86.0337 22.5898 86.1125L55.0455 93.4732C55.6764 93.6162 56.0975 94.1281 56.1182 94.7771C56.1389 95.4262 55.7512 95.964 55.1305 96.1473L41.5603 100.154C41.4316 100.192 41.3003 100.211 41.1701 100.211C40.8462 100.211 40.5292 100.095 40.2758 99.8773Z" fill="#1E2939"/>
<path d="M27.9486 67.9342C29.2175 68.4443 30.3461 69.252 31.2403 70.2897L31.2972 70.3144L31.3209 70.2573L43.6575 74.7806L56.8296 53.3711L64.1116 57.9015L48.8389 82.4867C47.9843 84.2238 45.8767 84.9197 44.1618 84.0309L28.8768 76.1419L28.9566 75.9497L28.9029 75.9232C27.5389 76.0173 26.1723 75.782 24.9175 75.2371C21.7601 73.9176 19.8791 71.2126 20.716 69.1956C21.5528 67.1787 24.7903 66.6138 27.9486 67.9342Z" fill="#FFC5C7"/>
<path d="M70.9598 57.2381L65.1336 48.4922C65.1336 48.4922 58.2006 49.8697 55.3447 53.5939C54.9877 54.0594 42.7252 71.9122 42.6462 72.6913C42.0932 78.1451 56.1867 80.7005 56.1867 80.7005L70.9598 57.2381Z" fill="#ED1C24"/>
<path d="M39.6416 100.14L10.2989 96.0692C9.31687 95.9331 8.50632 95.2267 8.23385 94.2697L1.49462 70.5917C1.26626 69.7892 1.43674 68.9582 1.96236 68.3116C2.48797 67.665 3.26455 67.3308 4.09379 67.3944L33.6566 69.668C34.7261 69.7502 35.6239 70.5063 35.8908 71.5492L42.4099 97.0248C42.6179 97.8377 42.4099 98.6971 41.8533 99.3234C41.3741 99.8629 40.6945 100.164 39.9861 100.164C39.8718 100.164 39.7567 100.156 39.6416 100.14Z" fill="#1E2939"/>
</g>
</g>
<defs>
<clipPath id="clip0_610_6193">
<rect width="120" height="120" fill="white"/>
</clipPath>
</defs>
</svg>
