<svg width="60" height="60" viewBox="0 0 60 60" fill="none" xmlns="http://www.w3.org/2000/svg">
<g clip-path="url(#clip0_610_5800)">
<path d="M33.956 0C48.1348 0 59.6708 11.5351 59.6709 25.7148C59.6709 35.1067 54.6077 43.335 47.0703 47.8213L50.6582 55.7168C51.0309 56.5367 51.0215 57.4733 50.6299 58.2832C50.2392 59.0952 49.513 59.6857 48.6387 59.9043C48.3894 59.9676 48.1398 59.9971 47.8935 59.9971C46.7691 59.9969 45.7233 59.3705 45.1992 58.3223L41.2256 50.377C38.9182 51.0583 36.48 51.4297 33.956 51.4297C31.5063 51.4297 29.1205 51.0562 26.8388 50.3945L22.873 58.3252C22.3488 59.3726 21.3022 60 20.1777 60C19.9326 60 19.6836 59.9695 19.4345 59.9082C18.5593 59.6886 17.833 59.0981 17.4424 58.2861C17.0517 57.4742 17.0412 56.5396 17.414 55.7197L20.9853 47.8633C15.4477 44.6084 11.1408 39.3408 9.26951 32.915L11.1689 32.3623C14.0994 42.4247 23.4694 49.452 33.956 49.4521C47.044 49.4521 57.6933 38.8028 57.6933 25.7148C57.6933 12.627 47.0439 1.97852 33.956 1.97852C23.4695 1.97867 14.0995 9.00515 11.1699 19.0684L9.27049 18.5156C12.4443 7.61357 22.5961 0.00015058 33.956 0ZM45.3281 48.7695C44.6103 49.1255 43.8726 49.4466 43.1181 49.7354L46.9678 57.4375C47.1903 57.8806 47.6795 58.111 48.1601 57.9854C48.4656 57.9092 48.7112 57.7105 48.8486 57.4248C48.9851 57.141 48.9889 56.8249 48.8584 56.5371L45.3281 48.7695ZM19.2158 56.5381C19.0843 56.8259 19.0881 57.1409 19.2256 57.4258C19.3631 57.7115 19.6085 57.9102 19.916 57.9873C20.3897 58.103 20.8839 57.8804 21.1054 57.4385L24.9463 49.7598C24.1916 49.4739 23.4534 49.1548 22.7314 48.8018L19.2158 56.5381ZM30.9892 53.4082V55.3867H29.0107V53.4082H30.9892ZM34.9453 55.3867H32.9678V53.4082H34.9453V55.3867ZM38.9013 55.3867H36.9238V53.4082H38.9013V55.3867ZM33.956 5.93457C44.8631 5.93457 53.7373 14.8087 53.7373 25.7158C53.737 36.6227 44.863 45.4961 33.956 45.4961C24.1855 45.4959 15.9793 38.4907 14.4433 28.8379L16.3984 28.5273C17.7802 37.2138 25.1637 43.5174 33.956 43.5176C43.7721 43.5176 51.7585 35.5318 51.7588 25.7158C51.7588 15.8996 43.7722 7.91309 33.956 7.91309C25.1637 7.91327 17.7802 14.2168 16.3984 22.9033L14.4433 22.5928C15.9793 12.9399 24.1855 5.93475 33.956 5.93457ZM33.956 9.89062C42.6812 9.89062 49.781 16.9897 49.7812 25.7148C49.7812 34.4401 42.6813 41.54 33.956 41.54C26.4602 41.5399 19.9387 36.2145 18.4492 28.8789L20.3877 28.4854C21.6912 34.9031 27.3968 39.5614 33.956 39.5615C41.5914 39.5615 47.8027 33.3502 47.8027 25.7148C47.8025 18.0796 41.5913 11.8691 33.956 11.8691C27.3968 11.8693 21.6912 16.5275 20.3877 22.9453L18.4492 22.5518C19.9387 15.2162 26.4602 9.89075 33.956 9.89062ZM33.956 16.8135C38.8636 16.8135 42.8574 20.8062 42.8574 25.7148C42.8574 30.6234 38.8636 34.6162 33.956 34.6162C30.3145 34.6161 27.0768 32.4322 25.708 29.0537L27.541 28.3096C28.6062 30.9384 31.1245 32.6376 33.956 32.6377C37.7737 32.6377 40.8799 29.5315 40.8799 25.7148C40.8799 21.8981 37.7737 18.792 33.956 18.792C31.1246 18.7921 28.6062 20.4905 27.541 23.1191L25.708 22.376C27.0768 18.9975 30.3145 16.8136 33.956 16.8135ZM10.2197 20.7695C10.4817 20.7696 10.7341 20.8737 10.9189 21.0596L14.5849 24.7256H33.956V26.7041H14.5849L10.9189 30.3701C10.7341 30.556 10.4817 30.6601 10.2197 30.6602H1.31834C0.918821 30.6602 0.557612 30.4196 0.404277 30.0498C0.250976 29.6799 0.336255 29.2545 0.61912 28.9717L3.87596 25.7148L0.61912 22.458C0.336271 22.1752 0.25101 21.7498 0.404277 21.3799C0.557578 21.01 0.918768 20.7695 1.31834 20.7695H10.2197ZM33.956 20.7695C36.6828 20.7695 38.9013 22.9881 38.9013 25.7148C38.9013 28.4416 36.6828 30.6602 33.956 30.6602C32.7743 30.6601 31.6227 30.2219 30.7138 29.4268L32.0156 27.9375C32.4033 28.2777 33.0562 28.6815 33.956 28.6816C35.5919 28.6816 36.9237 27.3507 36.9238 25.7148C36.9238 24.079 35.5919 22.748 33.956 22.748C33.0562 22.7482 32.4033 23.152 32.0146 23.4922L30.7129 22.0029C31.6227 21.2078 32.7743 20.7696 33.956 20.7695ZM5.97361 25.0156C6.36015 25.4023 6.36023 26.0274 5.97361 26.4141L3.70603 28.6816H9.80955L12.7773 25.7148L9.80955 22.748H3.70603L5.97361 25.0156Z" fill="white"/>
</g>
<defs>
<clipPath id="clip0_610_5800">
<rect width="60" height="60" fill="white"/>
</clipPath>
</defs>
</svg>
